<?xml version="1.0" encoding="utf-8"?>
<!-- Generator: Adobe Illustrator 20.1.0, SVG Export Plug-In . SVG Version: 6.00 Build 0)  -->
<svg version="1.1" id="_x36_417b830-9b31-489e-9ab2-bfcbfd1fa3c8"
	 xmlns="http://www.w3.org/2000/svg" xmlns:xlink="http://www.w3.org/1999/xlink" x="0px" y="0px" viewBox="0 0 100 30"
	 style="enable-background:new 0 0 100 30;" xml:space="preserve">
<style type="text/css">
	.st0{fill:none;stroke:#525252;stroke-width:0.58;stroke-miterlimit:10;}
	.st1{fill:none;stroke:#525252;stroke-width:0.2;stroke-miterlimit:10;}
	.st2{fill:#525252;}
</style>
<title>工作區域 1</title>
<path class="st0" d="M35.7,8.8h28.7c3.4,0,6.2,2.8,6.2,6.2l0,0c0,3.4-2.8,6.2-6.2,6.2H35.7c-3.4,0-6.2-2.8-6.2-6.2l0,0
	C29.4,11.6,32.2,8.8,35.7,8.8z"/>
<path class="st1" d="M62.8,17.3H37.2c-1.3,0-2.3-1-2.3-2.3l0,0l0,0c0-1.3,1-2.3,2.3-2.3l0,0h25.6c1.2,0,2.3,1,2.3,2.3l0,0
	C65.1,16.3,64.1,17.3,62.8,17.3L62.8,17.3z"/>
<path class="st2" d="M38.8,12.4h1.8c0.2,0,0.4,0.2,0.4,0.4l0,0c0,0.2-0.2,0.4-0.4,0.4h-1.8c-0.2,0-0.4-0.2-0.4-0.4l0,0
	C38.4,12.5,38.6,12.4,38.8,12.4z"/>
<path class="st2" d="M42.9,12.4h1.8c0.2,0,0.4,0.2,0.4,0.4l0,0c0,0.2-0.2,0.4-0.4,0.4h-1.8c-0.2,0-0.4-0.2-0.4-0.4l0,0
	C42.5,12.5,42.7,12.4,42.9,12.4z"/>
<path class="st2" d="M47,12.4h1.8c0.2,0,0.4,0.2,0.4,0.4l0,0c0,0.2-0.2,0.4-0.4,0.4H47c-0.2,0-0.4-0.2-0.4-0.4l0,0
	C46.7,12.5,46.8,12.4,47,12.4z"/>
<path class="st2" d="M51.1,12.4H53c0.2,0,0.4,0.2,0.4,0.4l0,0c0,0.2-0.2,0.4-0.4,0.4h-1.8c-0.2,0-0.4-0.2-0.4-0.4l0,0
	C50.8,12.5,50.9,12.4,51.1,12.4z"/>
<path class="st2" d="M55.3,12.4h1.8c0.2,0,0.4,0.2,0.4,0.4l0,0c0,0.2-0.2,0.4-0.4,0.4h-1.8c-0.2,0-0.4-0.2-0.4-0.4l0,0
	C54.9,12.5,55.1,12.4,55.3,12.4z"/>
<path class="st2" d="M59.4,12.4h1.8c0.2,0,0.4,0.2,0.4,0.4l0,0c0,0.2-0.2,0.4-0.4,0.4h-1.8c-0.2,0-0.4-0.2-0.4-0.4l0,0
	C59,12.5,59.2,12.4,59.4,12.4z"/>
<path class="st2" d="M38.8,16.9h1.8c0.2,0,0.4,0.2,0.4,0.4l0,0c0,0.2-0.2,0.4-0.4,0.4h-1.8c-0.2,0-0.4-0.2-0.4-0.4l0,0
	C38.4,17.1,38.6,16.9,38.8,16.9z"/>
<path class="st2" d="M42.9,16.9h1.8c0.2,0,0.4,0.2,0.4,0.4l0,0c0,0.2-0.2,0.4-0.4,0.4h-1.8c-0.2,0-0.4-0.2-0.4-0.4l0,0
	C42.5,17.1,42.7,16.9,42.9,16.9z"/>
<path class="st2" d="M47,16.9h1.8c0.2,0,0.4,0.2,0.4,0.4l0,0c0,0.2-0.2,0.4-0.4,0.4H47c-0.2,0-0.4-0.2-0.4-0.4l0,0
	C46.7,17.1,46.8,16.9,47,16.9z"/>
<path class="st2" d="M51.1,16.9H53c0.2,0,0.4,0.2,0.4,0.4l0,0c0,0.2-0.2,0.4-0.4,0.4h-1.8c-0.2,0-0.4-0.2-0.4-0.4l0,0
	C50.8,17.1,50.9,16.9,51.1,16.9z"/>
<path class="st2" d="M55.3,16.9h1.8c0.2,0,0.4,0.2,0.4,0.4l0,0c0,0.2-0.2,0.4-0.4,0.4h-1.8c-0.2,0-0.4-0.2-0.4-0.4l0,0
	C54.9,17.1,55.1,16.9,55.3,16.9z"/>
<path class="st2" d="M59.4,16.9h1.8c0.2,0,0.4,0.2,0.4,0.4l0,0c0,0.2-0.2,0.4-0.4,0.4h-1.8c-0.2,0-0.4-0.2-0.4-0.4l0,0
	C59,17.1,59.2,16.9,59.4,16.9z"/>
</svg>
