<?xml version="1.0" encoding="utf-8"?>
<!-- Generator: Adobe Illustrator 20.1.0, SVG Export Plug-In . SVG Version: 6.00 Build 0)  -->
<svg version="1.1" id="_x34_75936a8-8910-44bc-bc79-2cb9cc11e612"
	 xmlns="http://www.w3.org/2000/svg" xmlns:xlink="http://www.w3.org/1999/xlink" x="0px" y="0px" viewBox="0 0 100 30"
	 style="enable-background:new 0 0 100 30;" xml:space="preserve">
<style type="text/css">
	.st0{fill:none;stroke:#525252;stroke-width:0.58;stroke-miterlimit:10;}
	.st1{fill:none;stroke:#525252;stroke-width:0.2;stroke-miterlimit:10;}
	.st2{fill:#525252;}
</style>
<title>工作區域 1</title>
<path class="st0" d="M25.7,7.7h48.7c1.3,0,2.4,1.1,2.4,2.4V20c0,1.3-1.1,2.4-2.4,2.4H25.7c-1.3,0-2.4-1.1-2.4-2.4v-9.9
	C23.3,8.8,24.3,7.7,25.7,7.7z"/>
<path class="st1" d="M29.2,10.8h41.5c1.5,0,2.8,1.2,2.8,2.8l0,0c0,1.5-1.2,2.8-2.8,2.8H29.2c-1.5,0-2.8-1.2-2.8-2.8l0,0
	C26.5,12,27.7,10.8,29.2,10.8z"/>
<path class="st2" d="M32,15.7h2.8c0.4,0,0.7,0.3,0.7,0.7l0,0c0,0.4-0.3,0.7-0.7,0.7H32c-0.4,0-0.7-0.3-0.7-0.7l0,0
	C31.3,16,31.6,15.7,32,15.7z"/>
<path class="st2" d="M40.3,15.7h2.8c0.4,0,0.7,0.3,0.7,0.7l0,0c0,0.4-0.3,0.7-0.7,0.7h-2.8c-0.4,0-0.7-0.3-0.7-0.7l0,0
	C39.6,16,39.9,15.7,40.3,15.7z"/>
<path class="st2" d="M48.6,15.7h2.8c0.4,0,0.7,0.3,0.7,0.7l0,0c0,0.4-0.3,0.7-0.7,0.7h-2.8c-0.4,0-0.7-0.3-0.7-0.7l0,0
	C48,16,48.3,15.7,48.6,15.7z"/>
<path class="st2" d="M57,15.7h2.8c0.4,0,0.7,0.3,0.7,0.7l0,0c0,0.4-0.3,0.7-0.7,0.7H57c-0.4,0-0.7-0.3-0.7-0.7l0,0
	C56.3,16,56.6,15.7,57,15.7z"/>
<path class="st2" d="M65.3,15.7h2.8c0.4,0,0.7,0.3,0.7,0.7l0,0c0,0.4-0.3,0.7-0.7,0.7h-2.8c-0.4,0-0.7-0.3-0.7-0.7l0,0
	C64.6,16,64.9,15.7,65.3,15.7z"/>
</svg>
