<?xml version="1.0" encoding="utf-8"?>
<!-- Generator: Adobe Illustrator 20.1.0, SVG Export Plug-In . SVG Version: 6.00 Build 0)  -->
<svg version="1.1" id="_x39_3db39b4-546a-4316-9be1-94caa0a4a9d0"
	 xmlns="http://www.w3.org/2000/svg" xmlns:xlink="http://www.w3.org/1999/xlink" x="0px" y="0px" viewBox="0 0 100 30"
	 style="enable-background:new 0 0 100 30;" xml:space="preserve">
<style type="text/css">
	.st0{fill:none;stroke:#525252;stroke-width:0.58;stroke-miterlimit:10;}
	.st1{fill:#525252;}
	.st2{fill:none;stroke:#525252;stroke-width:0.2;stroke-miterlimit:10;}
</style>
<title>工作區域 1</title>
<path class="st0" d="M25.7,7.7h48.7c1.3,0,2.4,1.1,2.4,2.4v9.9c0,1.3-1.1,2.4-2.4,2.4H25.7c-1.3,0-2.4-1.1-2.4-2.4v-9.9
	C23.3,8.8,24.3,7.7,25.7,7.7z"/>
<path class="st1" d="M31.4,15.6h2.1c0.4,0,0.7,0.3,0.7,0.7v0c0,0.4-0.3,0.7-0.7,0.7h-2.1c-0.4,0-0.7-0.3-0.7-0.7v0
	C30.7,15.9,31,15.6,31.4,15.6z"/>
<path class="st1" d="M43.1,15.6h2.1c0.4,0,0.7,0.3,0.7,0.7v0c0,0.4-0.3,0.7-0.7,0.7h-2.1c-0.4,0-0.7-0.3-0.7-0.7v0
	C42.4,15.9,42.7,15.6,43.1,15.6z"/>
<path class="st1" d="M54.8,15.6h2.1c0.4,0,0.7,0.3,0.7,0.7v0c0,0.4-0.3,0.7-0.7,0.7h-2.1c-0.4,0-0.7-0.3-0.7-0.7v0
	C54.1,15.9,54.4,15.6,54.8,15.6z"/>
<path class="st1" d="M66.5,15.6h2.1c0.4,0,0.7,0.3,0.7,0.7v0c0,0.4-0.3,0.7-0.7,0.7h-2.1c-0.4,0-0.7-0.3-0.7-0.7v0
	C65.8,15.9,66.1,15.6,66.5,15.6z"/>
<path class="st2" d="M29.2,10.7h41.5c1.5,0,2.8,1.2,2.8,2.8v0c0,1.5-1.2,2.8-2.8,2.8H29.2c-1.5,0-2.8-1.2-2.8-2.8v0
	C26.5,12,27.7,10.7,29.2,10.7z"/>
</svg>
