<?xml version="1.0" encoding="utf-8"?>
<!-- Generator: Adobe Illustrator 20.1.0, SVG Export Plug-In . SVG Version: 6.00 Build 0)  -->
<svg version="1.1" id="_x33_2f10c6c-44bc-475a-aa64-a883c75f1141"
	 xmlns="http://www.w3.org/2000/svg" xmlns:xlink="http://www.w3.org/1999/xlink" x="0px" y="0px" viewBox="0 0 100 30"
	 style="enable-background:new 0 0 100 30;" xml:space="preserve">
<style type="text/css">
	.st0{fill:none;stroke:#525252;stroke-width:0.58;stroke-miterlimit:10;}
	.st1{fill:none;stroke:#525252;stroke-width:0.19;stroke-miterlimit:10;}
	.st2{fill:#525252;}
</style>
<title>工作區域 1</title>
<path class="st0" d="M7.9,11.3h84.2c2,0,3.7,1.7,3.7,3.7l0,0c0,2-1.7,3.7-3.7,3.7H7.9c-2,0-3.7-1.7-3.7-3.7l0,0
	C4.2,13,5.9,11.3,7.9,11.3z"/>
<line class="st1" x1="4.6" y1="16.7" x2="95.3" y2="16.7"/>
<path class="st2"  d="M13,16.2h5.8c0.2,0,0.5,0.2,0.5,0.4l0,0c0,0.2-0.2,0.4-0.5,0.4H13c-0.2,0-0.4-0.2-0.4-0.4l0,0C12.6,16.4,12.8,16.2,13,16.2z
	"/>
<path  class="st2"  d="M22.8,16.2h5.8c0.2,0,0.5,0.2,0.5,0.4l0,0c0,0.2-0.2,0.4-0.5,0.4h-5.8c-0.2,0-0.5-0.2-0.5-0.4l0,0
	C22.3,16.4,22.5,16.2,22.8,16.2z"/>
<path  class="st2"  d="M32.6,16.2h5.8c0.2,0,0.5,0.2,0.5,0.4l0,0c0,0.2-0.2,0.4-0.5,0.4h-5.8c-0.2,0-0.5-0.2-0.5-0.4l0,0
	C32.1,16.4,32.3,16.2,32.6,16.2z"/>
<path  class="st2" d="M42.4,16.2h5.8c0.2,0,0.5,0.2,0.5,0.4l0,0c0,0.2-0.2,0.4-0.5,0.4h-5.8c-0.2,0-0.5-0.2-0.5-0.4l0,0
	C41.9,16.4,42.1,16.2,42.4,16.2z"/>
<path class="st2"  d="M52.1,16.2H58c0.2,0,0.5,0.2,0.5,0.4l0,0c0,0.2-0.2,0.4-0.5,0.4h-5.8c-0.2,0-0.5-0.2-0.5-0.4l0,0
	C51.7,16.4,51.9,16.2,52.1,16.2z"/>
<path class="st2"  d="M61.9,16.2h5.8c0.2,0,0.4,0.2,0.4,0.4l0,0c0,0.2-0.2,0.4-0.4,0.4h-5.8c-0.2,0-0.5-0.2-0.5-0.4l0,0
	C61.5,16.4,61.7,16.2,61.9,16.2z"/>
<path class="st2"  d="M71.7,16.2h5.8c0.2,0,0.4,0.2,0.4,0.4l0,0c0,0.2-0.2,0.4-0.4,0.4h-5.8c-0.2,0-0.4-0.2-0.4-0.4l0,0
	C71.2,16.4,71.4,16.2,71.7,16.2z"/>
<path class="st2"  d="M81.5,16.2h5.8c0.2,0,0.4,0.2,0.4,0.4l0,0c0,0.2-0.2,0.4-0.4,0.4h-5.8c-0.2,0-0.4-0.2-0.4-0.4l0,0
	C81,16.4,81.2,16.2,81.5,16.2z"/>
</svg>
