<?xml version="1.0" encoding="utf-8"?>
<!-- Generator: Adobe Illustrator 20.1.0, SVG Export Plug-In . SVG Version: 6.00 Build 0)  -->
<svg version="1.1" id="f2fecf4e-d323-4a4a-8e81-b37d7dc7fac8"
	 xmlns="http://www.w3.org/2000/svg" xmlns:xlink="http://www.w3.org/1999/xlink" x="0px" y="0px" viewBox="0 0 100 30"
	 style="enable-background:new 0 0 100 30;" xml:space="preserve">
<style type="text/css">
	.st0{fill:none;stroke:#525252;stroke-width:0.58;stroke-miterlimit:10;}
	.st1{fill:none;stroke:#525252;stroke-width:0.19;stroke-miterlimit:10;}
	.st2{fill:#525252;}
</style>
<title>工作區域 1</title>
<path class="st0" d="M30.9,12.7h38.2c1.3,0,2.3,1,2.3,2.3v0c0,1.3-1,2.3-2.3,2.3H30.9c-1.3,0-2.3-1-2.3-2.3v0
	C28.6,13.8,29.7,12.7,30.9,12.7z"/>
<line class="st1" x1="28.6" y1="15.8" x2="71.4" y2="15.8"/>
<path class="st2" d="M32.2,15.4h2.7c0.2,0,0.3,0.2,0.3,0.4v0c0,0.2-0.2,0.3-0.3,0.3h-2.7c-0.2,0-0.3-0.2-0.3-0.3v0C31.9,15.6,32,15.4,32.2,15.4z
	"/>
<path class="st2"  d="M36.9,15.4h2.7c0.2,0,0.3,0.2,0.3,0.4v0c0,0.2-0.2,0.3-0.3,0.3h-2.7c-0.2,0-0.3-0.2-0.3-0.3v0
	C36.6,15.6,36.7,15.4,36.9,15.4z"/>
<path class="st2" d="M41.6,15.4h2.7c0.2,0,0.3,0.2,0.3,0.4v0c0,0.2-0.2,0.3-0.3,0.3h-2.7c-0.2,0-0.3-0.2-0.3-0.3v0
	C41.3,15.6,41.4,15.4,41.6,15.4z"/>
<path class="st2" d="M46.3,15.4H49c0.2,0,0.3,0.2,0.3,0.4v0c0,0.2-0.2,0.3-0.3,0.3h-2.7c-0.2,0-0.3-0.2-0.3-0.3v0C46,15.6,46.1,15.4,46.3,15.4z"
	/>
<path class="st2" d="M51,15.4h2.7c0.2,0,0.3,0.2,0.3,0.4v0c0,0.2-0.2,0.3-0.3,0.3H51c-0.2,0-0.3-0.2-0.3-0.3v0C50.7,15.6,50.8,15.4,51,15.4z"/>
<path class="st2" d="M55.7,15.4h2.7c0.2,0,0.3,0.2,0.3,0.4v0c0,0.2-0.2,0.3-0.3,0.3h-2.7c-0.2,0-0.3-0.2-0.3-0.3v0
	C55.4,15.6,55.5,15.4,55.7,15.4z"/>
<path class="st2" d="M60.4,15.4h2.7c0.2,0,0.3,0.2,0.3,0.4v0c0,0.2-0.2,0.3-0.3,0.3h-2.7c-0.2,0-0.3-0.2-0.3-0.3v0C60,15.6,60.2,15.4,60.4,15.4z
	"/>
<path class="st2" d="M65.1,15.4h2.7c0.2,0,0.3,0.2,0.3,0.4v0c0,0.2-0.2,0.3-0.3,0.3h-2.7c-0.2,0-0.3-0.2-0.3-0.3v0
	C64.7,15.6,64.9,15.4,65.1,15.4z"/>
</svg>
