<?xml version="1.0" encoding="utf-8"?>
<!-- Generator: Adobe Illustrator 20.1.0, SVG Export Plug-In . SVG Version: 6.00 Build 0)  -->
<svg version="1.1" id="f8eff970-7366-473d-9020-cb64204622dd"
	 xmlns="http://www.w3.org/2000/svg" xmlns:xlink="http://www.w3.org/1999/xlink" x="0px" y="0px" viewBox="0 0 100 30"
	 style="enable-background:new 0 0 100 30;" xml:space="preserve">
<style type="text/css">
	.st0{fill:#525252;}
	.st1{fill:none;stroke:#525252;stroke-width:0.581;stroke-miterlimit:10;}
	.st2{fill:none;stroke:#525252;stroke-width:0.2;stroke-miterlimit:10;}
</style>
<title>工作區域 1</title>
<path class="st0" d="M30.6,11.1H34c0.2,0,0.4,0.2,0.4,0.4v0c0,0.2-0.2,0.4-0.4,0.4h-3.4c-0.2,0-0.4-0.2-0.4-0.4v0
	C30.1,11.3,30.3,11.1,30.6,11.1z"/>
<path class="st0" d="M37.6,11.1H41c0.2,0,0.4,0.2,0.4,0.4v0c0,0.2-0.2,0.4-0.4,0.4h-3.4c-0.2,0-0.4-0.2-0.4-0.4v0
	C37.1,11.3,37.3,11.1,37.6,11.1z"/>
<path class="st0" d="M44.6,11.1H48c0.2,0,0.4,0.2,0.4,0.4v0c0,0.2-0.2,0.4-0.4,0.4h-3.4c-0.2,0-0.4-0.2-0.4-0.4v0
	C44.2,11.3,44.3,11.1,44.6,11.1z"/>
<path class="st0" d="M51.6,11.1H55c0.2,0,0.4,0.2,0.4,0.4v0c0,0.2-0.2,0.4-0.4,0.4h-3.4c-0.2,0-0.4-0.2-0.4-0.4v0
	C51.2,11.3,51.4,11.1,51.6,11.1z"/>
<path class="st0" d="M58.6,11.1H62c0.2,0,0.4,0.2,0.4,0.4v0c0,0.2-0.2,0.4-0.4,0.4h-3.4c-0.2,0-0.4-0.2-0.4-0.4v0
	C58.2,11.3,58.4,11.1,58.6,11.1z"/>
<path class="st0" d="M65.6,11.1H69c0.2,0,0.4,0.2,0.4,0.4v0c0,0.2-0.2,0.4-0.4,0.4h-3.4c-0.2,0-0.4-0.2-0.4-0.4v0
	C65.2,11.3,65.4,11.1,65.6,11.1z"/>
<path class="st0" d="M34.1,14.5h3.4c0.2,0,0.4,0.2,0.4,0.4v0c0,0.2-0.2,0.4-0.4,0.4h-3.4c-0.2,0-0.4-0.2-0.4-0.4v0
	C33.6,14.7,33.8,14.5,34.1,14.5z"/>
<path class="st0" d="M41.1,14.5h3.4c0.2,0,0.4,0.2,0.4,0.4v0c0,0.2-0.2,0.4-0.4,0.4h-3.4c-0.2,0-0.4-0.2-0.4-0.4v0
	C40.6,14.7,40.8,14.5,41.1,14.5z"/>
<path class="st0" d="M48.1,14.5h3.4c0.2,0,0.4,0.2,0.4,0.4v0c0,0.2-0.2,0.4-0.4,0.4h-3.4c-0.2,0-0.4-0.2-0.4-0.4v0
	C47.7,14.7,47.8,14.5,48.1,14.5z"/>
<path class="st0" d="M55.1,14.5h3.4c0.2,0,0.4,0.2,0.4,0.4v0c0,0.2-0.2,0.4-0.4,0.4h-3.4c-0.2,0-0.4-0.2-0.4-0.4v0
	C54.7,14.7,54.9,14.5,55.1,14.5z"/>
<path class="st0" d="M62.1,14.5h3.4c0.2,0,0.4,0.2,0.4,0.4v0c0,0.2-0.2,0.4-0.4,0.4h-3.4c-0.2,0-0.4-0.2-0.4-0.4v0
	C61.7,14.7,61.9,14.5,62.1,14.5z"/>
<path class="st1" d="M78.3,9.2v5.9c0,0.8-0.4,1.6-1.2,2l-9,4.8c-0.5,0.2-1,0.4-1.5,0.4H32.9c-0.5,0-1-0.1-1.5-0.4l-8.5-4.8
	c-0.7-0.4-1.2-1.2-1.2-2V9.2c0-0.8,0.6-1.4,1.4-1.4l0,0h53.7C77.6,7.8,78.3,8.4,78.3,9.2L78.3,9.2z"/>
<path class="st2" d="M27.3,11.6h45.1c0.9,0,1.6,0.7,1.6,1.6l0,0c0,0.9-0.7,1.6-1.6,1.6H27.3c-0.9,0-1.6-0.7-1.6-1.6l0,0
	C25.6,12.3,26.4,11.6,27.3,11.6z"/>
</svg>
