<?xml version="1.0" encoding="utf-8"?>
<!-- Generator: Adobe Illustrator 21.1.0, SVG Export Plug-In . SVG Version: 6.00 Build 0)  -->
<svg version="1.1" id="Layer_1" xmlns="http://www.w3.org/2000/svg" xmlns:xlink="http://www.w3.org/1999/xlink" x="0px" y="0px"
	 viewBox="0 0 210.4 19.1" style="enable-background:new 0 0 210.4 19.1;" xml:space="preserve">
<style type="text/css">
	.st0{fill:#1C1C1B;}
</style>
<path d="M4.1,12.7l-2.1,6.1H0.7L7,1.4h1.2l6.3,17.4h-1.3L11,12.7H4.1z M10.6,11.7L8.5,5.9C8.1,4.6,7.8,3.8,7.6,2.8H7.5
	c-0.3,1-0.5,1.9-0.9,3l-2.1,5.9H10.6z"/>
<path d="M16.1,16.6c1,0.7,2.4,1.1,3.8,1.1c2.6,0,4.2-1.5,4.2-3.6c0-1.9-1-3.1-3.5-4.1c-2.8-1-4.5-2.5-4.5-4.8c0-2.6,2.1-4.4,5.1-4.4
	c1.6,0,2.9,0.4,3.5,0.8l-0.5,1.1c-0.5-0.3-1.6-0.8-3.1-0.8c-2.8,0-3.8,1.8-3.8,3.2C17.3,7,18.4,8,20.9,9c2.9,1.2,4.4,2.5,4.4,5.1
	c0,2.5-1.8,4.8-5.5,4.8c-1.5,0-3.3-0.5-4.2-1.2L16.1,16.6z"/>
<path d="M29.3,1.1v10.5c0,4.4,2.1,6.2,4.6,6.2c2.9,0,4.9-1.9,4.9-6.2V1.1h1.2v10.4c0,5.4-2.9,7.3-6.2,7.3c-3,0-5.8-1.8-5.8-7.1V1.1
	H29.3z"/>
<path d="M43.2,16.6c1,0.7,2.4,1.1,3.8,1.1c2.6,0,4.2-1.5,4.2-3.6c0-1.9-1-3.1-3.5-4.1c-2.8-1-4.5-2.5-4.5-4.8c0-2.6,2.1-4.4,5.1-4.4
	c1.6,0,2.9,0.4,3.5,0.8l-0.5,1.1c-0.5-0.3-1.6-0.8-3.1-0.8c-2.8,0-3.8,1.8-3.8,3.2C44.4,7,45.5,8,48,9c2.9,1.2,4.4,2.5,4.4,5.1
	c0,2.5-1.8,4.8-5.5,4.8c-1.5,0-3.3-0.5-4.2-1.2L43.2,16.6z"/>
<path class="st0" d="M63.3,18.8L57.8,2h2.3l2.6,8.3c0.7,2.3,1.3,4.3,1.8,6.3h0c0.5-2,1.2-4.1,1.9-6.3L69.4,2h2.3l-6,16.8H63.3z"/>
<path class="st0" d="M75.6,3.3c0,0.7-0.5,1.3-1.4,1.3c-0.8,0-1.3-0.6-1.3-1.3c0-0.8,0.6-1.4,1.4-1.4C75,1.9,75.6,2.5,75.6,3.3z
	 M73.1,18.8V6.7h2.2v12.1H73.1z"/>
<path class="st0" d="M79.8,6.7l2.4,6.8c0.4,1.1,0.7,2.1,1,3.1h0.1c0.3-1,0.6-2,1-3.1l2.3-6.8h2.3l-4.7,12.1h-2.1L77.5,6.7H79.8z"/>
<path class="st0" d="M101.7,12.4c0,4.5-3.1,6.4-6,6.4c-3.3,0-5.8-2.4-5.8-6.2c0-4,2.6-6.4,6-6.4C99.3,6.2,101.7,8.7,101.7,12.4z
	 M92.1,12.5c0,2.6,1.5,4.6,3.7,4.6c2.1,0,3.7-2,3.7-4.7c0-2-1-4.6-3.6-4.6C93.2,7.8,92.1,10.2,92.1,12.5z"/>
<path class="st0" d="M104.5,2c0.9-0.2,2.4-0.3,4-0.3c2.2,0,3.6,0.4,4.6,1.2c0.9,0.6,1.4,1.6,1.4,3c0,1.6-1.1,3-2.8,3.7v0.1
	c1.6,0.4,3.5,1.7,3.5,4.2c0,1.4-0.6,2.5-1.4,3.4c-1.2,1.1-3.1,1.6-5.8,1.6c-1.5,0-2.6-0.1-3.4-0.2V2z M106.7,8.9h2
	c2.3,0,3.6-1.2,3.6-2.8c0-2-1.5-2.7-3.7-2.7c-1,0-1.6,0.1-1.9,0.1V8.9z M106.7,17c0.4,0.1,1,0.1,1.8,0.1c2.2,0,4.3-0.8,4.3-3.3
	c0-2.3-2-3.2-4.3-3.2h-1.8V17z"/>
<path class="st0" d="M129,12.4c0,4.5-3.1,6.4-6,6.4c-3.3,0-5.8-2.4-5.8-6.2c0-4,2.6-6.4,6-6.4C126.7,6.2,129,8.7,129,12.4z
	 M119.4,12.5c0,2.6,1.5,4.6,3.7,4.6c2.1,0,3.7-2,3.7-4.7c0-2-1-4.6-3.6-4.6C120.6,7.8,119.4,10.2,119.4,12.5z"/>
<path class="st0" d="M142.7,12.4c0,4.5-3.1,6.4-6,6.4c-3.3,0-5.8-2.4-5.8-6.2c0-4,2.6-6.4,6-6.4C140.4,6.2,142.7,8.7,142.7,12.4z
	 M133.1,12.5c0,2.6,1.5,4.6,3.7,4.6c2.1,0,3.7-2,3.7-4.7c0-2-1-4.6-3.6-4.6C134.3,7.8,133.1,10.2,133.1,12.5z"/>
<path class="st0" d="M147.7,12.3L147.7,12.3c0.3-0.4,0.8-0.9,1.1-1.4l3.5-4.2h2.6l-4.7,5l5.3,7.1H153l-4.2-5.8l-1.1,1.3v4.5h-2.2
	V1.1h2.2V12.3z"/>
<g>
	<path class="st0" d="M162,16.9c1,0.7,2.4,1.2,3.9,1.2c2.7,0,4.3-1.5,4.3-3.7c0-2-1-3.2-3.6-4.1c-2.9-1-4.6-2.5-4.6-4.9
		c0-2.6,2.1-4.5,5.2-4.5c1.7,0,2.9,0.4,3.5,0.8l-0.5,1.1c-0.5-0.3-1.6-0.8-3.1-0.8c-2.9,0-3.9,1.8-3.9,3.2c0,2,1.1,3,3.7,4
		c2.9,1.2,4.5,2.5,4.5,5.2c0,2.6-1.8,4.9-5.7,4.9c-1.5,0-3.3-0.5-4.3-1.2L162,16.9z"/>
	<path class="st0" d="M181.1,18.8v-5h-8.2v-0.8l8.4-11.3h1v11.1h2.6v1.1h-2.6v5H181.1z M181.1,12.7V5.8c0-0.8,0-1.6,0.1-2.4l-0.1,0
		c-0.5,1-0.9,1.6-1.3,2.2l-5.3,7.1v0.1H181.1z"/>
	<path class="st0" d="M191.8,19.1c-2.7,0-5.2-2.6-5.3-8.8c0-6.2,2.7-9,5.6-9c3,0,5.3,2.7,5.3,8.6C197.5,16.1,195.2,19.1,191.8,19.1
		L191.8,19.1z M192,18c2.9,0,4.1-3.2,4.1-7.9c0-4.5-1.2-7.7-4.1-7.7c-2.5,0-4.1,3.2-4.1,7.7C187.8,14.9,189.5,18,192,18L192,18z"/>
	<path class="st0" d="M208.8,2.5c-0.5,0-1.1,0-1.8,0.2c-3.7,0.8-5.8,3.9-6.2,7.3h0.1c0.8-1.3,2.4-2.4,4.4-2.4c3.1,0,5.1,2.3,5.1,5.5
		c0,3-1.9,6-5.4,6c-3.1,0-5.6-2.5-5.6-7.2c0-3.5,1.2-6.1,2.8-7.8c1.2-1.3,3-2.2,4.8-2.5c0.6-0.2,1.3-0.2,1.7-0.2V2.5z M205.1,18
		c2.3,0,3.9-1.9,3.9-4.8c0-3-1.7-4.5-4.1-4.5c-1.6,0-3.1,1-3.9,2.5c-0.2,0.3-0.3,0.6-0.3,1C200.7,15.6,202.3,18,205.1,18L205.1,18z"
		/>
</g>
</svg>
