<?xml version="1.0" standalone="no"?>
<!DOCTYPE svg PUBLIC "-//W3C//DTD SVG 1.1//EN" "http://www.w3.org/Graphics/SVG/1.1/DTD/svg11.dtd" >
<svg>
<metadata>
Created by FontForge 20090914 at Mon Feb 29 07:59:51 2016
 By www-data
Copyright (c) 1992 Adobe Systems Incorporated.  All Rights Reserved.Myriad is a trademark of Adobe Systems Incorporated.
</metadata>
<defs>
<font id="icon-ultralight" horiz-adv-x="300" >
  <font-face 
    font-family="Myriad Set Pro"
    font-weight="300"
    font-stretch="normal"
    units-per-em="1000"
    panose-1="2 0 1 3 5 0 0 2 0 4"
    ascent="800"
    descent="-200"
    x-height="483"
    cap-height="674"
    bbox="-434 -250 1058 963"
    underline-thickness="50"
    underline-position="-50"
    unicode-range="U+000A-U+FB06"
  />
<missing-glyph horiz-adv-x="500" 
d="M72 0v754h356v-754h-356zM97 25h306v704h-306v-704z" />
    <glyph glyph-name="ff" unicode="ff" horiz-adv-x="441" 
d="M301 0v467h-202v-467h-21v467h-62v16h62v24c0 68.667 9.66699 119.334 29 152.001s51 49 95 49c22.667 0 41.667 -4 57 -12l-6 -18c-7.33301 3.33301 -15 6.16602 -23 8.49902s-17.333 3.5 -28 3.5c-37.333 0 -63.833 -14.5 -79.5 -43.5s-23.5 -75.5 -23.5 -139.5v-24
h202v24c0 68.667 9.66699 121.334 29 158.001s51 55 95 55c22 0 40.667 -4 56 -12l-5 -18c-7.33301 3.33301 -15 6.16602 -23 8.49902s-17.333 3.5 -28 3.5c-37.333 0 -63.833 -16.5 -79.5 -49.5s-23.5 -81.5 -23.5 -145.5v-24h112v-16h-112v-467h-21z" />
    <glyph glyph-name="fi" unicode="fi" horiz-adv-x="404" 
d="M78 0l0.000976562 466.999h-62v16h62v24c0 68.667 11.5 121.334 34.5 158.001s61.5 55 115.5 55c18 0 34.333 -2 49 -6s28 -9.33301 40 -16l-7 -18c-11.333 6.66699 -23.833 12 -37.5 16s-28.5 6 -44.5 6c-46.667 0 -79.834 -16.5 -99.501 -49.5
s-29.5 -81.5 -29.5 -145.5v-24h225v-483h-21v467h-204v-467h-21z" />
    <glyph glyph-name="fl" unicode="fl" horiz-adv-x="404" 
d="M78 0l0.00195312 467h-62v16h62v24c0 68.667 11.5 121.334 34.5 158.001s61.5 55 115.5 55c35.333 0 67.333 -8.66699 96 -26v-694h-21v684c-10 5.33301 -21.333 9.66602 -34 12.999s-26.334 5 -41.001 5c-46.667 0 -79.834 -16.5 -99.501 -49.5
s-29.5 -81.5 -29.5 -145.5v-24h112v-16h-112v-467h-21z" />
    <glyph glyph-name="ffi" unicode="ffi" horiz-adv-x="627" 
d="M533 680c-11.333 6.66699 -23.832 11.999 -37.499 15.999s-28.5 6 -44.5 6c-46.667 0 -79.834 -16.5 -99.501 -49.5s-29.5 -81.5 -29.5 -145.5v-24h225v-483h-21v467h-204v-467h-21v467h-202v-467h-21v467h-62v16h62v24c0 68.667 9.66699 119.334 29 152.001s51 49 95 49
c22.667 0 41.667 -4 57 -12l-6 -18c-7.33301 3.33301 -15 6.16602 -23 8.49902s-17.333 3.5 -28 3.5c-37.333 0 -63.833 -14.5 -79.5 -43.5s-23.5 -75.5 -23.5 -139.5v-24h202v24c0 68.667 11.5 121.334 34.5 158.001s61.5 55 115.5 55c18 0 34.333 -2 49 -6
s28 -9.33301 40 -16z" />
    <glyph glyph-name="ffl" unicode="ffl" horiz-adv-x="627" 
d="M253 678c-7.33301 3.33301 -14.998 6.16602 -22.998 8.49902s-17.333 3.5 -28 3.5c-37.333 0 -63.833 -14.5 -79.5 -43.5s-23.5 -75.5 -23.5 -139.5v-24h202v24c0 68.667 11.5 121.334 34.5 158.001s61.5 55 115.5 55c35.333 0 67.333 -8.66699 96 -26v-694h-21v684
c-10 5.33301 -21.333 9.66602 -34 12.999s-26.334 5 -41.001 5c-46.667 0 -79.834 -16.5 -99.501 -49.5s-29.5 -81.5 -29.5 -145.5v-24h112v-16h-112v-467h-21v467h-202v-467h-21v467h-62v16h62v24c0 68.667 9.66699 119.334 29 152.001s51 49 95 49
c22.667 0 41.667 -4 57 -12z" />
    <glyph glyph-name=".notdef" horiz-adv-x="500" 
d="M72 0v754h356v-754h-356zM97 25h306v704h-306v-704z" />
    <glyph glyph-name=".null" horiz-adv-x="0" 
 />
    <glyph glyph-name=".null" horiz-adv-x="0" 
 />
    <glyph glyph-name="uni000A" unicode="&#xa;" horiz-adv-x="214" 
 />
    <glyph glyph-name="nonmarkingreturn" unicode="&#xd;" horiz-adv-x="0" 
 />
    <glyph glyph-name="space" unicode=" " horiz-adv-x="219" 
 />
    <glyph glyph-name="exclam" unicode="!" horiz-adv-x="174" 
d="M101 674l-7 -485h-15l-7 485h29zM111 19c0 -16.667 -7.99902 -25 -23.999 -25c-7.33301 0 -13.166 2.33301 -17.499 7s-6.5 10.667 -6.5 18s2.16699 13.5 6.5 18.5s10.166 7.5 17.499 7.5s13.166 -2.5 17.499 -7.5s6.5 -11.167 6.5 -18.5z" />
    <glyph glyph-name="quotedbl" unicode="&#x22;" horiz-adv-x="255" 
d="M82 691l-7 -224h-13l-7 224h27zM200 691l-7 -224h-13l-7 224h27z" />
    <glyph glyph-name="numbersign" unicode="#" horiz-adv-x="447" 
d="M150 439l28 211h20l-28 -211h138l28 211h20l-28 -211h83v-18h-85l-25 -186h88v-18h-90l-29 -217h-20l29 217h-139l-29 -217h-20l29 217h-84v18h86l26 186h-89v18h91zM142 235h139l25 186h-138z" />
    <glyph glyph-name="dollar" unicode="$" horiz-adv-x="444" 
d="M368 178c0 -19.333 -3.16895 -38.1572 -9.50195 -56.4902s-15.5 -34.833 -27.5 -49.5s-27 -27 -45 -37s-38.667 -16.333 -62 -19v-101h-18v100h-6c-26.667 0 -52 3.66699 -76 11s-43.667 16 -59 26l7 18c13.333 -10 31.833 -18.667 55.5 -26s47.167 -11 70.5 -11
c24 0 45.167 3.83301 63.5 11.5s33.833 18.167 46.5 31.5s22.167 28.666 28.5 45.999s9.5 35.666 9.5 54.999c0 20.667 -3.66699 38.667 -11 54s-17 28.666 -29 39.999s-26 21.333 -42 30s-32.667 17 -50 25c-18 8.66699 -35.333 17.5 -52 26.5s-31.5 19.5 -44.5 31.5
s-23.333 26 -31 42s-11.5 34.667 -11.5 56c0 20.667 3.33301 40 10 58s16.334 33.833 29.001 47.5s27.5 25 44.5 34s36.167 14.5 57.5 16.5v97h19v-96h2c23.333 0 44.333 -2.83301 63 -8.5s32.667 -12.167 42 -19.5l-7 -17c-8.66699 6.66699 -21.167 12.667 -37.5 18
s-36.166 8.33301 -59.499 9c-17.333 0 -34.5 -2.83301 -51.5 -8.5s-32.167 -14.334 -45.5 -26.001s-24 -26 -32 -43s-12 -36.833 -12 -59.5c0 -19.333 3.5 -36 10.5 -50s16.5 -26.333 28.5 -37s26 -20.334 42 -29.001s33 -17.334 51 -26.001s35.333 -17.834 52 -27.501
s31.5 -20.834 44.5 -33.501s23.333 -27.334 31 -44.001s11.5 -36.334 11.5 -59.001z" />
    <glyph glyph-name="percent" unicode="%" horiz-adv-x="761" 
d="M177 661c38 0 68.501 -16.4961 91.501 -49.4961s34.5 -81.167 34.5 -144.5c0 -34.667 -3.5 -64.834 -10.5 -90.501s-16.333 -47 -28 -64s-25.334 -29.667 -41.001 -38s-32.167 -12.5 -49.5 -12.5c-16.667 0 -32.667 4 -48 12s-28.833 20.167 -40.5 36.5
s-21 36.666 -28 60.999s-10.5 53.166 -10.5 86.499c0 32.667 3.5 61.667 10.5 87s16.5 46.666 28.5 63.999s25.833 30.333 41.5 39s32.167 13 49.5 13zM177.001 646.004c-30.667 0 -56.667 -16.168 -78 -48.501s-32 -78.833 -32 -139.5c0 -60 10.5 -105.167 31.5 -135.5
s46.167 -45.5 75.5 -45.5c30.667 0 56.5 15.833 77.5 47.5s31.5 78.834 31.5 141.501c0 58 -9.5 102.5 -28.5 133.5s-44.833 46.5 -77.5 46.5zM588.001 391.003c38 0 68.5 -16.5 91.5 -49.5s34.5 -80.833 34.5 -143.5c0 -34.667 -3.5 -64.834 -10.5 -90.501
s-16.5 -47 -28.5 -64s-25.833 -29.667 -41.5 -38s-32.167 -12.5 -49.5 -12.5c-16 0 -31.667 4 -47 12s-28.833 20.167 -40.5 36.5s-21 36.833 -28 61.5s-10.5 53.334 -10.5 86.001s3.5 61.667 10.5 87s16.5 46.5 28.5 63.5s25.833 29.833 41.5 38.5s32.167 13 49.5 13z
M588.001 376.003c-30.667 0 -56.667 -16.001 -78 -48.001s-32 -78.333 -32 -139c0 -60 10.5 -105.167 31.5 -135.5s45.833 -45.5 74.5 -45.5c31.333 0 57.5 15.833 78.5 47.5s31.5 78.834 31.5 141.501c0 57.333 -9.5 101.5 -28.5 132.5s-44.833 46.5 -77.5 46.5z
M181.001 -10.998l379 672h19l-379 -672h-19z" />
    <glyph glyph-name="ampersand" unicode="&#x26;" horiz-adv-x="527" 
d="M512 364c-6.66699 -46 -16.335 -92.167 -29.002 -138.5s-31.667 -87.5 -57 -123.5l89 -102h-26l-76 86c-23.333 -29.333 -51.5 -52.833 -84.5 -70.5s-72.5 -26.5 -118.5 -26.5c-26 0 -50 3.83301 -72 11.5s-41 19 -57 34s-28.5 33.333 -37.5 55s-13.5 46.5 -13.5 74.5
c0 26.667 3.83301 50.5 11.5 71.5s17.834 39.667 30.501 56s27.334 30.833 44.001 43.5s34 24.334 52 35.001c-20.667 26.667 -36.5 52.667 -47.5 78s-16.5 52 -16.5 80c0 22 3.5 42.667 10.5 62s17 36 30 50s28.333 25 46 33s37.167 12 58.5 12c36 0 64 -11.667 84 -35
s30 -52.333 30 -87c0 -24 -4.83301 -45.5 -14.5 -64.5s-22.5 -36.333 -38.5 -52s-34 -29.834 -54 -42.501l-61 -37l219 -251c22.667 34 39.667 72.833 51 116.5s20 87.5 26 131.5h21zM211.999 6c43.333 0 80.333 8.66699 111 26s56.667 40 78 68l-223 257
c-16.667 -10 -32.667 -21 -48 -33s-28.666 -25.667 -39.999 -41s-20.5 -32.666 -27.5 -51.999s-10.5 -41 -10.5 -65c0 -26 4.33301 -48.833 13 -68.5s20.167 -36.334 34.5 -50.001s31.166 -24 50.499 -31s40 -10.5 62 -10.5zM125.999 529
c0 -25.333 4.83203 -49.9971 14.499 -73.9971s24.5 -49 44.5 -75c19.333 11.333 38.5 23.166 57.5 35.499s35.833 25.666 50.5 39.999s26.5 30.333 35.5 48s13.5 37.5 13.5 59.5c0 30 -8.16699 55 -24.5 75s-39.166 30 -68.499 30c-18.667 0 -35.5 -3.5 -50.5 -10.5
s-27.833 -16.833 -38.5 -29.5s-19 -27.334 -25 -44.001s-9 -35 -9 -55z" />
    <glyph glyph-name="quotesingle" unicode="'" horiz-adv-x="137" 
d="M82 691l-7 -224h-13l-7 224h27z" />
    <glyph glyph-name="parenleft" unicode="(" horiz-adv-x="236" 
d="M218 695c-16 -21.333 -32 -45.667 -48 -73s-30.167 -58 -42.5 -92s-22.333 -71.333 -30 -112s-11.5 -85 -11.5 -133s3.83301 -92.167 11.5 -132.5s17.667 -77.166 30 -110.499s26.5 -63.5 42.5 -90.5s32 -51.167 48 -72.5h-22c-16 20.667 -31.833 44.167 -47.5 70.5
s-29.667 56.166 -42 89.499s-22.333 70.333 -30 111s-11.5 85.667 -11.5 135s3.83301 94.5 11.5 135.5s17.667 78.167 30 111.5s26.333 63.5 42 90.5s31.5 51.167 47.5 72.5h22z" />
    <glyph glyph-name="parenright" unicode=")" horiz-adv-x="236" 
d="M18 -121c16 21.333 32 45.666 48 72.999s30.167 58 42.5 92s22.333 71.333 30 112s11.5 85 11.5 133s-3.83301 92 -11.5 132s-17.667 76.833 -30 110.5s-26.5 64 -42.5 91s-32 51.167 -48 72.5h22c16 -20.667 31.833 -44.167 47.5 -70.5s29.667 -56.166 42 -89.499
s22.333 -70.333 30 -111s11.5 -85.667 11.5 -135s-3.83301 -94.5 -11.5 -135.5s-17.667 -78.167 -30 -111.5s-26.333 -63.5 -42 -90.5s-31.5 -51.167 -47.5 -72.5h-22z" />
    <glyph glyph-name="asterisk" unicode="*" horiz-adv-x="373" 
d="M277 647l-82 -125v-2l148 8v-26l-148 9v-2l82 -125l-23 -13l-67 133h-2l-74 -133l-23 13l89 125v2l-147 -9v26l147 -8v2l-89 125l23 13l74 -135h2l67 135z" />
    <glyph glyph-name="plus" unicode="+" horiz-adv-x="555" 
d="M287 532v-253h223v-18h-223v-261h-20v261h-222v18h222v253h20z" />
    <glyph glyph-name="comma" unicode="," horiz-adv-x="137" 
d="M104 78c-11.333 -42 -23 -81.499 -35 -118.499s-24 -66.167 -36 -87.5l-15 -5c10 28 19.833 59.667 29.5 95s17.167 70.666 22.5 105.999z" />
    <glyph glyph-name="hyphen" unicode="-" horiz-adv-x="251" 
d="M221 285v-19h-191v19h191z" />
    <glyph glyph-name="period" unicode="." horiz-adv-x="137" 
d="M100 19c0 -16.667 -7.99902 -25 -23.999 -25c-7.33301 0 -13.166 2.33301 -17.499 7s-6.5 10.667 -6.5 18s2.16699 13.5 6.5 18.5s10.166 7.5 17.499 7.5s13.166 -2.5 17.499 -7.5s6.5 -11.167 6.5 -18.5z" />
    <glyph glyph-name="slash" unicode="/" horiz-adv-x="306" 
d="M0 -40l285 725h21l-285 -725h-21z" />
    <glyph glyph-name="zero" unicode="0" horiz-adv-x="444" 
d="M227 661c56.667 0 100.833 -28.166 132.5 -84.499s47.5 -137.833 47.5 -244.5c0 -113.333 -16.667 -198.833 -50 -256.5s-80 -86.5 -140 -86.5c-25.333 0 -49 7 -71 21s-41 35 -57 63s-28.667 62.833 -38 104.5s-14 90.167 -14 145.5c0 56 4.83301 105 14.5 147
s23 77.167 40 105.5s37 49.666 60 63.999s48.167 21.5 75.5 21.5zM225.999 643.001c-24 0 -46.167 -6.66797 -66.5 -20.001s-38 -33.5 -53 -60.5s-26.667 -60.5 -35 -100.5s-12.5 -86.333 -12.5 -139c0 -104.667 15 -183.5 45 -236.5s68 -79.5 114 -79.5
c52.667 0 93.667 27.5 123 82.5s44 135.5 44 241.5c0 100.667 -14 177.834 -42 231.501s-67 80.5 -117 80.5z" />
    <glyph glyph-name="one" unicode="1" horiz-adv-x="444" 
d="M252 0l-21 0.000976562v629c-2 -0.666992 -7.33301 -3.33398 -16 -8.00098c-8 -4 -20.167 -10.667 -36.5 -20l-69.5 -39l-4 17l128 71h19v-650z" />
    <glyph glyph-name="two" unicode="2" horiz-adv-x="444" 
d="M388 0l-344.003 -0.000976562v14l77 90l96 111c28.667 34 53.334 66.333 74.001 97s36.5 60.5 47.5 89.5s16.5 58.833 16.5 89.5c0 20 -2.66699 39.167 -8 57.5s-13.666 34.5 -24.999 48.5s-26 25.167 -44 33.5s-40 12.5 -66 12.5c-28 0 -53.833 -6 -77.5 -18
s-43.5 -26.667 -59.5 -44l-8 15c18 18.667 39.5 34.167 64.5 46.5s52.5 18.5 82.5 18.5c28.667 0 53.334 -4.66699 74.001 -14s37.5 -21.833 50.5 -37.5s22.667 -33.667 29 -54s9.5 -41.5 9.5 -63.5c0 -31.333 -5.83301 -62 -17.5 -92s-28 -60.667 -49 -92
s-45.667 -64.166 -74 -98.499l-93.5 -110.5l-70 -80v-2h315v-17z" />
    <glyph glyph-name="three" unicode="3" horiz-adv-x="444" 
d="M375 184c0 -26.667 -4.33691 -51.8359 -13.0039 -75.5029s-21.5 -44.334 -38.5 -62.001s-38 -31.667 -63 -42s-53.833 -15.5 -86.5 -15.5c-28.667 0 -54.5 4.33301 -77.5 13s-41.167 18 -54.5 28l8 18c12 -10 29.167 -19.333 51.5 -28s46.5 -13 72.5 -13
c30 0 56.167 4.5 78.5 13.5s41 21.5 56 37.5s26.167 34.833 33.5 56.5s11 44.834 11 69.501c0 22.667 -4.5 43.834 -13.5 63.501s-21.667 36.834 -38 51.501s-35.666 26.167 -57.999 34.5s-46.833 12.5 -73.5 12.5h-29v17h29c20 0 39.5 4 58.5 12s36 18.833 51 32.5
s27 29.834 36 48.501s13.5 38.667 13.5 60c0 16 -2.66699 31.667 -8 47s-13.166 29 -23.499 41s-23.666 21.5 -39.999 28.5s-35.5 10.5 -57.5 10.5c-26 0 -50.333 -5 -73 -15s-40.667 -20.667 -54 -32l-6 18c14.667 11.333 33.834 22 57.501 32s49.5 15 77.5 15
c25.333 0 47.333 -4.16699 66 -12.5s34.167 -19.333 46.5 -33s21.5 -29 27.5 -46s9 -34.167 9 -51.5c0 -18 -3.16699 -35.5 -9.5 -52.5s-15 -32.5 -26 -46.5s-24.333 -26.333 -40 -37s-32.5 -19 -50.5 -25v-2c18.667 -3.33301 37 -9.66602 55 -18.999s34 -21.333 48 -36
s25.333 -31.834 34 -51.501s13 -41.167 13 -64.5z" />
    <glyph glyph-name="four" unicode="4" horiz-adv-x="444" 
d="M316 0v202h-299v14l291 434h29v-431h87v-17h-87v-202h-21zM316 630h-2l-32.5 -52l-32.5 -51l-206 -306v-2h273v411z" />
    <glyph glyph-name="five" unicode="5" horiz-adv-x="444" 
d="M365 633l-227.002 0.00292969l-36 -243c22 2 44 3 66 3c30.667 0 59 -4.5 85 -13.5s48.667 -21.833 68 -38.5s34.5 -36.834 45.5 -60.501s16.5 -50.5 16.5 -80.5c0 -34 -5.33301 -64 -16 -90s-25.5 -48 -44.5 -66s-41.167 -31.667 -66.5 -41s-52.333 -14 -81 -14
c-30 0 -55.333 3.66699 -76 11s-39 15.666 -55 24.999l6 17c14.667 -9.33301 32.167 -17.666 52.5 -24.999s44.5 -11 72.5 -11c26 0 50.333 4.16699 73 12.5s42.5 20.666 59.5 36.999s30.333 36.333 40 60s14.5 51.167 14.5 82.5c0 27.333 -4.83301 52 -14.5 74
s-23.334 40.667 -41.001 56s-38.667 27.166 -63 35.499s-51.166 12.5 -80.499 12.5c-13.333 0 -27.166 -0.5 -41.499 -1.5s-28.166 -2.5 -41.499 -4.5l41 280h244v-17z" />
    <glyph glyph-name="six" unicode="6" horiz-adv-x="444" 
d="M410 217c0 -30 -4.16602 -58.8369 -12.499 -86.5039s-20.666 -52 -36.999 -73s-36.166 -37.667 -59.499 -50s-50 -18.5 -80 -18.5c-27.333 0 -52.333 6.33301 -75 19s-42.334 30.667 -59.001 54s-29.667 52 -39 86s-14 72.667 -14 116
c0 55.333 6.83301 106.833 20.5 154.5s33.5 89.334 59.5 125.001s58.167 63.834 96.5 84.501s82.166 31.667 131.499 33c0 -3.33301 0.166992 -6.5 0.5 -9.5s0.5 -6.16699 0.5 -9.5c-81.333 -2 -147 -31.5 -197 -88.5s-79.667 -136.833 -89 -239.5h2
c15.333 30 38.833 54.5 70.5 73.5s66.167 28.5 103.5 28.5c26.667 0 51 -4.66699 73 -14s40.667 -22.666 56 -39.999s27.166 -38.166 35.499 -62.499s12.5 -51.833 12.5 -82.5zM388.001 215.996c0 56.667 -14.334 101.167 -43.001 133.5s-67 48.5 -115 48.5
c-21.333 0 -42.333 -4.16699 -63 -12.5s-39.167 -19.5 -55.5 -33.5s-29.666 -30.167 -39.999 -48.5s-15.5 -37.833 -15.5 -58.5c0 -34 4.16699 -65.5 12.5 -94.5s19.833 -54.167 34.5 -75.5s32 -38 52 -50s42 -18 66 -18c26.667 0 50.334 5.66699 71.001 17
s38.167 26.5 52.5 45.5s25.166 41.167 32.499 66.5s11 52 11 80z" />
    <glyph glyph-name="seven" unicode="7" horiz-adv-x="444" 
d="M107 0h-23l296 633h-330v17h354v-14z" />
    <glyph glyph-name="eight" unicode="8" horiz-adv-x="444" 
d="M221 -11c-28 0 -53.1621 4.50293 -75.4951 13.5029s-41.5 21.167 -57.5 36.5s-28.167 33 -36.5 53s-12.5 41.333 -12.5 64c0 44 13.667 82 41 114s65.666 56.667 114.999 74v3c-40 12 -71.667 32.167 -95 60.5s-35 60.5 -35 96.5c0 22.667 4.16699 43.667 12.5 63
s19.666 36 33.999 50s31.666 24.833 51.999 32.5s42.5 11.5 66.5 11.5c26 0 48.667 -4 68 -12s35.166 -18.5 47.499 -31.5s21.666 -28 27.999 -45s9.5 -34.5 9.5 -52.5c0 -36 -10 -68.5 -30 -97.5s-53 -53.5 -99 -73.5v-3c21.333 -6.66699 41.166 -15.834 59.499 -27.501
s34.333 -25.334 48 -41.001s24.334 -32.834 32.001 -51.501s11.5 -38 11.5 -58c0 -27.333 -4.66699 -52 -14 -74s-22.333 -40.833 -39 -56.5s-36.167 -27.667 -58.5 -36s-46.5 -12.5 -72.5 -12.5zM220.005 338.003c-57.333 -21.333 -98.1699 -47.168 -122.503 -77.501
s-36.5 -64.833 -36.5 -103.5c0 -20.667 3.66699 -40 11 -58s18 -33.833 32 -47.5s30.833 -24.5 50.5 -32.5s41.834 -12 66.501 -12c23.333 0 44.833 3.66699 64.5 11s36.834 18 51.501 32s26 30.833 34 50.5s12 41.834 12 66.501c0 20 -4.16699 39.167 -12.5 57.5
s-19.666 35 -33.999 50s-31.5 28 -51.5 39s-41.667 19.167 -65 24.5zM230.001 355.001c44 16.667 76.832 38.832 98.499 66.499s32.5 59.834 32.5 96.501c0 15.333 -2.5 30.5 -7.5 45.5s-13 28.333 -24 40s-24.833 21.167 -41.5 28.5s-36.334 11 -59.001 11
c-21.333 0 -40.666 -3.33301 -57.999 -10s-32.166 -16.167 -44.499 -28.5s-22 -26.833 -29 -43.5s-10.5 -35 -10.5 -55c0 -36 12 -67.5 36 -94.5s59.667 -45.833 107 -56.5z" />
    <glyph glyph-name="nine" unicode="9" horiz-adv-x="444" 
d="M384 410c0 34 -4.16504 65.167 -12.498 93.5s-19.833 52.833 -34.5 73.5s-31.834 36.834 -51.501 48.501s-40.834 17.5 -63.501 17.5c-26 0 -49.167 -5.66699 -69.5 -17s-37.333 -26.5 -51 -45.5s-24.167 -41.167 -31.5 -66.5s-11 -52 -11 -80
c0 -56.667 14.333 -100.334 43 -131.001s67 -46 115 -46c20 0 39.833 4.16699 59.5 12.5s37.5 19.5 53.5 33.5s29 30.167 39 48.5s15 37.833 15 58.5zM406.002 391c0 -55.333 -6.83398 -107.167 -20.501 -155.5s-33.5 -90.5 -59.5 -126.5s-58.167 -64.667 -96.5 -86
s-82.166 -32.666 -131.499 -33.999c0 3.33301 -0.166992 6.5 -0.5 9.5s-0.5 6.16699 -0.5 9.5c40.667 0.666992 77.5 9 110.5 25s61.833 38.167 86.5 66.5s44.667 62.833 60 103.5s25.333 86.667 30 138h-2c-14.667 -30 -37.5 -54.5 -68.5 -73.5s-64.167 -28.5 -99.5 -28.5
c-54 0 -97 17 -129 51s-48 81.667 -48 143c0 30 4.16699 58.833 12.5 86.5s20.333 52 36 73s35 37.667 58 50s49.167 18.5 78.5 18.5c26 0 50.167 -6 72.5 -18s41.833 -29.5 58.5 -52.5s29.667 -51.333 39 -85s14 -71.834 14 -114.501z" />
    <glyph glyph-name="colon" unicode=":" horiz-adv-x="137" 
d="M100 407c0 -7.33301 -2.16699 -13.333 -6.5 -18s-10.166 -7 -17.499 -7s-13.166 2.33301 -17.499 7s-6.5 10.667 -6.5 18s2.16699 13.5 6.5 18.5s10.166 7.5 17.499 7.5s13.166 -2.5 17.499 -7.5s6.5 -11.167 6.5 -18.5zM100 19c0 -7.33301 -2.16699 -13.333 -6.5 -18
s-10.166 -7 -17.499 -7s-13.166 2.33301 -17.499 7s-6.5 10.667 -6.5 18s2.16699 13.5 6.5 18.5s10.166 7.5 17.499 7.5s13.166 -2.5 17.499 -7.5s6.5 -11.167 6.5 -18.5z" />
    <glyph glyph-name="semicolon" unicode=";" horiz-adv-x="137" 
d="M106 407c0 -7.33301 -2.16699 -13.333 -6.5 -18s-10.166 -7 -17.499 -7s-13.166 2.33301 -17.499 7s-6.5 10.667 -6.5 18s2.16699 13.5 6.5 18.5s10.166 7.5 17.499 7.5s13.166 -2.5 17.499 -7.5s6.5 -11.167 6.5 -18.5zM104 78c-11.333 -42 -23 -81.499 -35 -118.499
s-24 -66.167 -36 -87.5l-15 -5c10 28 19.833 59.667 29.5 95s17.167 70.666 22.5 105.999z" />
    <glyph glyph-name="less" unicode="&#x3c;" horiz-adv-x="555" 
d="M72 275l411 221v-21l-391 -209v-2l391 -209v-21l-411 221v20z" />
    <glyph glyph-name="equal" unicode="=" horiz-adv-x="555" 
d="M510 376v-18h-465v18h465zM510 181v-18h-465v18h465z" />
    <glyph glyph-name="greater" unicode="&#x3e;" horiz-adv-x="555" 
d="M483 255l-411 -221v21l391 209v2l-391 209v21l411 -221v-20z" />
    <glyph glyph-name="question" unicode="?" horiz-adv-x="335" 
d="M290 551c0 -34 -8.66602 -66.334 -25.999 -97.001s-37 -60 -59 -88c-20 -24.667 -34.333 -47 -43 -67s-13 -43.667 -13 -71v-21c0 -6.66699 0.666992 -13.667 2 -21h-21c-1.33301 8 -2.16602 15.333 -2.49902 22s-0.5 13.667 -0.5 21c0 29.333 4.83301 54.833 14.5 76.5
s24.5 44.834 44.5 69.501c21.333 26.667 40.166 54.667 56.499 84s24.5 59.666 24.5 90.999c0 32 -9.33301 59.667 -28 83s-47 35 -85 35c-16.667 0 -33.334 -2.83301 -50.001 -8.5s-31 -13.834 -43 -24.501l-10 14c13.333 11.333 29.5 20.333 48.5 27s38.167 10 57.5 10
c22 0 41.333 -3.66699 58 -11s30.5 -17.166 41.5 -29.499s19.333 -26.666 25 -42.999s8.5 -33.5 8.5 -51.5zM166.001 18.999c0 -16.667 -7.99902 -25 -23.999 -25c-7.33301 0 -13.166 2.33301 -17.499 7s-6.5 10.667 -6.5 18s2.16699 13.5 6.5 18.5s10.166 7.5 17.499 7.5
s13.166 -2.5 17.499 -7.5s6.5 -11.167 6.5 -18.5z" />
    <glyph glyph-name="at" unicode="@" horiz-adv-x="690" 
d="M472 401c-8 4 -17.666 6.83301 -28.999 8.5s-23.333 2.5 -36 2.5c-28 0 -54 -6.16699 -78 -18.5s-44.667 -28.666 -62 -48.999s-30.833 -44 -40.5 -71s-14.5 -55.167 -14.5 -84.5c0 -14.667 1.5 -28.5 4.5 -41.5s7.66699 -24.5 14 -34.5s14.666 -17.833 24.999 -23.5
s22.833 -8.5 37.5 -8.5c15.333 0 30.5 3.5 45.5 10.5s29 18.167 42 33.5s25 35.666 36 60.999s20.5 56 28.5 92zM477.001 -66c-24.667 -15.333 -49.5 -25.5029 -74.5 -30.5029s-51.833 -7.5 -80.5 -7.5c-38 0 -74 7 -108 21s-63.833 34.333 -89.5 61s-46 59.167 -61 97.5
s-22.5 81.833 -22.5 130.5c0 52.667 8 102.334 24 149.001s38.833 87.5 68.5 122.5s65.5 62.833 107.5 83.5s89 31 141 31c40 0 76.5 -7 109.5 -21s61.333 -33.667 85 -59s42.167 -55.333 55.5 -90s20 -73 20 -115c0 -39.333 -4.33301 -74 -13 -104
s-20.334 -55.167 -35.001 -75.5s-31.5 -35.833 -50.5 -46.5s-38.5 -16 -58.5 -16c-30 0 -50 9.5 -60 28.5s-13 43.167 -9 72.5h-3c-13.333 -30 -31.666 -54.333 -54.999 -73s-48.666 -28 -75.999 -28c-30.667 0 -54.834 10.5 -72.501 31.5s-26.5 51.833 -26.5 92.5
c0 32 5.33301 62.333 16 91s25.667 54 45 76s42.166 39.5 68.499 52.5s55.166 19.5 86.499 19.5c16 0 31.333 -1.33301 46 -4s27.334 -7.33398 38.001 -14.001l-46 -214c-9.33301 -44 -9.16602 -74.5 0.500977 -91.5s26.167 -25.5 49.5 -25.5c17.333 0 34.166 5 50.499 15
s30.833 24.667 43.5 44s22.834 43 30.501 71s11.5 60.333 11.5 97c0 40 -6.16699 76.5 -18.5 109.5s-29.5 61.333 -51.5 85s-48.5 42.167 -79.5 55.5s-65.167 20 -102.5 20c-48 0 -91.833 -9.66699 -131.5 -29s-73.5 -45.666 -101.5 -78.999s-49.667 -72.5 -65 -117.5
s-23 -92.833 -23 -143.5c0 -46.667 7 -88.167 21 -124.5s32.833 -67.166 56.5 -92.499s51.5 -44.666 83.5 -57.999s66 -20 102 -20c26.667 0 52.5 2.5 77.5 7.5s49.167 14.833 72.5 29.5z" />
    <glyph glyph-name="A" unicode="A" horiz-adv-x="553" 
d="M293 674l229 -674h-23l-81 239h-281l-81 -239h-22l229 674h30zM412 257l-38 111l-37 112l-29 87l-29 87h-2l-29 -87l-29 -87l-38 -111.5l-38 -111.5h269z" />
    <glyph glyph-name="B" unicode="B" horiz-adv-x="482" 
d="M85 665c15.333 3.33301 32.999 6.5 52.999 9.5s44.333 4.5 73 4.5c29.333 0 56.333 -2.66699 81 -8s46 -14 64 -26s32 -28.167 42 -48.5s15 -45.5 15 -75.5c0 -42 -14.5 -77 -43.5 -105s-66.5 -46.667 -112.5 -56v-2c24 -4 46.833 -9.83301 68.5 -17.5
s40.834 -18.167 57.501 -31.5s29.834 -29.833 39.501 -49.5s14.5 -43.5 14.5 -71.5c0 -35.333 -7.33301 -65.333 -22 -90s-34.334 -44.667 -59.001 -60s-53 -26.5 -85 -33.5s-65.333 -10.5 -100 -10.5c-34 0 -62.667 2.66699 -86 8v663zM105.999 366l77.0029 0.000976562
c30 0 57.667 3.5 83 10.5s47.166 17.167 65.499 30.5s32.833 29.666 43.5 48.999s16 41 16 65c0 26 -4.33301 48 -13 66s-20.834 32.5 -36.501 43.5s-34.667 18.833 -57 23.5s-46.833 7 -73.5 7c-22 0 -42.333 -1.16699 -61 -3.5s-33.334 -4.83301 -44.001 -7.5v-284z
M106.002 18.001c9.33301 -1.33301 19.668 -2.66699 31.001 -4s23.666 -2 36.999 -2c31.333 0 61.5 3.16699 90.5 9.5s54.5 16.5 76.5 30.5s39.667 32.167 53 54.5s20 49.5 20 81.5c0 30.667 -6.33301 56.334 -19 77.001s-30 37.167 -52 49.5s-47.667 21.166 -77 26.499
s-60.333 8 -93 8h-67v-331z" />
    <glyph glyph-name="C" unicode="C" horiz-adv-x="549" 
d="M513 17c-16 -5.33301 -37.335 -11.1689 -64.002 -17.502s-59 -9.5 -97 -9.5c-46 0 -88.167 7.33301 -126.5 22s-71.333 36.334 -99 65.001s-49.167 64.167 -64.5 106.5s-23 91.5 -23 147.5c0 52.667 7.5 100.667 22.5 144s36.667 80.5 65 111.5s63.166 55 104.499 72
s88.333 25.5 141 25.5c34 0 62.333 -3.16699 85 -9.5s41.334 -12.833 56.001 -19.5l-6 -18c-14 6 -32 12.333 -54 19s-49 10 -81 10c-49.333 0 -93.166 -8 -131.499 -24s-70.666 -38.667 -96.999 -68s-46.5 -64.666 -60.5 -105.999s-21 -87 -21 -137
c0 -52.667 7 -99 21 -139s33.833 -73.667 59.5 -101s56.5 -48 92.5 -62s75.667 -21 119 -21c33.333 0 63.333 3 90 9s48 11.667 64 17z" />
    <glyph glyph-name="D" unicode="D" horiz-adv-x="621" 
d="M85 664c23.333 4 48.6689 7.50195 76.002 10.502s54.666 4.5 81.999 4.5c50 0 95.667 -6.5 137 -19.5s77 -32.833 107 -59.5s53.167 -60.334 69.5 -101.001s24.5 -89 24.5 -145c0 -118.667 -31.833 -208.334 -95.5 -269.001s-152.834 -91 -267.501 -91
c-23.333 0 -46.333 0.5 -69 1.5s-44 3.16699 -64 6.5v662zM106.003 17.002c16 -2 34.1689 -3.33496 54.502 -4.00195s40.166 -1 59.499 -1c108 0 191.333 28.667 250 86s88 142.333 88 255c0 52 -7.5 97.333 -22.5 136s-36.333 70.834 -64 96.501s-60.834 44.667 -99.501 57
s-81.667 18.5 -129 18.5c-24.667 0 -48.667 -1.16699 -72 -3.5s-45 -5.16602 -65 -8.49902v-632z" />
    <glyph glyph-name="E" unicode="E" horiz-adv-x="429" 
d="M363 346h-257v-327h287v-19h-308v674h293v-19h-272v-290h257v-19z" />
    <glyph glyph-name="F" unicode="F" horiz-adv-x="418" 
d="M373 674v-19h-267v-302h246v-19h-246v-334h-21v674h288z" />
    <glyph glyph-name="G" unicode="G" horiz-adv-x="578" 
d="M517 30c-15.333 -7.33301 -37.999 -15.333 -67.999 -24s-64.333 -13 -103 -13c-48 0 -90.833 8 -128.5 24s-69.834 38.667 -96.501 68s-47 65 -61 107s-21 89 -21 141c0 49.333 7.5 95.333 22.5 138s36.667 79.5 65 110.5s62.666 55.333 102.999 73s85.5 26.5 135.5 26.5
c30 0 56.5 -3.33301 79.5 -10s39.833 -13 50.5 -19l-6 -18c-11.333 6.66699 -28 13.167 -50 19.5s-46.667 9.5 -74 9.5c-46.667 0 -88.667 -8.33301 -126 -25s-69.166 -39.667 -95.499 -69s-46.5 -64 -60.5 -104s-21 -83.667 -21 -131c0 -50 6.5 -94.833 19.5 -134.5
s31.833 -73.5 56.5 -101.5s54.667 -49.5 90 -64.5s75 -22.5 119 -22.5c32.667 0 62.167 3.66699 88.5 11s46.833 14.333 61.5 21v256h-142v17h162v-286z" />
    <glyph glyph-name="H" unicode="H" horiz-adv-x="597" 
d="M106 674v-309h385v309h21v-674h-21v346h-385v-346h-21v674h21z" />
    <glyph glyph-name="I" unicode="I" horiz-adv-x="197" 
d="M109 674v-674h-21v674h21z" />
    <glyph glyph-name="J" unicode="J" horiz-adv-x="311" 
d="M235 674l-0.00292969 -457.002c0 -44 -3.66699 -80.667 -11 -110s-17.166 -52.666 -29.499 -69.999s-27 -29.666 -44 -36.999s-35.167 -11 -54.5 -11c-16 0 -31.667 1.5 -47 4.5s-28 6.5 -38 10.5l5 17c10 -3.33301 21.833 -6.5 35.5 -9.5s28.167 -4.5 43.5 -4.5
c16.667 0 32.334 3.33301 47.001 10s27.334 18.167 38.001 34.5s19 38 25 65s9 60.833 9 101.5v456h21z" />
    <glyph glyph-name="K" unicode="K" horiz-adv-x="485" 
d="M106 674v-350h2l34 38.5l34 38.5l247 273h28l-259 -285l282 -389h-27l-270 374l-71 -77v-297h-21v674h21z" />
    <glyph glyph-name="L" unicode="L" horiz-adv-x="405" 
d="M106 674v-655h280v-19h-301v674h21z" />
    <glyph glyph-name="M" unicode="M" horiz-adv-x="746" 
d="M148 674l119 -341.001c17.333 -49.333 33.833 -99.166 49.5 -149.499l49.5 -155.5h2l54.5 150.5l56.5 153.5l125 342h34l43 -674h-22l-22 327c-3.33301 54 -6.33301 108.333 -9 163s-5.66699 108.667 -9 162h-2l-56.5 -155l-56.5 -157l-125 -337h-25l-111 330l-54.5 159
l-55.5 160h-2c-4 -58.667 -7.66699 -117.5 -11 -176.5s-7 -119.167 -11 -180.5l-21 -295h-22l47 674h35z" />
    <glyph glyph-name="N" unicode="N" horiz-adv-x="607" 
d="M110 674l221 -360l85.5 -140l83.5 -138h2c-0.666992 53.333 -1 106 -1 158v159v321h21v-674h-23l-219 355l-87 143l-86 143h-2c0.666992 -53.333 1 -106.333 1 -159v-161v-321h-21v674h25z" />
    <glyph glyph-name="O" unicode="O" horiz-adv-x="619" 
d="M580 344c0 -58 -7.66797 -109.167 -23.001 -153.5s-36 -81.333 -62 -111s-56.167 -52.167 -90.5 -67.5s-70.833 -23 -109.5 -23c-39.333 0 -75.833 8.16699 -109.5 24.5s-62.834 39.5 -87.501 69.5s-44 66 -58 108s-21 88.667 -21 140c0 53.333 7.33301 101.833 22 145.5
s34.834 81 60.501 112s55.834 54.833 90.501 71.5s72 25 112 25c41.333 0 79 -8.33301 113 -25s63 -40 87 -70s42.667 -66 56 -108s20 -88 20 -138zM556.999 343c0 46.667 -6.00098 89.667 -18.001 129s-29.167 73.5 -51.5 102.5s-49 51.667 -80 68s-65.5 24.5 -103.5 24.5
s-73 -8.16699 -105 -24.5s-59.667 -39.333 -83 -69s-41.5 -65 -54.5 -106s-19.5 -86.5 -19.5 -136.5c0 -47.333 6.33301 -90.833 19 -130.5s30.167 -73.834 52.5 -102.501s49 -51 80 -67s65.167 -24 102.5 -24c36.667 0 70.834 7.5 102.501 22.5s59.167 36.833 82.5 65.5
s41.833 63.834 55.5 105.501s20.5 89.167 20.5 142.5z" />
    <glyph glyph-name="P" unicode="P" horiz-adv-x="474" 
d="M85 665c14 2.66699 31.6689 5.6709 53.002 9.00391s47.333 5 78 5c32 0 61 -3.33301 87 -10s48.333 -17.334 67 -32.001s33.167 -33.834 43.5 -57.501s15.5 -52.834 15.5 -87.501c0 -30 -5.16699 -57.5 -15.5 -82.5s-25.333 -46.333 -45 -64
s-43.834 -31.334 -72.501 -41.001s-61 -14.5 -97 -14.5c-16 0 -31.833 0.5 -47.5 1.5s-30.834 2.83301 -45.501 5.5v-297h-21v665zM106.002 315.004c14.667 -2.66699 29.834 -4.50098 45.501 -5.50098s31.167 -1.5 46.5 -1.5c68.667 0 120.834 16.833 156.501 50.5
s53.5 77.834 53.5 132.501c0 31.333 -4.66699 57.833 -14 79.5s-22.333 39.167 -39 52.5s-36.834 23 -60.501 29s-49.834 9 -78.501 9c-26 0 -48 -1.33301 -66 -4s-32.667 -5 -44 -7v-335z" />
    <glyph glyph-name="Q" unicode="Q" horiz-adv-x="639" 
d="M352 -9l48.4971 -14.5c19 -5.66699 39 -11.167 60 -16.5l62.5 -15.5l55 -13.5l-7 -18c-42 10 -82 20.667 -120 32l-108 32c-9.33301 2.66699 -17.5 4.83398 -24.5 6.50098s-14 3.16699 -21 4.5l-21.5 4c-7.33301 1.33301 -15.333 3.33301 -24 6
c-31.333 8 -60 21.667 -86 41s-48.5 43.166 -67.5 71.499s-33.667 61.166 -44 98.499s-15.5 78 -15.5 122c0 53.333 7.33301 101.833 22 145.5s34.834 81 60.501 112s55.834 54.833 90.501 71.5s72 25 112 25c41.333 0 79 -8.33301 113 -25s63 -40 87 -70
s42.667 -66 56 -108s20 -88 20 -138c0 -53.333 -6.5 -100.666 -19.5 -141.999s-30.667 -76.833 -53 -106.5s-48.666 -53 -78.999 -70s-62.5 -27.833 -96.5 -32.5v-2zM576.997 343c0 46.667 -6.00098 89.667 -18.001 129s-29.167 73.5 -51.5 102.5s-49 51.667 -80 68
s-65.5 24.5 -103.5 24.5s-73 -8.16699 -105 -24.5s-59.667 -39.333 -83 -69s-41.5 -65 -54.5 -106s-19.5 -86.5 -19.5 -136.5c0 -47.333 6.33301 -90.833 19 -130.5s30.167 -73.834 52.5 -102.501s49 -51 80 -67s65.167 -24 102.5 -24c36.667 0 70.834 7.5 102.501 22.5
s59.167 36.833 82.5 65.5s41.833 63.834 55.5 105.501s20.5 89.167 20.5 142.5z" />
    <glyph glyph-name="R" unicode="R" horiz-adv-x="478" 
d="M427 0c-4.66699 9.33301 -10.332 28.667 -16.999 58s-15.667 66 -27 110c-8 30.667 -16.833 56 -26.5 76s-21.334 35.667 -35.001 47s-30 19.166 -49 23.499s-41.833 6.5 -68.5 6.5h-98v-321h-21v664c40 10 83.667 15 131 15c68.667 0 120.667 -14.667 156 -44
s53 -71.666 53 -126.999c0 -42 -12.333 -78.5 -37 -109.5s-60 -53.167 -106 -66.5v-2c34 -7.33301 60 -23.833 78 -49.5s32.667 -61.5 44 -107.5l28 -115c7.33301 -30 13.333 -49.333 18 -58h-23zM404.002 507.001c0 51.333 -16.165 89.833 -48.498 115.5
s-78.5 38.5 -138.5 38.5c-20.667 0 -40.334 -0.833008 -59.001 -2.5s-36 -4.5 -52 -8.5v-312h94c66 0 116.167 15.667 150.5 47s52.166 72 53.499 122z" />
    <glyph glyph-name="S" unicode="S" horiz-adv-x="427" 
d="M342 636c-9.33301 7.33301 -23.333 14.1631 -42 20.4961s-39.667 9.5 -63 9.5c-24 0 -45.833 -3.66699 -65.5 -11s-36.5 -17.666 -50.5 -30.999s-24.833 -29 -32.5 -47s-11.5 -38 -11.5 -60c0 -21.333 4 -40 12 -56s18.833 -30.167 32.5 -42.5s29.334 -23.333 47.001 -33
s36.167 -19.167 55.5 -28.5c20 -9.33301 39.167 -19.666 57.5 -30.999s34.666 -24.166 48.999 -38.499s25.666 -30.666 33.999 -48.999s12.5 -39.5 12.5 -63.5c0 -25.333 -4.16699 -49.166 -12.5 -71.499s-20.833 -42 -37.5 -59s-37.5 -30.333 -62.5 -40
s-53.833 -14.5 -86.5 -14.5c-25.333 0 -50.333 3.83301 -75 11.5s-44.667 17.167 -60 28.5l7 20c13.333 -12 32.333 -21.833 57 -29.5s48.667 -11.5 72 -11.5c28.667 0 54 4.33301 76 13s40.5 20.5 55.5 35.5s26.167 32.5 33.5 52.5s11 41.333 11 64c0 22 -4 41.333 -12 58
s-18.667 31.667 -32 45s-28.833 25 -46.5 35s-36.167 19.667 -55.5 29c-20 9.33301 -39.167 19.166 -57.5 29.499s-34.5 22.166 -48.5 35.499s-25.333 28.833 -34 46.5s-13 38.5 -13 62.5c0 25.333 4.33301 48.333 13 69s21 38.5 37 53.5s35 26.5 57 34.5s46.667 12 74 12
c25.333 0 47.833 -3.16699 67.5 -9.5s34.834 -13.166 45.501 -20.499z" />
    <glyph glyph-name="T" unicode="T" horiz-adv-x="421" 
d="M425 655h-205v-655h-21v655h-203v19h429v-19z" />
    <glyph glyph-name="U" unicode="U" horiz-adv-x="593" 
d="M106 674v-403.002c0 -47.333 4.83301 -87.666 14.5 -120.999s22.834 -60.5 39.501 -81.5s36.167 -36.333 58.5 -46s46.166 -14.5 71.499 -14.5c27.333 0 53 5 77 15s44.833 25.833 62.5 47.5s31.667 49.334 42 83.001s15.5 74.167 15.5 121.5v399h21v-399
c0 -50.667 -5.66699 -94 -17 -130s-27 -65.5 -47 -88.5s-43.167 -40 -69.5 -51s-54.5 -16.5 -84.5 -16.5c-28 0 -54.5 5.16699 -79.5 15.5s-46.667 26.666 -65 48.999s-33 51.333 -44 87s-16.5 78.834 -16.5 129.501v404h21z" />
    <glyph glyph-name="V" unicode="V" horiz-adv-x="498" 
d="M494 674l-240 -674h-24l-218 674h24l105 -330l51 -159l50 -157h2l52.5 153l54.5 154l119 339h24z" />
    <glyph glyph-name="W" unicode="W" horiz-adv-x="773" 
d="M764 674l-190 -674h-21l-91 363l-35 139.5l-34 137.5h-2l-39 -138l-40 -139l-105 -363h-21l-170 674h23l86 -350l36.5 -145.5l35.5 -144.5h2l37.5 137l39.5 139l107 364h21l92 -364l33.5 -138l33.5 -138h2l40 144.5l40 146.5l96 349h23z" />
    <glyph glyph-name="X" unicode="X" horiz-adv-x="509" 
d="M69 674l97.001 -164l43 -72l44 -75h2c15.333 23.333 30.166 47.5 44.499 72.5l44.5 74.5l100 164h26l-201 -327l205 -347h-26l-110 186l-42.5 72l-40.5 70h-2l-40.5 -70l-42.5 -72l-109 -186h-26l205 346l-197 328h26z" />
    <glyph glyph-name="Y" unicode="Y" horiz-adv-x="468" 
d="M459 674l-214 -369v-305h-21v305l-210 369h25l107 -189l44.5 -81l43.5 -80h2c13.333 27.333 27.833 54 43.5 80l46.5 81l108 189h25z" />
    <glyph glyph-name="Z" unicode="Z" horiz-adv-x="493" 
d="M453 674v-13l-386 -641v-1h391v-19h-421v13l386 641v1h-354v19h384z" />
    <glyph glyph-name="bracketleft" unicode="[" horiz-adv-x="229" 
d="M213 -112h-130v797h130v-16h-111v-765h111v-16z" />
    <glyph glyph-name="backslash" unicode="\" horiz-adv-x="306" 
d="M24 685l279 -725h-21l-279 725h21z" />
    <glyph glyph-name="bracketright" unicode="]" horiz-adv-x="229" 
d="M16 -96h111v765h-111v16h130v-797h-130v16z" />
    <glyph glyph-name="asciicircum" unicode="^" horiz-adv-x="555" 
d="M494 191h-21l-194 439h-2l-195 -439h-21l206 459h22z" />
    <glyph glyph-name="underscore" unicode="_" horiz-adv-x="500" 
d="M500 -75v-20h-500v20h500z" />
    <glyph glyph-name="grave" unicode="`" 
d="M89 686l93 -136h-16l-113 136h36z" />
    <glyph glyph-name="a" unicode="a" horiz-adv-x="433" 
d="M340 0c-1.33301 11.333 -2.33398 24.333 -3.00098 39s-1 29.667 -1 45h-3c-15.333 -25.333 -35.666 -47.5 -60.999 -66.5s-57 -28.5 -95 -28.5c-21.333 0 -40.5 3.33301 -57.5 10s-31.5 15.834 -43.5 27.501s-21.333 25.167 -28 40.5s-10 32 -10 50
c0 26.667 6.66699 50.334 20 71.001s32.833 38.167 58.5 52.5s56.667 25.333 93 33s77.5 11.5 123.5 11.5v13c0 20.667 -1.66699 41.667 -5 63s-9.83301 40.5 -19.5 57.5s-22.834 30.833 -39.501 41.5s-38.334 16 -65.001 16c-19.333 0 -39.833 -3.16699 -61.5 -9.5
s-40.167 -15.5 -55.5 -27.5l-7 17c15.333 11.333 34.833 20.333 58.5 27s45.834 10 66.501 10c30.667 0 55.5 -5.66699 74.5 -17s34 -26.333 45 -45s18.5 -39.834 22.5 -63.501s6 -47.5 6 -71.5v-127c0 -13.333 0.166992 -28.833 0.5 -46.5s0.833008 -34.834 1.5 -51.501
s1.33398 -31.5 2.00098 -44.5s1.66699 -21.833 3 -26.5h-20zM332.999 268c-41.333 0 -78.832 -3.16699 -112.499 -9.5s-62.334 -15.833 -86.001 -28.5s-42 -28.167 -55 -46.5s-19.5 -39.833 -19.5 -64.5c0 -18 3.16699 -34 9.5 -48s14.833 -25.833 25.5 -35.5
s23.334 -17 38.001 -22s30 -7.5 46 -7.5c28 0 53.167 6.83301 75.5 20.5s42.166 32.834 59.499 57.501c8.66699 12 14 25.167 16 39.5s3 32.166 3 53.499v91z" />
    <glyph glyph-name="b" unicode="b" horiz-adv-x="511" 
d="M468 248c0 -41.333 -5 -78.167 -15 -110.5s-24.167 -59.5 -42.5 -81.5s-40.166 -38.667 -65.499 -50s-53 -17 -83 -17c-14.667 0 -29.834 1.83301 -45.501 5.5s-30.667 9.5 -45 17.5s-27.5 18.167 -39.5 30.5s-21.667 27.166 -29 44.499h-2l-4 -87h-19
c1.33301 18 2.33301 38.833 3 62.5s1 49.167 1 76.5v570h21v-324h2c7.33301 14.667 16.666 28.5 27.999 41.5s24.166 24.5 38.499 34.5s29.833 17.833 46.5 23.5s34.334 8.5 53.001 8.5c28.667 0 55 -5.83301 79 -17.5s44.833 -28.167 62.5 -49.5
s31.334 -47.166 41.001 -77.499s14.5 -63.833 14.5 -100.5zM446 247.999c0 34 -4.16797 65 -12.501 93s-20.333 52 -36 72s-34.5 35.5 -56.5 46.5s-46.333 16.5 -73 16.5c-24.667 0 -47.167 -5.33301 -67.5 -16s-37.666 -23.834 -51.999 -39.501s-25.5 -32.667 -33.5 -51
s-12 -35.166 -12 -50.499v-164c0 -21.333 4.16699 -41 12.5 -59s19.666 -33.667 33.999 -47s30.833 -23.833 49.5 -31.5s38.334 -11.5 59.001 -11.5c56.667 0 102.167 21 136.5 63s51.5 101.667 51.5 179z" />
    <glyph glyph-name="c" unicode="c" horiz-adv-x="423" 
d="M383 451c-9.33301 5.33301 -22.333 10.833 -39 16.5s-37.667 8.5 -63 8.5c-32.667 0 -62.167 -5.83301 -88.5 -17.5s-49 -28.167 -68 -49.5s-33.667 -46.666 -44 -75.999s-15.5 -61.333 -15.5 -96c0 -35.333 5 -67.166 15 -95.499s24 -52.5 42 -72.5
s39.667 -35.333 65 -46s53.333 -16 84 -16c25.333 0 48 3.16699 68 9.5s35.333 12.5 46 18.5l5 -17c-10.667 -5.33301 -26.167 -11.333 -46.5 -18s-45.166 -10 -74.499 -10c-34 0 -64.833 5.66699 -92.5 17s-51.5 27.666 -71.5 48.999s-35.333 47.166 -46 77.499
s-16 64.5 -16 102.5s5.66699 72.833 17 104.5s27.5 58.667 48.5 81s46.167 39.833 75.5 52.5s61.666 19 96.999 19c28 0 50.667 -2.66699 68 -8s31.333 -11 42 -17z" />
    <glyph glyph-name="d" unicode="d" horiz-adv-x="515" 
d="M418 0l-4.00098 94h-2c-8.66699 -19.333 -19.334 -35.666 -32.001 -48.999s-26.5 -24.166 -41.5 -32.499s-30.5 -14.333 -46.5 -18s-31.333 -5.5 -46 -5.5c-30 0 -57.333 5.66699 -82 17s-46 28 -64 50s-32 49.167 -42 81.5s-15 69.166 -15 110.499
c0 36.667 5.16699 70.167 15.5 100.5s24.5 56.166 42.5 77.499s39.333 37.833 64 49.5s51.334 17.5 80.001 17.5c38 0 71.333 -8.66699 100 -26s50.334 -38 65.001 -62h2v304h21v-570c0 -27.333 0.333008 -52.833 1 -76.5s1.66699 -44.5 3 -62.5h-19zM411.999 342
c0 13.333 -3.83398 27.833 -11.501 43.5s-18.667 30.167 -33 43.5s-31.666 24.5 -51.999 33.5s-42.833 13.5 -67.5 13.5c-27.333 0 -52.166 -5.5 -74.499 -16.5s-41.5 -26.5 -57.5 -46.5s-28.5 -44 -37.5 -72s-13.5 -59 -13.5 -93c0 -77.333 16.833 -137 50.5 -179
s78.5 -63 134.5 -63c21.333 0 41.666 4.16699 60.999 12.5s36.5 19.666 51.5 33.999s27 31.333 36 51s13.5 40.834 13.5 63.501v175z" />
    <glyph glyph-name="e" unicode="e" horiz-adv-x="465" 
d="M397 20c-13.333 -6 -31.333 -12.4971 -54 -19.4971s-52 -10.5 -88 -10.5c-67.333 0 -119.5 22.333 -156.5 67s-55.5 109 -55.5 193c0 32 4.66699 62.667 14 92s22.833 55.166 40.5 77.499s39 40.166 64 53.499s53.167 20 84.5 20c36 0 65.5 -6.83301 88.5 -20.5
s41 -30.667 54 -51s22 -42.166 27 -65.499s7.5 -44.333 7.5 -63v-22c0 -6.66699 -0.666992 -13.334 -2 -20.001h-356c0 -36 3.83301 -68.833 11.5 -98.5s19.167 -55.334 34.5 -77.001s35 -38.5 59 -50.5s52.667 -18 86 -18s61 3.16699 83 9.5s40 12.833 54 19.5z
M402 268.003c0.666992 4 0.998047 8.66602 0.998047 13.999v17c0 16.667 -2.33301 35.334 -7 56.001s-13 40 -25 58s-28.167 33 -48.5 45s-46.166 18 -77.499 18c-26 0 -49.667 -5.33301 -71 -16s-39.666 -25.334 -54.999 -44.001s-27.5 -40.667 -36.5 -66
s-14.5 -52.666 -16.5 -81.999h336z" />
    <glyph glyph-name="f" unicode="f" horiz-adv-x="222" 
d="M80 0v467h-62v16h62v24c0 68.667 9.66699 121.334 29 158.001s51 55 95 55c22 0 40.667 -4 56 -12l-5 -18c-7.33301 3.33301 -15 6.16602 -23 8.49902s-17.333 3.5 -28 3.5c-37.333 0 -63.833 -16.5 -79.5 -49.5s-23.5 -81.5 -23.5 -145.5v-24h112v-16h-112v-467h-21z
" />
    <glyph glyph-name="g" unicode="g" horiz-adv-x="514" 
d="M436 483c-1.33301 -18 -2.33105 -38.832 -2.99805 -62.499s-1 -49.167 -1 -76.5v-274c0 -42 -3.83301 -80.167 -11.5 -114.5s-19.834 -63.666 -36.501 -87.999s-38.334 -43 -65.001 -56s-59 -19.5 -97 -19.5c-24.667 0 -49.5 3.33301 -74.5 10s-45.5 16.667 -61.5 30
l10 15c14.667 -12 33.667 -21.333 57 -28s46.333 -10 69 -10c33.333 0 61.833 5.83301 85.5 17.5s43.167 28.5 58.5 50.5s26.666 48.833 33.999 80.5s11 67.167 11 106.5v26h-2c-19.333 -32 -44.333 -54.833 -75 -68.5s-62 -20.5 -94 -20.5c-27.333 0 -53 5.5 -77 16.5
s-44.833 27 -62.5 48s-31.667 47 -42 78s-15.5 66.5 -15.5 106.5c0 36.667 5.16699 70 15.5 100s24.5 55.667 42.5 77s39.333 37.666 64 48.999s51.334 17 80.001 17c18 0 35.5 -2.83301 52.5 -8.5s32.833 -13.334 47.5 -23.001s27.667 -21 39 -34s20.333 -26.833 27 -41.5
h2l4 97h19zM411.002 322.001c0 15.333 -4.16797 32.002 -12.501 50.002s-19.833 34.667 -34.5 50s-32 28.166 -52 38.499s-41.333 15.5 -64 15.5c-27.333 0 -52.166 -5.33301 -74.499 -16s-41.5 -26 -57.5 -46s-28.5 -43.833 -37.5 -71.5s-13.5 -58.5 -13.5 -92.5
c0 -37.333 4.66699 -70.333 14 -99s22 -52.834 38 -72.501s34.833 -34.667 56.5 -45s45.167 -15.5 70.5 -15.5c21.333 0 42 3.5 62 10.5s37.833 16.833 53.5 29.5s28.167 28.167 37.5 46.5s14 38.5 14 60.5v157z" />
    <glyph glyph-name="h" unicode="h" horiz-adv-x="500" 
d="M103 382l2.00098 0.000976562c16.667 34.667 37.667 61.834 63 81.501s57 29.5 95 29.5c28 0 52.167 -5.16699 72.5 -15.5s36.833 -24.833 49.5 -43.5s22 -41.334 28 -68.001s9 -56.334 9 -89.001v-277h-21v276c0 38 -3.66699 69.667 -11 95s-17.5 45.833 -30.5 61.5
s-28 26.834 -45 33.501s-34.833 10 -53.5 10c-20 0 -38.333 -3.83301 -55 -11.5s-31.334 -17.334 -44.001 -29.001s-23.167 -24.667 -31.5 -39s-14.5 -28.5 -18.5 -42.5s-6.5 -26.5 -7.5 -37.5s-1.5 -27.5 -1.5 -49.5v-267h-21v709h21v-327z" />
    <glyph glyph-name="i" unicode="i" horiz-adv-x="185" 
d="M114 622c0 -6 -2 -11 -6 -15s-9 -6 -15 -6s-11.167 2 -15.5 6s-6.5 9 -6.5 15s2.16699 11 6.5 15s9.5 6 15.5 6s11 -2 15 -6s6 -9 6 -15zM103 0h-21v483h21v-483z" />
    <glyph glyph-name="j" unicode="j" horiz-adv-x="194" 
d="M123 622c0 -6 -2 -11 -6 -15s-9 -6 -15 -6s-11.167 2 -15.5 6s-6.5 9 -6.5 15s2.16699 11 6.5 15s9.5 6 15.5 6s11 -2 15 -6s6 -9 6 -15zM112 39c0 -28 -0.831055 -52.6709 -2.49805 -74.0039s-4.16699 -39.666 -7.5 -54.999s-7.5 -28.333 -12.5 -39
s-10.833 -20 -17.5 -28c-11.333 -13.333 -26.166 -24.833 -44.499 -34.5s-37.5 -15.167 -57.5 -16.5l-3 18c19.333 2 36.666 7 51.999 15s27.666 18 36.999 30c5.33301 6.66699 10.166 14.834 14.499 24.501s8 21.834 11 36.501s5.33301 32.334 7 53.001s2.5 45.667 2.5 75
v439h21v-444z" />
    <glyph glyph-name="k" unicode="k" horiz-adv-x="402" 
d="M103 208h2l47.5 53l46.5 53l150 169h28l-181 -201l212 -282h-27l-199 269l-79 -86v-183h-21v709h21v-501z" />
    <glyph glyph-name="l" unicode="l" horiz-adv-x="185" 
d="M103 0h-21v709h21v-709z" />
    <glyph glyph-name="m" unicode="m" horiz-adv-x="777" 
d="M699 0l-21.001 0.00390625v313c0 23.333 -3 45 -9 65s-14.5 37.167 -25.5 51.5s-24.833 25.666 -41.5 33.999s-35.334 12.5 -56.001 12.5c-18.667 0 -35.667 -3.66699 -51 -11s-28.666 -17 -39.999 -29s-21 -25.167 -29 -39.5s-14 -28.5 -18 -42.5
c-3.33301 -10 -5.33301 -21.5 -6 -34.5s-1 -30.5 -1 -52.5v-267h-21v323c0 17.333 -3 35.166 -9 53.499s-14.5 34.833 -25.5 49.5s-24.333 26.667 -40 36s-33.5 14 -53.5 14s-37.667 -3.66699 -53 -11s-28.833 -17 -40.5 -29s-21.334 -25.167 -29.001 -39.5
s-13.5 -28.5 -17.5 -42.5c-2 -6.66699 -3.66699 -12.834 -5 -18.501s-2.16602 -11.834 -2.49902 -18.501s-0.666016 -14 -0.999023 -22s-0.5 -17.333 -0.5 -28v-267h-21v312c0 13.333 -0.166992 27.833 -0.5 43.5l-1 47c-0.333008 15.667 -0.666016 30.5 -0.999023 44.5
s-0.833008 26 -1.5 36h19l4 -103h2c16.667 34.667 36.5 62.167 59.5 82.5s53.5 30.5 91.5 30.5c34 0 63.5 -11.167 88.5 -33.5s42.167 -51.5 51.5 -87.5h2c15.333 39.333 35.666 69.333 60.999 90s57 31 95 31c20.667 0 40 -4 58 -12s33.5 -19.167 46.5 -33.5
s23.333 -32 31 -53s11.5 -44.5 11.5 -70.5v-324z" />
    <glyph glyph-name="n" unicode="n" horiz-adv-x="500" 
d="M422 0l-21 0.00195312v276c0 38 -3.66699 69.667 -11 95s-17.5 45.833 -30.5 61.5s-28 26.834 -45 33.501s-34.833 10 -53.5 10c-20 0 -38.333 -3.83301 -55 -11.5s-31.334 -17.334 -44.001 -29.001s-23.167 -24.667 -31.5 -39s-14.5 -28.5 -18.5 -42.5
s-6.5 -26.5 -7.5 -37.5s-1.5 -27.5 -1.5 -49.5v-267h-21v312c0 13.333 -0.166992 27.833 -0.5 43.5l-1 47c-0.333008 15.667 -0.666016 30.5 -0.999023 44.5s-0.833008 26 -1.5 36h19l4 -103h2c16.667 34.667 38 62.167 64 82.5s58 30.5 96 30.5
c28 0 52.167 -5.16699 72.5 -15.5s36.833 -24.833 49.5 -43.5s22 -41.334 28 -68.001s9 -56.334 9 -89.001v-277z" />
    <glyph glyph-name="o" unicode="o" horiz-adv-x="507" 
d="M464 246c0 -45.333 -6.33496 -84.1699 -19.002 -116.503s-29.167 -59 -49.5 -80s-43.333 -36.333 -69 -46s-51.167 -14.5 -76.5 -14.5c-29.333 0 -56.666 5.66699 -81.999 17s-47.166 27.833 -65.499 49.5s-32.833 47.834 -43.5 78.501s-16 65.334 -16 104.001
c0 40.667 5.66699 76.834 17 108.501s26.666 58.334 45.999 80.001s41.833 38.167 67.5 49.5s53.167 17 82.5 17c30.667 0 58.834 -6 84.501 -18s47.667 -28.667 66 -50s32.5 -47.333 42.5 -78s15 -64.334 15 -101.001zM441.998 245.996c0 33.333 -4.33496 64 -13.002 92
s-21.167 52.333 -37.5 73s-36 36.667 -59 48s-48.5 17 -76.5 17c-27.333 0 -52.666 -5.5 -75.999 -16.5s-43.5 -26.667 -60.5 -47s-30.333 -45.333 -40 -75s-14.5 -62.834 -14.5 -99.501c0 -35.333 4.83301 -67.333 14.5 -96s22.834 -53 39.501 -73s36.5 -35.5 59.5 -46.5
s48.167 -16.5 75.5 -16.5c22.667 0 45.167 4.83301 67.5 14.5s42.5 24.334 60.5 44.001s32.5 44.5 43.5 74.5s16.5 65.667 16.5 107z" />
    <glyph glyph-name="p" unicode="p" horiz-adv-x="511" 
d="M468 248c0 -41.333 -5.00098 -78.168 -15.001 -110.501s-24.167 -59.5 -42.5 -81.5s-40.166 -38.667 -65.499 -50s-53 -17 -83 -17c-14.667 0 -29.667 1.5 -45 4.5s-30 8 -44 15s-26.833 16.167 -38.5 27.5s-21.5 25 -29.5 41h-2v-275h-21v542
c0 27.333 -0.333008 52.833 -1 76.5s-1.66699 44.5 -3 62.5h19l4 -100h2c7.33301 14.667 16.666 28.667 27.999 42s24.333 25 39 35s30.5 18 47.5 24s34.833 9 53.5 9c28.667 0 55 -5.83301 79 -17.5s44.833 -28.167 62.5 -49.5s31.334 -47.166 41.001 -77.499
s14.5 -63.833 14.5 -100.5zM445.999 247.998c0 34 -4.16797 65 -12.501 93s-20.333 52 -36 72s-34.5 35.5 -56.5 46.5s-46.333 16.5 -73 16.5c-24.667 0 -47.167 -5.33301 -67.5 -16s-37.666 -23.834 -51.999 -39.501s-25.5 -32.667 -33.5 -51s-12 -35.166 -12 -50.499v-167
c0 -22 4.16699 -42 12.5 -60s19.666 -33.333 33.999 -46s30.833 -22.5 49.5 -29.5s38.334 -10.5 59.001 -10.5c56.667 0 102.167 21 136.5 63s51.5 101.667 51.5 179z" />
    <glyph glyph-name="q" unicode="q" horiz-adv-x="514" 
d="M43 248c0 36.667 5.16602 70.1699 15.499 100.503s24.5 56.166 42.5 77.499s39.333 37.833 64 49.5s51.334 17.5 80.001 17.5c18 0 35.5 -2.83301 52.5 -8.5s32.833 -13.334 47.5 -23.001s27.667 -21 39 -34s20.333 -26.833 27 -41.5h2l4 97h19
c-1.33301 -18 -2.33301 -38.833 -3 -62.5s-1 -49.167 -1 -76.5v-542h-21v278h-2c-19.333 -32 -44.333 -55.167 -75 -69.5s-62 -21.5 -94 -21.5c-27.333 0 -53 5.66699 -77 17s-44.833 28 -62.5 50s-31.667 49.167 -42 81.5s-15.5 69.166 -15.5 110.499zM64.999 248.003
c0 -38.667 4.66602 -72.998 13.999 -102.998s22 -55.333 38 -76s34.833 -36.334 56.5 -47.001s45.167 -16 70.5 -16c21.333 0 42 3.66699 62 11s37.833 17.5 53.5 30.5s28.167 28.667 37.5 47s14 38.5 14 60.5v167c0 15.333 -4.16699 32 -12.5 50s-19.833 34.667 -34.5 50
s-32 28.166 -52 38.499s-41.333 15.5 -64 15.5c-27.333 0 -52.166 -5.5 -74.499 -16.5s-41.5 -26.5 -57.5 -46.5s-28.5 -44 -37.5 -72s-13.5 -59 -13.5 -93z" />
    <glyph glyph-name="r" unicode="r" horiz-adv-x="268" 
d="M97 483l4 -112.999h2c6 16.667 13.5 32.5 22.5 47.5s19.333 28.167 31 39.5s24 20.166 37 26.499s26.167 9.5 39.5 9.5c4 0 7.5 -0.166992 10.5 -0.5s6.16699 -0.833008 9.5 -1.5v-20c-3.33301 0.666992 -6.83301 1.16699 -10.5 1.5s-7.16699 0.5 -10.5 0.5
c-22 0 -44 -10 -66 -30s-39.333 -49.667 -52 -89c-4.66699 -14 -7.66699 -28 -9 -42s-2 -30.667 -2 -50v-262h-21v345c0 24 -0.5 47.5 -1.5 70.5s-1.83301 45.5 -2.5 67.5h19z" />
    <glyph glyph-name="s" unicode="s" horiz-adv-x="335" 
d="M292 124c0 -40 -13 -72.335 -39 -97.002s-61.667 -37 -107 -37c-19.333 0 -37.833 2.5 -55.5 7.5s-33.167 12.5 -46.5 22.5l8 16c11.333 -9.33301 25.666 -16.5 42.999 -21.5s34.333 -7.5 51 -7.5c38.667 0 69.167 10.833 91.5 32.5s33.5 49.5 33.5 83.5
c0 16 -2 29.667 -6 41s-10.167 21.666 -18.5 30.999s-18.833 18 -31.5 26s-27.667 16 -45 24c-35.333 16 -63 33.667 -83 53s-30 45 -30 77c0 38 11.667 67.167 35 87.5s55 30.5 95 30.5c18.667 0 35.334 -2.16699 50.001 -6.5s27 -10.166 37 -17.499l-7 -16
c-8.66699 6.66699 -19.667 12.167 -33 16.5s-29.666 6.5 -48.999 6.5c-14.667 0 -28.5 -1.83301 -41.5 -5.5s-24.333 -9.5 -34 -17.5s-17.334 -18.333 -23.001 -31s-8.5 -27.667 -8.5 -45c0 -28.667 9 -51.167 27 -67.5s43 -32.166 75 -47.499
c18.667 -9.33301 35 -18.166 49 -26.499s25.667 -17.833 35 -28.5s16.333 -22.667 21 -36s7 -29 7 -47z" />
    <glyph glyph-name="t" unicode="t" horiz-adv-x="260" 
d="M112 587l0.00195312 -103.999h119v-16h-119v-310c0 -24 1 -45.167 3 -63.5s5.66699 -33.833 11 -46.5s12.5 -22.334 21.5 -29.001s20.833 -10 35.5 -10c9.33301 0 17.166 1.16699 23.499 3.5s12.166 5.16602 17.499 8.49902l2 -18
c-5.33301 -3.33301 -12 -6.16602 -20 -8.49902s-16.667 -3.5 -26 -3.5c-35.333 0 -59 14.667 -71 44s-18 70.333 -18 123v310h-70v16h70v97z" />
    <glyph glyph-name="u" unicode="u" horiz-adv-x="498" 
d="M78 483l21.001 -0.00195312v-276c0 -38 3.66699 -69.667 11 -95s17.333 -45.833 30 -61.5s27.334 -26.834 44.001 -33.501s34.667 -10 54 -10c20 0 38.333 3.83301 55 11.5s31.167 17.334 43.5 29.001s22.666 24.667 30.999 39s14.5 28.5 18.5 42.5s6.5 26.5 7.5 37.5
s1.5 27.5 1.5 49.5v267h21v-312c0 -13.333 0.166992 -28 0.5 -44l1 -47l1 -44c0.333008 -14 0.833008 -26 1.5 -36h-19l-4 103h-2c-16.667 -34.667 -37.834 -62.167 -63.501 -82.5s-57.5 -30.5 -95.5 -30.5c-28 0 -52 5.16699 -72 15.5s-36.333 24.833 -49 43.5
s-22 41.334 -28 68.001s-9 56.334 -9 89.001v277z" />
    <glyph glyph-name="v" unicode="v" horiz-adv-x="414" 
d="M39 483l107 -297l28.5 -80l30.5 -82h2l31.5 84.5l30.5 81.5l109 293h24l-185 -483h-23l-179 483h24z" />
    <glyph glyph-name="w" unicode="w" horiz-adv-x="675" 
d="M654 483l-152 -483.002h-26l-78 258l-29 101.5l-29 101.5h-2c-6 -16 -12 -33.5 -18 -52.5l-18.5 -57.5l-18.5 -57.5l-17 -53.5l-79 -240h-26l-137 483h23l80 -288l23.5 -87l23.5 -86h2l33 104.5l33 104.5l84 252h26l77 -252c10.667 -35.333 20.667 -70.166 30 -104.499
s19.333 -69.166 30 -104.499h2l30.5 102l32.5 107l77 252h23z" />
    <glyph glyph-name="x" unicode="x" horiz-adv-x="392" 
d="M376 0h-25.001l-89 131l-33 50.5l-33 49.5c-11.333 -14.667 -23 -31 -35 -49l-35 -51l-90 -131h-25l171 246l-161 237h25l86 -127l31.5 -46.5l31.5 -48.5c10.667 14 21.834 29.667 33.501 47l32.5 48l86 127h25l-163 -237z" />
    <glyph glyph-name="y" unicode="y" horiz-adv-x="409" 
d="M395 483l-124.002 -347.001l-38.5 -106.5c-11.667 -31 -23.167 -58.5 -34.5 -82.5s-22.833 -45 -34.5 -63s-24.5 -33.667 -38.5 -47c-20.667 -19.333 -39.167 -33.166 -55.5 -41.499s-29.166 -13.5 -38.499 -15.5l-7 18c44.667 14.667 80.334 40 107.001 76
s49.334 78 68.001 126c1.33301 5.33301 2.16602 9.33301 2.49902 12s-0.5 6.66699 -2.5 12l-184 459h24l134 -337c7.33301 -18 14.333 -36.167 21 -54.5l20 -54.5h1l156 446h24z" />
    <glyph glyph-name="z" unicode="z" horiz-adv-x="346" 
d="M331 0h-314v11l141.5 226.5l141.5 226.5v2h-263v17h291v-12l-141.5 -226.5l-140.5 -225.5v-2h285v-17z" />
    <glyph glyph-name="braceleft" unicode="{" horiz-adv-x="223" 
d="M199 669l-17.999 -0.00195312c-22.667 0 -41 -8.66699 -55 -26s-21 -47 -21 -89c0 -27.333 2.83301 -54.5 8.5 -81.5s8.5 -55.5 8.5 -85.5c0 -21.333 -3.83301 -41.333 -11.5 -60s-22.167 -31.667 -43.5 -39v-2c11.333 -4 20.5 -9.5 27.5 -16.5s12.5 -15 16.5 -24
s6.83301 -18.5 8.5 -28.5s2.5 -19.667 2.5 -29c0 -27.333 -2.83301 -54.166 -8.5 -80.499s-8.5 -54.166 -8.5 -83.499c0 -22.667 1.83301 -41.667 5.5 -57s9 -27.666 16 -36.999s15 -16 24 -20s19.167 -6 30.5 -6h18v-16h-18c-13.333 0 -25.666 2.33301 -36.999 7
s-21.333 12.167 -30 22.5s-15.5 24.166 -20.5 41.499s-7.5 39 -7.5 65c0 29.333 2.83301 56.833 8.5 82.5s8.5 53.167 8.5 82.5c0 8.66699 -0.833008 18.334 -2.5 29.001s-5.33398 20.5 -11.001 29.5s-13.334 16.5 -23.001 22.5s-22.5 9 -38.5 9v17c16 0 29 2.66699 39 8
s17.667 12.166 23 20.499s8.83301 17.833 10.5 28.5s2.5 21.667 2.5 33c0 28 -2.83301 55.667 -8.5 83s-8.5 56 -8.5 86c0 46.667 9.16699 80 27.5 100s40.833 30 67.5 30h18v-16z" />
    <glyph glyph-name="bar" unicode="|" horiz-adv-x="190" 
d="M105 750v-1000h-20v1000h20z" />
    <glyph glyph-name="braceright" unicode="}" horiz-adv-x="223" 
d="M24 -96l17.9961 -0.00195312c22.667 0 41 8.66699 55 26s21 47 21 89c0 27.333 -2.83301 54.5 -8.5 81.5s-8.5 55.5 -8.5 85.5c0 21.333 3.83301 41.333 11.5 60s22.167 31.667 43.5 39v2c-11.333 4 -20.5 9.5 -27.5 16.5s-12.5 15 -16.5 24s-6.83301 18.5 -8.5 28.5
s-2.5 19.667 -2.5 29c0 27.333 2.83301 54.166 8.5 80.499s8.5 54.166 8.5 83.499c0 44.667 -7.16699 75.834 -21.5 93.501s-32.5 26.5 -54.5 26.5h-18v16h18c12.667 0 24.834 -2.33301 36.501 -7s21.834 -12.167 30.501 -22.5s15.5 -24.166 20.5 -41.499s7.5 -39 7.5 -65
c0 -29.333 -2.83301 -56.833 -8.5 -82.5s-8.5 -53.167 -8.5 -82.5c0 -9.33301 0.833008 -19.166 2.5 -29.499s5.33398 -20 11.001 -29s13.334 -16.5 23.001 -22.5s22.5 -9 38.5 -9v-17c-16 0 -29 -2.66699 -39 -8s-17.667 -12.166 -23 -20.499s-8.83301 -18 -10.5 -29
s-2.5 -21.833 -2.5 -32.5c0 -28 2.83301 -55.667 8.5 -83s8.5 -56 8.5 -86c0 -23.333 -2.5 -43.333 -7.5 -60s-11.667 -30.167 -20 -40.5s-18.333 -17.833 -30 -22.5s-24.167 -7 -37.5 -7h-18v16z" />
    <glyph glyph-name="asciitilde" unicode="~" horiz-adv-x="555" 
d="M46 230c0 18.667 2.66602 34.666 7.99902 47.999s12.666 24.333 21.999 33s20.333 15.167 33 19.5s26.334 6.5 41.001 6.5c23.333 0 46.333 -4.5 69 -13.5s44.834 -18.667 66.501 -29s43 -20 64 -29s41.167 -13.5 60.5 -13.5c23.333 0 42.833 7 58.5 21
s23.167 38.667 22.5 74h18c0 -21.333 -2.5 -39.166 -7.5 -53.499s-12 -26 -21 -35s-19.667 -15.5 -32 -19.5s-25.166 -6 -38.499 -6c-20.667 0 -41.834 4.5 -63.501 13.5s-43.5 18.667 -65.5 29s-44 20 -66 29s-43.667 13.5 -65 13.5c-24.667 0 -45.5 -7 -62.5 -21
s-24.833 -36.333 -23.5 -67h-18z" />
    <glyph glyph-name="uni00A0" unicode="&#xa0;" horiz-adv-x="214" 
 />
    <glyph glyph-name="exclamdown" unicode="&#xa1;" horiz-adv-x="174" 
d="M73 -195l7 485h15l7 -485h-29zM63 450c0 16.667 7.99902 25 23.999 25c7.33301 0 13.166 -2.33301 17.499 -7s6.5 -10.667 6.5 -18s-2.16699 -13.5 -6.5 -18.5s-10.166 -7.5 -17.499 -7.5s-13.166 2.5 -17.499 7.5s-6.5 11.167 -6.5 18.5z" />
    <glyph glyph-name="cent" unicode="&#xa2;" horiz-adv-x="444" 
d="M368 117c-7.33301 -5.33301 -19.332 -11.1689 -35.999 -17.502s-36 -9.5 -58 -9.5v-104h-18v104c-31.333 2 -58.833 9.5 -82.5 22.5s-43.167 30 -58.5 51s-26.833 45.5 -34.5 73.5s-11.5 57.667 -11.5 89c0 34 4.5 65.5 13.5 94.5s21.833 54.333 38.5 76s36.5 39 59.5 52
s48.5 20.833 76.5 23.5v100h18v-99c22 0 41.5 -2.66699 58.5 -8s29.167 -10.666 36.5 -15.999l-8 -17c-7.33301 5.33301 -18.833 10.5 -34.5 15.5s-32.834 7.5 -51.501 7.5c-27.333 0 -52.333 -5.66699 -75 -17s-42.167 -27.166 -58.5 -47.499s-29 -44.5 -38 -72.5
s-13.5 -58.667 -13.5 -92c0 -34 4.33301 -64.333 13 -91s20.667 -49.5 36 -68.5s34 -33.5 56 -43.5s46 -15 72 -15c21.333 0 40.5 2.83301 57.5 8.5s29.5 11.5 37.5 17.5z" />
    <glyph glyph-name="sterling" unicode="&#xa3;" horiz-adv-x="444" 
d="M322 323l-141.002 -0.00390625c2.66699 -17.333 4.83398 -34.666 6.50098 -51.999s2.16699 -34.666 1.5 -51.999c0 -18.667 -2.33301 -37.667 -7 -57s-11.334 -37.666 -20.001 -54.999s-19 -33.666 -31 -48.999s-25.333 -28.333 -40 -39v-2h311v-17h-345v13
c16.667 10 31.834 22.667 45.501 38s25.334 32.5 35.001 51.5s17.167 39 22.5 60s8 41.5 8 61.5c0 16.667 -1 33.167 -3 49.5s-4.33301 32.833 -7 49.5h-83v15h81l-10 64c-3.33301 21.333 -5 43.333 -5 66c0 30 4 57 12 81s19 44.333 33 61s30.833 29.334 50.5 38.001
s41.167 13 64.5 13c19.333 0 34.833 -1.33301 46.5 -4s22.167 -6.33398 31.5 -11.001l-6 -17c-7.33301 3.33301 -16.833 6.5 -28.5 9.5s-25.167 4.5 -40.5 4.5c-42.667 0 -76.667 -15.5 -102 -46.5s-38 -73.833 -38 -128.5c0 -22 1.66699 -43.833 5 -65.5l10 -64.5h143v-15z
" />
    <glyph glyph-name="currency" unicode="&#xa4;" horiz-adv-x="444" 
d="M103 473c14 18 30.834 32.165 50.501 42.498s42.167 15.5 67.5 15.5s47.833 -5.33301 67.5 -16s36.167 -24.667 49.5 -42l75 76l14 -14l-78 -77c11.333 -17.333 19.666 -36.666 24.999 -57.999s8 -43.333 8 -66c0 -28 -3 -52.833 -9 -74.5s-14 -40.5 -24 -56.5l78 -77
l-14 -14l-75 75c-15.333 -19.333 -33.5 -33.666 -54.5 -42.999s-42.167 -14 -63.5 -14c-20 0 -40.333 4.83301 -61 14.5s-39 24.167 -55 43.5l-75 -76l-13 14l77 77c-10 16 -18.167 34.5 -24.5 55.5s-9.5 44.833 -9.5 71.5c0 49.333 11.333 92 34 128l-77 77l13 14z
M221.001 514.998c-22 0 -41.834 -4.83398 -59.501 -14.501s-32.667 -23 -45 -40s-21.666 -36.667 -27.999 -59s-9.5 -46.166 -9.5 -71.499c0 -32 4.5 -59.667 13.5 -83s20.333 -42.5 34 -57.5s28.834 -26 45.501 -33s32.667 -10.5 48 -10.5c16.667 0 33.5 3.5 50.5 10.5
s32.333 18 46 33s24.667 34.5 33 58.5s12.5 52.667 12.5 86c0 22.667 -3 45 -9 67s-14.833 41.333 -26.5 58s-26.334 30.167 -44.001 40.5s-38.167 15.5 -61.5 15.5z" />
    <glyph glyph-name="yen" unicode="&#xa5;" horiz-adv-x="444" 
d="M373 194h-146v-194h-22v194h-146v15h146v105h-146v15h140l-184 321h24l120 -212l29 -51.5l28 -51.5h2l29 51.5l30 51.5l127 212h24l-195 -321h140v-15h-146v-105h146v-15z" />
    <glyph glyph-name="brokenbar" unicode="&#xa6;" horiz-adv-x="190" 
d="M105 675v-350h-20v350h20zM105 175v-350h-20v350h20z" />
    <glyph glyph-name="section" unicode="&#xa7;" horiz-adv-x="456" 
d="M348 638c-12 8.66699 -27.498 15.5049 -46.498 20.5049s-39.167 7.5 -60.5 7.5c-38 0 -68.833 -9 -92.5 -27s-35.5 -42.667 -35.5 -74c0 -26.667 7 -47.834 21 -63.501s31.667 -28.834 53 -39.501s44.166 -20.334 68.499 -29.001s47.166 -19 68.499 -31
s39 -27.167 53 -45.5s21 -42.5 21 -72.5c0 -26 -6 -49 -18 -69s-27.667 -37.667 -47 -53c12.667 -11.333 22.334 -24.5 29.001 -39.5s10 -31.167 10 -48.5c0 -22 -4.33301 -41.333 -13 -58s-20.167 -30.5 -34.5 -41.5s-31.166 -19.333 -50.499 -25s-39.333 -8.5 -60 -8.5
c-25.333 0 -49.5 4.16699 -72.5 12.5s-42.167 18.166 -57.5 29.499l7 17c13.333 -11.333 31 -21.166 53 -29.499s45.667 -12.5 71 -12.5c17.333 0 34.166 2.33301 50.499 7s30.833 11.667 43.5 21s22.834 21 30.501 35s11.5 30.667 11.5 50c0 26 -7.16699 47.167 -21.5 63.5
s-32.333 30.166 -54 41.499s-45.167 21.5 -70.5 30.5s-48.833 19.833 -70.5 32.5s-39.667 28.167 -54 46.5s-21.5 42.166 -21.5 71.499c0 18.667 5.33301 38.167 16 58.5s29.667 40.166 57 59.499c-12 10.667 -21.667 23.334 -29 38.001s-11 31.667 -11 51
c0 18 3.83301 34.333 11.5 49s18.167 27.167 31.5 37.5s29.166 18.333 47.499 24s38.166 8.5 59.499 8.5c23.333 0 44.833 -2.5 64.5 -7.5s35.5 -12.167 47.5 -21.5zM80.002 358.005c0 -19.333 4.16504 -35.999 12.498 -49.999s19.166 -26.333 32.499 -37s28.5 -20 45.5 -28
s34.333 -15.667 52 -23l52 -22.5c17 -7.66699 31.833 -16.167 44.5 -25.5c18 14 32.167 30 42.5 48s15.5 39 15.5 63c0 20.667 -3.83301 38.167 -11.5 52.5s-18 26.5 -31 36.5s-27.667 18.667 -44 26s-33.166 14.333 -50.499 21s-34.166 13.5 -50.499 20.5
s-31.166 15.5 -44.499 25.5c-24 -16.667 -40.833 -34.334 -50.5 -53.001s-14.5 -36.667 -14.5 -54z" />
    <glyph glyph-name="dieresis" unicode="&#xa8;" 
d="M73 584c-6.66699 0 -12 2.33301 -16 7s-6 10 -6 16c0 6.66699 2.16699 12.167 6.5 16.5s9.5 6.5 15.5 6.5c14.667 0 22 -7.66699 22 -23c0 -6 -2 -11.333 -6 -16s-9.33301 -7 -16 -7zM226 584c-6.66699 0 -12 2.33301 -16 7s-6 10 -6 16
c0 6.66699 2.16699 12.167 6.5 16.5s9.5 6.5 15.5 6.5c14.667 0 22 -7.66699 22 -23c0 -6 -2 -11.333 -6 -16s-9.33301 -7 -16 -7z" />
    <glyph glyph-name="copyright" unicode="&#xa9;" horiz-adv-x="677" 
d="M449 478c-6 6 -16.5 11.666 -31.5 16.999s-32.833 8 -53.5 8c-22 0 -42.5 -3.83301 -61.5 -11.5s-35.5 -18.667 -49.5 -33s-25 -32 -33 -53s-12 -44.833 -12 -71.5c0 -24 3.16699 -46 9.5 -66s15.666 -37.167 27.999 -51.5s27.833 -25.666 46.5 -33.999
s40.334 -12.5 65.001 -12.5c17.333 0 34.5 2.16699 51.5 6.5s32.167 11.833 45.5 22.5l5 -15c-15.333 -11.333 -31.5 -19.333 -48.5 -24s-35.167 -7 -54.5 -7c-27.333 0 -51.333 4.5 -72 13.5s-38.334 21.667 -53.001 38s-25.667 35.5 -33 57.5s-11 46 -11 72
c0 29.333 4.83301 55.5 14.5 78.5s22.5 42.5 38.5 58.5s34.667 28.167 56 36.5s44 12.5 68 12.5c22.667 0 41.834 -3 57.501 -9s26.5 -11.667 32.5 -17zM340 631.999c-40 0 -77.333 -7.66699 -112 -23s-65 -36.166 -91 -62.499s-46.333 -57.166 -61 -92.499
s-22 -73.333 -22 -114c0 -41.333 7.33301 -79.833 22 -115.5s35 -66.667 61 -93s56.333 -47.166 91 -62.499s72 -23 112 -23s77.167 7.66699 111.5 23s64.166 36.166 89.499 62.499s45.333 57.333 60 93s22 74.167 22 115.5c0 40.667 -7.33301 78.667 -22 114
s-34.667 66.166 -60 92.499s-55.166 47.166 -89.499 62.499s-71.5 23 -111.5 23zM641 339.999c0 -42 -7.66699 -81.6689 -23 -119.002s-36.5 -70.166 -63.5 -98.499s-58.833 -50.833 -95.5 -67.5s-76.334 -25 -119.001 -25s-82.5 8.16699 -119.5 24.5
s-69.167 38.5 -96.5 66.5s-48.833 60.833 -64.5 98.5s-23.5 77.834 -23.5 120.501s7.83301 82.667 23.5 120s37.334 70 65.001 98s60 50 97 66s76.833 24 119.5 24c42 0 81.333 -8.16699 118 -24.5s68.5 -38.5 95.5 -66.5s48.167 -60.667 63.5 -98s23 -77 23 -119z" />
    <glyph glyph-name="ordfeminine" unicode="&#xaa;" horiz-adv-x="308" 
d="M66 564c11.333 8.66699 25.335 15.333 42.002 20s32 7 46 7c21.333 0 38.666 -3.66699 51.999 -11s23.833 -17.166 31.5 -29.499s13 -26.333 16 -42s4.5 -31.834 4.5 -48.501v-119c0 -12.667 0.666992 -25.667 2 -39s2.66602 -25.333 3.99902 -36h-18l-4 51h-2
c-10 -15.333 -23.833 -28.833 -41.5 -40.5s-39.167 -17.5 -64.5 -17.5c-29.333 0 -53 8.16699 -71 24.5s-27 36.5 -27 60.5c0 34 17.833 60.667 53.5 80s85.834 29 150.501 29v11c0 12.667 -1 25.667 -3 39s-6.16699 25.5 -12.5 36.5s-15.333 19.833 -27 26.5
s-26.834 10 -45.501 10c-12.667 0 -26.667 -1.83301 -42 -5.5s-28.333 -10.167 -39 -19.5zM240.002 437.999c-58.667 0.666992 -104.331 -6.83398 -136.998 -22.501s-49 -39.5 -49 -71.5c0 -21.333 7.5 -38.333 22.5 -51s34.833 -19 59.5 -19
c14.667 0 28.167 2.66699 40.5 8s23.166 12 32.499 20s16.666 16.833 21.999 26.5s8.33301 18.834 9 27.501v82z" />
    <glyph glyph-name="guillemotleft" unicode="&#xab;" horiz-adv-x="357" 
d="M50 252l135 -182h-23l-133 182l133 182h23zM199 252l135 -182h-23l-133 182l133 182h23z" />
    <glyph glyph-name="logicalnot" unicode="&#xac;" horiz-adv-x="555" 
d="M510 376v-250h-20v232h-445v18h465z" />
    <glyph glyph-name="uni00AD" unicode="&#xad;" horiz-adv-x="251" 
d="M221 285v-19h-191v19h191z" />
    <glyph glyph-name="registered" unicode="&#xae;" horiz-adv-x="510" 
d="M325 327c-3.33301 8.66699 -6 19.5 -8 32.5s-5.33301 26.167 -10 39.5c-4 12.667 -10.5 23.5 -19.5 32.5s-25.167 13.5 -48.5 13.5h-36v-118h-17v250c13.333 2.66699 24.5 4.5 33.5 5.5s17.833 1.5 26.5 1.5c58.667 0 88 -22.333 88 -67
c0 -16.667 -4.66699 -30.167 -14 -40.5s-22 -18.166 -38 -23.499v-2c12.667 -2 22.5 -8.66699 29.5 -20s12.5 -24 16.5 -38s7 -27.333 9 -40s4.33301 -21.334 7 -26.001h-19zM317 517c0 36 -24.001 54 -72.001 54c-5.33301 0 -11.833 -0.333008 -19.5 -1
s-15.167 -1.66699 -22.5 -3v-109h36c20.667 0 38.834 4.5 54.501 13.5s23.5 24.167 23.5 45.5zM470.999 458c0 -30 -5.50098 -58.501 -16.501 -85.501s-26.167 -50.667 -45.5 -71s-42.166 -36.333 -68.499 -48s-54.5 -17.5 -84.5 -17.5s-58 5.83301 -84 17.5
s-48.833 27.5 -68.5 47.5s-35.167 43.5 -46.5 70.5s-17 55.833 -17 86.5s5.66699 59.334 17 86.001s26.833 50 46.5 70s42.667 35.833 69 47.5s54.5 17.5 84.5 17.5s58 -5.83301 84 -17.5s48.667 -27.667 68 -48s34.5 -43.833 45.5 -70.5s16.5 -55 16.5 -85z
M453.998 457.999c0 28 -5 54.501 -15 79.501s-23.833 46.833 -41.5 65.5s-38.5 33.5 -62.5 44.5s-50 16.5 -78 16.5s-54.167 -5.33301 -78.5 -16s-45.5 -25.334 -63.5 -44.001s-32.167 -40.5 -42.5 -65.5s-15.5 -51.833 -15.5 -80.5s5.16699 -55.5 15.5 -80.5
s24.5 -46.833 42.5 -65.5s39 -33.5 63 -44.5s50 -16.5 78 -16.5s54 5.5 78 16.5s44.833 25.833 62.5 44.5s31.667 40.667 42 66s15.5 52 15.5 80z" />
    <glyph glyph-name="macron" unicode="&#xaf;" 
d="M243 611v-17h-185v17h185z" />
    <glyph glyph-name="degree" unicode="&#xb0;" horiz-adv-x="281" 
d="M145 686c18 0 34.002 -3.16699 48.002 -9.5s25.833 -14.833 35.5 -25.5s17.167 -22.834 22.5 -36.501s8 -27.834 8 -42.501c0 -17.333 -3.33301 -33.166 -10 -47.499s-15.334 -26.666 -26.001 -36.999s-23 -18.333 -37 -24s-28.333 -8.5 -43 -8.5c-17.333 0 -33 3 -47 9
s-26 14.167 -36 24.5s-17.667 22.333 -23 36s-8 28.167 -8 43.5c0 16.667 3 32.167 9 46.5s14.167 26.833 24.5 37.5s22.666 19 36.999 25s29.5 9 45.5 9zM145.002 672c-28.667 0 -52.334 -10.166 -71.001 -30.499s-28 -44.833 -28 -73.5c0 -26.667 9 -49.834 27 -69.501
s41.333 -29.5 70 -29.5c12.667 0 25 2.5 37 7.5s22.5 12 31.5 21s16.333 19.833 22 32.5s8.5 26.667 8.5 42c0 12.667 -2.16699 25 -6.5 37s-10.666 22.667 -18.999 32s-18.5 16.833 -30.5 22.5s-25.667 8.5 -41 8.5z" />
    <glyph glyph-name="plusminus" unicode="&#xb1;" horiz-adv-x="555" 
d="M510 18v-18h-465v18h465zM288 567v-213h222v-18h-222v-221h-20v221h-222v18h222v213h20z" />
    <glyph glyph-name="twosuperior" unicode="&#xb2;" horiz-adv-x="291" 
d="M242 266h-211v11l62 67c38 40 68.667 78.167 92 114.5s35 69.5 35 99.5c0 24 -6.33301 44.5 -19 61.5s-35 25.5 -67 25.5c-15.333 0 -30.333 -3 -45 -9s-27 -13.667 -37 -23l-7 12c10.667 9.33301 23.667 17.666 39 24.999s33.666 11 54.999 11
c18.667 0 34.334 -2.83301 47.001 -8.5s23 -13.167 31 -22.5s13.833 -20.166 17.5 -32.499s5.5 -24.833 5.5 -37.5c0 -16.667 -3.5 -34 -10.5 -52s-16.5 -36.5 -28.5 -55.5s-26 -38.333 -42 -58s-33.333 -39.167 -52 -58.5l-48 -52v-2h183v-16z" />
    <glyph glyph-name="threesuperior" unicode="&#xb3;" horiz-adv-x="291" 
d="M112 485c12 0 24 2.16797 36 6.50098s22.833 10.5 32.5 18.5s17.334 17.333 23.001 28s8.5 22.334 8.5 35.001c0 19.333 -6.83301 36.166 -20.5 50.499s-33.167 21.5 -58.5 21.5c-17.333 0 -33.5 -2.66699 -48.5 -8s-26.833 -11.333 -35.5 -18l-5 14
c9.33301 6.66699 21.833 13 37.5 19s33.834 9 54.501 9c16 0 30 -2.5 42 -7.5s22 -11.5 30 -19.5s14 -17.167 18 -27.5s6 -20.833 6 -31.5c0 -22 -7.33301 -41.667 -22 -59s-34.667 -29.333 -60 -36v-2c26.667 -4 49.667 -15 69 -33s29 -41 29 -69
c0 -15.333 -2.66699 -30 -8 -44s-13.5 -26.333 -24.5 -37s-24.833 -19.167 -41.5 -25.5s-36.334 -9.5 -59.001 -9.5c-19.333 0 -36.333 2.66699 -51 8s-26.667 10.666 -36 15.999l6 15c8 -6 19.167 -11.333 33.5 -16s30.166 -7 47.499 -7c34.667 0 62.167 9.5 82.5 28.5
s30.5 42.833 30.5 71.5c0 27.333 -10.667 49.833 -32 67.5s-49.333 26.5 -84 26.5h-19v15h19z" />
    <glyph glyph-name="acute" unicode="&#xb4;" 
d="M252 686l-113 -136h-16l93 136h36z" />
    <glyph glyph-name="uni00B5" unicode="&#xb5;" horiz-adv-x="498" 
d="M100 483l-0.00195312 -354.998c0 -15.333 3.83301 -30.333 11.5 -45s18 -27.5 31 -38.5s27.667 -19.833 44 -26.5s33.166 -10 50.499 -10c22 0 42.667 4.33301 62 13s36 19.167 50 31.5s25 25 33 38s12 23.833 12 32.5v360h21v-377c0 -22.667 0.5 -40.667 1.5 -54
s3 -23.333 6 -30s7 -10.834 12 -12.501s11.167 -2.5 18.5 -2.5l-3 -16c-5.33301 -1.33301 -9 -2 -11 -2c-7.33301 0 -13.666 1.16699 -18.999 3.5s-9.83301 6.83301 -13.5 13.5s-6.5 16.167 -8.5 28.5s-3 28.5 -3 48.5h-1c-6.66699 -10.667 -15 -21.334 -25 -32.001
s-21.667 -20.5 -35 -29.5s-28.166 -16.333 -44.499 -22s-34.166 -8.5 -53.499 -8.5c-30 0 -57.833 7.83301 -83.5 23.5s-43.167 35.167 -52.5 58.5v-94c0 -36.667 0.833008 -71 2.5 -103s5.16699 -56 10.5 -72l-20 -4c-5.33301 15.333 -9 39 -11 71s-3 67.667 -3 107v505h21
z" />
    <glyph glyph-name="paragraph" unicode="&#xb6;" horiz-adv-x="441" 
d="M356 -50l-19.999 -0.00195312v704h-71v-704h-20v316c-26 0 -51.5 3.83301 -76.5 11.5s-47.5 19.667 -67.5 36s-36.167 37.333 -48.5 63s-18.5 56.834 -18.5 93.501c0 26 4 51.5 12 76.5s21.667 47 41 66s45.166 34.333 77.499 46s72.833 17.5 121.5 17.5
c15.333 0 29.5 -0.666992 42.5 -2s22.167 -2.66602 27.5 -3.99902v-720z" />
    <glyph glyph-name="periodcentered" unicode="&#xb7;" horiz-adv-x="137" 
d="M93 283c0 -16.667 -7.99902 -25 -23.999 -25c-7.33301 0 -13.166 2.33301 -17.499 7s-6.5 10.667 -6.5 18s2.16699 13.5 6.5 18.5s10.166 7.5 17.499 7.5s13.166 -2.5 17.499 -7.5s6.5 -11.167 6.5 -18.5z" />
    <glyph glyph-name="cedilla" unicode="&#xb8;" 
d="M163 2l-39.001 -65.998c19.333 -1.33301 36.5 -7.33301 51.5 -18s22.5 -26.334 22.5 -47.001c0 -11.333 -2.16699 -21 -6.5 -29s-10 -14.5 -17 -19.5s-14.833 -8.66699 -23.5 -11s-17.334 -3.5 -26.001 -3.5c-12 0 -23.167 1.66699 -33.5 5s-18.833 7.66602 -25.5 12.999
l6 16c13.333 -11.333 31 -17 53 -17c12.667 0 24.834 3.33301 36.501 10s17.5 18.667 17.5 36c0 10 -2.33301 18.333 -7 25s-10.667 12 -18 16s-15.666 7 -24.999 9s-19 3 -29 3l45 78h18z" />
    <glyph glyph-name="onesuperior" unicode="&#xb9;" horiz-adv-x="233" 
d="M127 266v370h-2l-79 -45l-4 16l89 49h15v-390h-19z" />
    <glyph glyph-name="ordmasculine" unicode="&#xba;" horiz-adv-x="310" 
d="M156 591c40 0 72.1689 -14.833 96.502 -44.5s36.5 -68.834 36.5 -117.501c0 -29.333 -4 -54.666 -12 -75.999s-18.5 -38.833 -31.5 -52.5s-27.667 -23.667 -44 -30s-32.833 -9.5 -49.5 -9.5c-18.667 0 -36 3.83301 -52 11.5s-29.833 18.5 -41.5 32.5
s-20.834 31 -27.501 51s-10 42.667 -10 68c0 26.667 3.5 50.334 10.5 71.001s16.667 38.167 29 52.5s26.666 25.166 42.999 32.499s33.833 11 52.5 11zM156.002 576c-34.667 0 -62.832 -13.332 -84.499 -39.999s-32.5 -64 -32.5 -112c0 -46.667 10.5 -83 31.5 -109
s48.167 -39 81.5 -39c14.667 0 29.167 3 43.5 9s27.166 15.167 38.499 27.5s20.333 28.166 27 47.499s10 42.333 10 69c0 44 -10.167 79.5 -30.5 106.5s-48.5 40.5 -84.5 40.5z" />
    <glyph glyph-name="guillemotright" unicode="&#xbb;" horiz-adv-x="357" 
d="M172 434h23l133 -182l-133 -182h-23l135 182zM23 434h23l133 -182l-133 -182h-23l135 182z" />
    <glyph glyph-name="onequarter" unicode="&#xbc;" horiz-adv-x="738" 
d="M601 0v119h-183v14l178 259h24v-257h50v-16h-50v-119h-19zM601 278v90h-2l-78.5 -115.5l-78.5 -115.5l1 -2h158v143zM144 -11l379 672h19l-379 -672h-19zM136 266v370h-2l-79 -45l-4 16l89 49h15v-390h-19z" />
    <glyph glyph-name="onehalf" unicode="&#xbd;" horiz-adv-x="738" 
d="M124 -11l379 672h19l-379 -672h-19zM136 266v370h-2l-79 -45l-4 16l89 49h15v-390h-19zM672 0h-211v11l62 67c38 40 68.667 78.167 92 114.5s35 69.5 35 99.5c0 24 -6.33301 44.5 -19 61.5s-35 25.5 -67 25.5c-15.333 0 -30.333 -3 -45 -9s-27 -13.667 -37 -23l-7 12
c10.667 9.33301 23.667 17.666 39 24.999s33.666 11 54.999 11c18.667 0 34.334 -2.83301 47.001 -8.5s23 -13.167 31 -22.5s13.833 -20.166 17.5 -32.499s5.5 -24.833 5.5 -37.5c0 -16.667 -3.5 -34 -10.5 -52s-16.5 -36.5 -28.5 -55.5s-26 -38.333 -42 -58
s-33.333 -39.167 -52 -58.5l-48 -52v-2h183v-16z" />
    <glyph glyph-name="threequarters" unicode="&#xbe;" horiz-adv-x="738" 
d="M611 0v119h-183v14l178 259h24v-257h50v-16h-50v-119h-19zM611 278v90h-2l-78.5 -115.5l-78.5 -115.5l1 -2h158v143zM184 -11l379 672h19l-379 -672h-19zM142 485c12 0 24 2.16797 36 6.50098s22.833 10.5 32.5 18.5s17.334 17.333 23.001 28s8.5 22.334 8.5 35.001
c0 19.333 -6.83301 36.166 -20.5 50.499s-33.167 21.5 -58.5 21.5c-17.333 0 -33.5 -2.66699 -48.5 -8s-26.833 -11.333 -35.5 -18l-5 14c9.33301 6.66699 21.833 13 37.5 19s33.834 9 54.501 9c16 0 30 -2.5 42 -7.5s22 -11.5 30 -19.5s14 -17.167 18 -27.5
s6 -20.833 6 -31.5c0 -22 -7.33301 -41.667 -22 -59s-34.667 -29.333 -60 -36v-2c26.667 -4 49.667 -15 69 -33s29 -41 29 -69c0 -15.333 -2.66699 -30 -8 -44s-13.5 -26.333 -24.5 -37s-24.833 -19.167 -41.5 -25.5s-36.334 -9.5 -59.001 -9.5
c-19.333 0 -36.333 2.66699 -51 8s-26.667 10.666 -36 15.999l6 15c8 -6 19.167 -11.333 33.5 -16s30.166 -7 47.499 -7c34.667 0 62.167 9.5 82.5 28.5s30.5 42.833 30.5 71.5c0 27.333 -10.667 49.833 -32 67.5s-49.333 26.5 -84 26.5h-19v15h19z" />
    <glyph glyph-name="questiondown" unicode="&#xbf;" horiz-adv-x="335" 
d="M57 -74c0 34 8.66602 66.334 25.999 97.001s37 60 59 88c20 24.667 34.333 47 43 67s13 43.667 13 71v21c0 6.66699 -0.666992 13.667 -2 21h21c1.33301 -8 2.16602 -15.333 2.49902 -22s0.5 -13.667 0.5 -21c0 -29.333 -4.83301 -54.833 -14.5 -76.5
s-24.5 -44.834 -44.5 -69.501c-21.333 -26.667 -40.166 -54.667 -56.499 -84s-24.5 -59.666 -24.5 -90.999c0 -32 9.33301 -59.667 28 -83s47 -35 85 -35c16.667 0 33.334 2.83301 50.001 8.5s31 13.834 43 24.501l10 -14c-13.333 -11.333 -29.5 -20.333 -48.5 -27
s-38.167 -10 -57.5 -10c-22 0 -41.333 3.66699 -58 11s-30.5 17.166 -41.5 29.499s-19.333 26.666 -25 42.999s-8.5 33.5 -8.5 51.5zM180.999 450.001c0 16.667 7.99902 25 23.999 25c7.33301 0 13.166 -2.33301 17.499 -7s6.5 -10.667 6.5 -18s-2.16699 -13.5 -6.5 -18.5
s-10.166 -7.5 -17.499 -7.5s-13.166 2.5 -17.499 7.5s-6.5 11.167 -6.5 18.5z" />
    <glyph glyph-name="Agrave" unicode="&#xc0;" horiz-adv-x="551" 
d="M292 674l229 -674h-23l-81 239h-281l-81 -239h-22l229 674h30zM411 257l-38 111l-37 112l-29 87l-29 87h-2l-29 -87l-29 -87l-38 -111.5l-38 -111.5h269zM209 825l99 -115h-17l-123 115h41z" />
    <glyph glyph-name="Aacute" unicode="&#xc1;" horiz-adv-x="551" 
d="M292 674l229 -674h-23l-81 239h-281l-81 -239h-22l229 674h30zM411 257l-38 111l-37 112l-29 87l-29 87h-2l-29 -87l-29 -87l-38 -111.5l-38 -111.5h269zM393 825l-122 -115h-18l99 115h41z" />
    <glyph glyph-name="Acircumflex" unicode="&#xc2;" horiz-adv-x="551" 
d="M292 674l229 -674h-23l-81 239h-281l-81 -239h-22l229 674h30zM411 257l-38 111l-37 112l-29 87l-29 87h-2l-29 -87l-29 -87l-38 -111.5l-38 -111.5h269zM292 821l92 -111h-20l-86 92h-2l-85 -92h-20l91 111h30z" />
    <glyph glyph-name="Atilde" unicode="&#xc3;" horiz-adv-x="551" 
d="M292 674l229 -674h-23l-81 239h-281l-81 -239h-22l229 674h30zM411 257l-38 111l-37 112l-29 87l-29 87h-2l-29 -87l-29 -87l-38 -111.5l-38 -111.5h269zM173 718c-0.666992 24 3.66895 43.167 13.002 57.5s22.666 21.5 39.999 21.5c12 0 22.833 -3 32.5 -9
s18.667 -12.667 27 -20s16.5 -14 24.5 -20s16.333 -9 25 -9c9.33301 0 16.666 3.83301 21.999 11.5s8.66602 24.167 9.99902 49.5h16c-1.33301 -30.667 -6.16602 -51.5 -14.499 -62.5s-19.5 -16.5 -33.5 -16.5c-11.333 0 -21.5 3 -30.5 9s-17.5 12.667 -25.5 20
s-16.167 14 -24.5 20s-17.833 9 -28.5 9c-12 0 -21.333 -5.33301 -28 -16s-9.66699 -25.667 -9 -45h-16z" />
    <glyph glyph-name="Adieresis" unicode="&#xc4;" horiz-adv-x="551" 
d="M292 674l229 -674h-23l-81 239h-281l-81 -239h-22l229 674h30zM411 257l-38 111l-37 112l-29 87l-29 87h-2l-29 -87l-29 -87l-38 -111.5l-38 -111.5h269zM200 730c-6.66699 0 -12 2.16699 -16 6.5s-6 9.83301 -6 16.5s2.16699 12 6.5 16s9.5 6 15.5 6
c14.667 0 22 -7.33301 22 -22c0 -6.66699 -2 -12.167 -6 -16.5s-9.33301 -6.5 -16 -6.5zM354 730c-6.66699 0 -12 2.16699 -16 6.5s-6 9.83301 -6 16.5s2.16699 12 6.5 16s9.5 6 15.5 6c14.667 0 22 -7.33301 22 -22c0 -6.66699 -2 -12.167 -6 -16.5s-9.33301 -6.5 -16 -6.5
z" />
    <glyph glyph-name="Aring" unicode="&#xc5;" horiz-adv-x="551" 
d="M292 674l229 -674h-23l-81 239h-281l-81 -239h-22l229 674h30zM411 257l-38 111l-37 112l-29 87l-29 87h-2l-29 -87l-29 -87l-38 -111.5l-38 -111.5h269zM279 855c24 0 44.3311 -7.16602 60.998 -21.499s25 -33.5 25 -57.5s-8.66699 -43.167 -26 -57.5
s-37.666 -21.5 -60.999 -21.5c-25.333 0 -46.5 7.16699 -63.5 21.5s-25.5 33.166 -25.5 56.499c0 24 8.33301 43.333 25 58s38.334 22 65.001 22zM278.998 839.001c-21.333 0 -38.5 -5.66699 -51.5 -17s-19.5 -27 -19.5 -47c0 -19.333 6.83301 -34.5 20.5 -45.5
s30.167 -16.5 49.5 -16.5s35.5 5.5 48.5 16.5s19.5 26.5 19.5 46.5s-6.33301 35.5 -19 46.5s-28.667 16.5 -48 16.5z" />
    <glyph glyph-name="AE" unicode="&#xc6;" horiz-adv-x="705" 
d="M639 341h-245l47 -322h233v-19h-249l-21.5 145.5l-17.5 120.5h-242l-124 -266h-21l315 674h334v-19h-299l43 -295h247v-19zM153 285h230l-54 373h-2z" />
    <glyph glyph-name="Ccedilla" unicode="&#xc7;" horiz-adv-x="507" 
d="M472 11c-13.333 -5.33301 -31.998 -10.166 -55.998 -14.499s-52.333 -6.5 -85 -6.5h-4l-32 -54c19.333 -1.33301 36.5 -7.33301 51.5 -18s22.5 -26.334 22.5 -47.001c0 -11.333 -2.16699 -21 -6.5 -29s-10 -14.5 -17 -19.5s-14.833 -8.66699 -23.5 -11
s-17.334 -3.5 -26.001 -3.5c-12 0 -23.167 1.66699 -33.5 5s-18.833 7.66602 -25.5 12.999l6 16c13.333 -11.333 31 -17 53 -17c12.667 0 24.834 3.33301 36.501 10s17.5 18.667 17.5 36c0 10 -2.33301 18.333 -7 25s-10.667 12 -18 16s-15.666 7 -24.999 9s-19 3 -29 3
l39 67c-84.667 4 -151.167 34.833 -199.5 92.5s-72.5 140.167 -72.5 247.5c0 52.667 6.66699 100.667 20 144s33.166 80.5 59.499 111.5s59 55 98 72s84.167 25.5 135.5 25.5c30 0 54.833 -2.83301 74.5 -8.5s35.167 -11.167 46.5 -16.5l-6 -18
c-11.333 5.33301 -26.333 10.833 -45 16.5s-42 8.5 -70 8.5c-48 0 -90.167 -8 -126.5 -24s-66.5 -38.667 -90.5 -68s-42.167 -64.666 -54.5 -105.999s-18.5 -87 -18.5 -137c0 -105.333 23.667 -185.5 71 -240.5s114.333 -82.5 201 -82.5c29.333 0 55.666 2 78.999 6
s41.666 8.66699 54.999 14z" />
    <glyph glyph-name="Egrave" unicode="&#xc8;" horiz-adv-x="427" 
d="M362 346h-257v-327h287v-19h-308v674h293v-19h-272v-290h257v-19zM188 825l99 -115h-17l-123 115h41z" />
    <glyph glyph-name="Eacute" unicode="&#xc9;" horiz-adv-x="427" 
d="M362 346h-257v-327h287v-19h-308v674h293v-19h-272v-290h257v-19zM343 825l-122 -115h-18l99 115h41z" />
    <glyph glyph-name="Ecircumflex" unicode="&#xca;" horiz-adv-x="427" 
d="M362 346h-257v-327h287v-19h-308v674h293v-19h-272v-290h257v-19zM254 821l92 -111h-20l-86 92h-2l-85 -92h-20l91 111h30z" />
    <glyph glyph-name="Edieresis" unicode="&#xcb;" horiz-adv-x="427" 
d="M362 346h-257v-327h287v-19h-308v674h293v-19h-272v-290h257v-19zM163 730c-6.66699 0 -12 2.16699 -16 6.5s-6 9.83301 -6 16.5s2.16699 12 6.5 16s9.5 6 15.5 6c14.667 0 22 -7.33301 22 -22c0 -6.66699 -2 -12.167 -6 -16.5s-9.33301 -6.5 -16 -6.5zM317 730
c-6.66699 0 -12 2.16699 -16 6.5s-6 9.83301 -6 16.5s2.16699 12 6.5 16s9.5 6 15.5 6c14.667 0 22 -7.33301 22 -22c0 -6.66699 -2 -12.167 -6 -16.5s-9.33301 -6.5 -16 -6.5z" />
    <glyph glyph-name="Igrave" unicode="&#xcc;" horiz-adv-x="195" 
d="M108 674v-674h-21v674h21zM23 825l99 -115h-17l-123 115h41z" />
    <glyph glyph-name="Iacute" unicode="&#xcd;" horiz-adv-x="195" 
d="M108 674v-674h-21v674h21zM213 825l-122 -115h-18l99 115h41z" />
    <glyph glyph-name="Icircumflex" unicode="&#xce;" horiz-adv-x="195" 
d="M108 674v-674h-21v674h21zM112 821l92 -111h-20l-86 92h-2l-85 -92h-20l91 111h30z" />
    <glyph glyph-name="Idieresis" unicode="&#xcf;" horiz-adv-x="195" 
d="M108 674v-674h-21v674h21zM21 730c-6.66699 0 -12 2.16699 -16 6.5s-6 9.83301 -6 16.5s2.16699 12 6.5 16s9.5 6 15.5 6c14.667 0 22 -7.33301 22 -22c0 -6.66699 -2 -12.167 -6 -16.5s-9.33301 -6.5 -16 -6.5zM175 730c-6.66699 0 -12 2.16699 -16 6.5
s-6 9.83301 -6 16.5s2.16699 12 6.5 16s9.5 6 15.5 6c14.667 0 22 -7.33301 22 -22c0 -6.66699 -2 -12.167 -6 -16.5s-9.33301 -6.5 -16 -6.5z" />
    <glyph glyph-name="Eth" unicode="&#xd0;" horiz-adv-x="606" 
d="M89 664c22 3.33301 45.999 6.66797 71.999 10.001s51.667 5 77 5c48.667 0 93.167 -6.5 133.5 -19.5s75 -32.833 104 -59.5s51.5 -60.334 67.5 -101.001s24 -89 24 -145c0 -59.333 -8 -111.5 -24 -156.5s-39.167 -82.5 -69.5 -112.5s-67.333 -52.667 -111 -68
s-93.5 -23 -149.5 -23c-21.333 0 -42.666 0.5 -63.999 1.5s-41.333 3.16699 -60 6.5v337h-73v17h73v308zM109.999 356.002l182.001 -0.00195312v-17h-182v-322c14.667 -2 31.334 -3.33301 50.001 -4s37 -1 55 -1c105.333 0 186.5 28.667 243.5 86s85.5 142.333 85.5 255
c0 52 -7.33301 97.333 -22 136s-35.334 70.834 -62.001 96.501s-58.834 44.667 -96.501 57s-79.5 18.5 -125.5 18.5c-22.667 0 -45 -1.16699 -67 -3.5s-42.333 -5.16602 -61 -8.49902v-293z" />
    <glyph glyph-name="Ntilde" unicode="&#xd1;" horiz-adv-x="605" 
d="M213 718c-0.666992 24 3.66895 43.167 13.002 57.5s22.666 21.5 39.999 21.5c12 0 22.833 -3 32.5 -9s18.667 -12.667 27 -20s16.5 -14 24.5 -20s16.333 -9 25 -9c9.33301 0 16.666 3.83301 21.999 11.5s8.66602 24.167 9.99902 49.5h16
c-1.33301 -30.667 -6.16602 -51.5 -14.499 -62.5s-19.5 -16.5 -33.5 -16.5c-11.333 0 -21.5 3 -30.5 9s-17.5 12.667 -25.5 20s-16.167 14 -24.5 20s-17.833 9 -28.5 9c-12 0 -21.333 -5.33301 -28 -16s-9.66699 -25.667 -9 -45h-16zM109.003 674l221 -360l85.5 -140
l83.5 -138h2c-0.666992 53.333 -1 106 -1 158v159v321h21v-674h-23l-219 355l-87 143l-86 143h-2c0.666992 -53.333 1 -106.333 1 -159v-161v-321h-21v674h25z" />
    <glyph glyph-name="Ograve" unicode="&#xd2;" horiz-adv-x="613" 
d="M587 344c0 -58 -7.66797 -109.167 -23.001 -153.5s-36 -81.333 -62 -111s-56.167 -52.167 -90.5 -67.5s-70.833 -23 -109.5 -23c-39.333 0 -75.833 8.16699 -109.5 24.5s-62.834 39.5 -87.501 69.5s-44 66 -58 108s-21 88.667 -21 140c0 53.333 7.33301 101.833 22 145.5
s34.834 81 60.501 112s55.834 54.833 90.501 71.5s72 25 112 25c41.333 0 79 -8.33301 113 -25s63 -40 87 -70s42.667 -66 56 -108s20 -88 20 -138zM563.999 343c0 46.667 -6.00098 89.667 -18.001 129s-29.167 73.5 -51.5 102.5s-49 51.667 -80 68s-65.5 24.5 -103.5 24.5
s-73 -8.16699 -105 -24.5s-59.667 -39.333 -83 -69s-41.5 -65 -54.5 -106s-19.5 -86.5 -19.5 -136.5c0 -47.333 6.33301 -90.833 19 -130.5s30.167 -73.834 52.5 -102.501s49 -51 80 -67s65.167 -24 102.5 -24c36.667 0 70.834 7.5 102.501 22.5s59.167 36.833 82.5 65.5
s41.833 63.834 55.5 105.501s20.5 89.167 20.5 142.5zM267.998 825l99 -115h-17l-123 115h41z" />
    <glyph glyph-name="Oacute" unicode="&#xd3;" horiz-adv-x="613" 
d="M587 344c0 -58 -7.66797 -109.167 -23.001 -153.5s-36 -81.333 -62 -111s-56.167 -52.167 -90.5 -67.5s-70.833 -23 -109.5 -23c-39.333 0 -75.833 8.16699 -109.5 24.5s-62.834 39.5 -87.501 69.5s-44 66 -58 108s-21 88.667 -21 140c0 53.333 7.33301 101.833 22 145.5
s34.834 81 60.501 112s55.834 54.833 90.501 71.5s72 25 112 25c41.333 0 79 -8.33301 113 -25s63 -40 87 -70s42.667 -66 56 -108s20 -88 20 -138zM563.999 343c0 46.667 -6.00098 89.667 -18.001 129s-29.167 73.5 -51.5 102.5s-49 51.667 -80 68s-65.5 24.5 -103.5 24.5
s-73 -8.16699 -105 -24.5s-59.667 -39.333 -83 -69s-41.5 -65 -54.5 -106s-19.5 -86.5 -19.5 -136.5c0 -47.333 6.33301 -90.833 19 -130.5s30.167 -73.834 52.5 -102.501s49 -51 80 -67s65.167 -24 102.5 -24c36.667 0 70.834 7.5 102.501 22.5s59.167 36.833 82.5 65.5
s41.833 63.834 55.5 105.501s20.5 89.167 20.5 142.5zM432.998 825l-122 -115h-18l99 115h41z" />
    <glyph glyph-name="Ocircumflex" unicode="&#xd4;" horiz-adv-x="613" 
d="M334 821l92 -111h-20l-86 92h-2l-85 -92h-20l91 111h30zM587 344c0 -58 -7.66797 -109.167 -23.001 -153.5s-36 -81.333 -62 -111s-56.167 -52.167 -90.5 -67.5s-70.833 -23 -109.5 -23c-39.333 0 -75.833 8.16699 -109.5 24.5s-62.834 39.5 -87.501 69.5s-44 66 -58 108
s-21 88.667 -21 140c0 53.333 7.33301 101.833 22 145.5s34.834 81 60.501 112s55.834 54.833 90.501 71.5s72 25 112 25c41.333 0 79 -8.33301 113 -25s63 -40 87 -70s42.667 -66 56 -108s20 -88 20 -138zM563.999 343c0 46.667 -6.00098 89.667 -18.001 129
s-29.167 73.5 -51.5 102.5s-49 51.667 -80 68s-65.5 24.5 -103.5 24.5s-73 -8.16699 -105 -24.5s-59.667 -39.333 -83 -69s-41.5 -65 -54.5 -106s-19.5 -86.5 -19.5 -136.5c0 -47.333 6.33301 -90.833 19 -130.5s30.167 -73.834 52.5 -102.501s49 -51 80 -67
s65.167 -24 102.5 -24c36.667 0 70.834 7.5 102.501 22.5s59.167 36.833 82.5 65.5s41.833 63.834 55.5 105.501s20.5 89.167 20.5 142.5z" />
    <glyph glyph-name="Otilde" unicode="&#xd5;" horiz-adv-x="613" 
d="M215 718c-0.666992 24 3.66895 43.167 13.002 57.5s22.666 21.5 39.999 21.5c12 0 22.833 -3 32.5 -9s18.667 -12.667 27 -20s16.5 -14 24.5 -20s16.333 -9 25 -9c9.33301 0 16.666 3.83301 21.999 11.5s8.66602 24.167 9.99902 49.5h16
c-1.33301 -30.667 -6.16602 -51.5 -14.499 -62.5s-19.5 -16.5 -33.5 -16.5c-11.333 0 -21.5 3 -30.5 9s-17.5 12.667 -25.5 20s-16.167 14 -24.5 20s-17.833 9 -28.5 9c-12 0 -21.333 -5.33301 -28 -16s-9.66699 -25.667 -9 -45h-16zM587.003 344
c0 -58 -7.66797 -109.167 -23.001 -153.5s-36 -81.333 -62 -111s-56.167 -52.167 -90.5 -67.5s-70.833 -23 -109.5 -23c-39.333 0 -75.833 8.16699 -109.5 24.5s-62.834 39.5 -87.501 69.5s-44 66 -58 108s-21 88.667 -21 140c0 53.333 7.33301 101.833 22 145.5
s34.834 81 60.501 112s55.834 54.833 90.501 71.5s72 25 112 25c41.333 0 79 -8.33301 113 -25s63 -40 87 -70s42.667 -66 56 -108s20 -88 20 -138zM564.002 343c0 46.667 -6.00098 89.667 -18.001 129s-29.167 73.5 -51.5 102.5s-49 51.667 -80 68s-65.5 24.5 -103.5 24.5
s-73 -8.16699 -105 -24.5s-59.667 -39.333 -83 -69s-41.5 -65 -54.5 -106s-19.5 -86.5 -19.5 -136.5c0 -47.333 6.33301 -90.833 19 -130.5s30.167 -73.834 52.5 -102.501s49 -51 80 -67s65.167 -24 102.5 -24c36.667 0 70.834 7.5 102.501 22.5s59.167 36.833 82.5 65.5
s41.833 63.834 55.5 105.501s20.5 89.167 20.5 142.5z" />
    <glyph glyph-name="Odieresis" unicode="&#xd6;" horiz-adv-x="613" 
d="M242 730c-6.66699 0 -12 2.16699 -16 6.5s-6 9.83301 -6 16.5s2.16699 12 6.5 16s9.5 6 15.5 6c14.667 0 22 -7.33301 22 -22c0 -6.66699 -2 -12.167 -6 -16.5s-9.33301 -6.5 -16 -6.5zM396 730c-6.66699 0 -12 2.16699 -16 6.5s-6 9.83301 -6 16.5s2.16699 12 6.5 16
s9.5 6 15.5 6c14.667 0 22 -7.33301 22 -22c0 -6.66699 -2 -12.167 -6 -16.5s-9.33301 -6.5 -16 -6.5zM587 344c0 -58 -7.66797 -109.167 -23.001 -153.5s-36 -81.333 -62 -111s-56.167 -52.167 -90.5 -67.5s-70.833 -23 -109.5 -23c-39.333 0 -75.833 8.16699 -109.5 24.5
s-62.834 39.5 -87.501 69.5s-44 66 -58 108s-21 88.667 -21 140c0 53.333 7.33301 101.833 22 145.5s34.834 81 60.501 112s55.834 54.833 90.501 71.5s72 25 112 25c41.333 0 79 -8.33301 113 -25s63 -40 87 -70s42.667 -66 56 -108s20 -88 20 -138zM563.999 343
c0 46.667 -6.00098 89.667 -18.001 129s-29.167 73.5 -51.5 102.5s-49 51.667 -80 68s-65.5 24.5 -103.5 24.5s-73 -8.16699 -105 -24.5s-59.667 -39.333 -83 -69s-41.5 -65 -54.5 -106s-19.5 -86.5 -19.5 -136.5c0 -47.333 6.33301 -90.833 19 -130.5
s30.167 -73.834 52.5 -102.501s49 -51 80 -67s65.167 -24 102.5 -24c36.667 0 70.834 7.5 102.501 22.5s59.167 36.833 82.5 65.5s41.833 63.834 55.5 105.501s20.5 89.167 20.5 142.5z" />
    <glyph glyph-name="multiply" unicode="&#xd7;" horiz-adv-x="555" 
d="M278 278l214 219l14 -14l-215 -219l215 -219l-14 -13l-214 218l-214 -218l-14 13l214 219l-214 219l14 14z" />
    <glyph glyph-name="Oslash" unicode="&#xd8;" horiz-adv-x="613" 
d="M498 595c24.667 -30 43.6709 -66.332 57.0039 -108.999s20 -90 20 -142c0 -58 -7.16699 -109.167 -21.5 -153.5s-34 -81.333 -59 -111s-54 -52.167 -87 -67.5s-68.167 -23 -105.5 -23c-34.667 0 -66.834 6.66699 -96.501 20s-55.834 32.666 -78.501 57.999l-65 -93
l-14 10l67 96c-24 30 -42.833 66.333 -56.5 109s-20.5 90 -20.5 142c0 53.333 7 101.833 21 145.5s33.167 81 57.5 112s53.166 54.833 86.499 71.5s69.333 25 108 25c35.333 0 67.666 -6.66699 96.999 -20s55.333 -32 78 -56l63 90l15 -10zM552.004 343.001
c0 47.333 -5.66895 90.832 -17.002 130.499s-27.666 74.167 -48.999 103.5l-348 -493c21.333 -24.667 46 -43.667 74 -57s58.333 -20 91 -20c34.667 0 67.167 7.5 97.5 22.5s56.833 36.833 79.5 65.5s40.334 63.834 53.001 105.501s19 89.167 19 142.5zM61.002 331
c0 -47.333 5.66602 -90.832 16.999 -130.499s27.666 -73.834 48.999 -102.501l347 494c-20.667 24 -44.667 42.5 -72 55.5s-57.666 19.5 -90.999 19.5c-36 0 -69.333 -8.16699 -100 -24.5s-57.167 -39.333 -79.5 -69s-39.666 -65 -51.999 -106s-18.5 -86.5 -18.5 -136.5z
" />
    <glyph glyph-name="Ugrave" unicode="&#xd9;" horiz-adv-x="591" 
d="M105 674v-403.002c0 -47.333 4.83301 -87.666 14.5 -120.999s22.834 -60.5 39.501 -81.5s36.167 -36.333 58.5 -46s46.166 -14.5 71.499 -14.5c27.333 0 53 5 77 15s44.833 25.833 62.5 47.5s31.667 49.334 42 83.001s15.5 74.167 15.5 121.5v399h21v-399
c0 -50.667 -5.66699 -94 -17 -130s-27 -65.5 -47 -88.5s-43.167 -40 -69.5 -51s-54.5 -16.5 -84.5 -16.5c-28 0 -54.5 5.16699 -79.5 15.5s-46.667 26.666 -65 48.999s-33 51.333 -44 87s-16.5 78.834 -16.5 129.501v404h21zM238 824.998l99 -115h-17l-123 115h41z" />
    <glyph glyph-name="Uacute" unicode="&#xda;" horiz-adv-x="591" 
d="M105 674v-403.002c0 -47.333 4.83301 -87.666 14.5 -120.999s22.834 -60.5 39.501 -81.5s36.167 -36.333 58.5 -46s46.166 -14.5 71.499 -14.5c27.333 0 53 5 77 15s44.833 25.833 62.5 47.5s31.667 49.334 42 83.001s15.5 74.167 15.5 121.5v399h21v-399
c0 -50.667 -5.66699 -94 -17 -130s-27 -65.5 -47 -88.5s-43.167 -40 -69.5 -51s-54.5 -16.5 -84.5 -16.5c-28 0 -54.5 5.16699 -79.5 15.5s-46.667 26.666 -65 48.999s-33 51.333 -44 87s-16.5 78.834 -16.5 129.501v404h21zM413 824.998l-122 -115h-18l99 115h41z" />
    <glyph glyph-name="Ucircumflex" unicode="&#xdb;" horiz-adv-x="591" 
d="M310 821l92 -111h-20l-86 92h-2l-85 -92h-20l91 111h30zM105 674v-403.002c0 -47.333 4.83301 -87.666 14.5 -120.999s22.834 -60.5 39.501 -81.5s36.167 -36.333 58.5 -46s46.166 -14.5 71.499 -14.5c27.333 0 53 5 77 15s44.833 25.833 62.5 47.5
s31.667 49.334 42 83.001s15.5 74.167 15.5 121.5v399h21v-399c0 -50.667 -5.66699 -94 -17 -130s-27 -65.5 -47 -88.5s-43.167 -40 -69.5 -51s-54.5 -16.5 -84.5 -16.5c-28 0 -54.5 5.16699 -79.5 15.5s-46.667 26.666 -65 48.999s-33 51.333 -44 87
s-16.5 78.834 -16.5 129.501v404h21z" />
    <glyph glyph-name="Udieresis" unicode="&#xdc;" horiz-adv-x="591" 
d="M219 730c-6.66699 0 -12 2.16699 -16 6.5s-6 9.83301 -6 16.5s2.16699 12 6.5 16s9.5 6 15.5 6c14.667 0 22 -7.33301 22 -22c0 -6.66699 -2 -12.167 -6 -16.5s-9.33301 -6.5 -16 -6.5zM373 730c-6.66699 0 -12 2.16699 -16 6.5s-6 9.83301 -6 16.5s2.16699 12 6.5 16
s9.5 6 15.5 6c14.667 0 22 -7.33301 22 -22c0 -6.66699 -2 -12.167 -6 -16.5s-9.33301 -6.5 -16 -6.5zM105 674v-403.002c0 -47.333 4.83301 -87.666 14.5 -120.999s22.834 -60.5 39.501 -81.5s36.167 -36.333 58.5 -46s46.166 -14.5 71.499 -14.5c27.333 0 53 5 77 15
s44.833 25.833 62.5 47.5s31.667 49.334 42 83.001s15.5 74.167 15.5 121.5v399h21v-399c0 -50.667 -5.66699 -94 -17 -130s-27 -65.5 -47 -88.5s-43.167 -40 -69.5 -51s-54.5 -16.5 -84.5 -16.5c-28 0 -54.5 5.16699 -79.5 15.5s-46.667 26.666 -65 48.999
s-33 51.333 -44 87s-16.5 78.834 -16.5 129.501v404h21z" />
    <glyph glyph-name="Yacute" unicode="&#xdd;" horiz-adv-x="466" 
d="M458 674l-214 -369v-305h-21v305l-210 369h25l107 -189l44.5 -81l43.5 -80h2c13.333 27.333 27.833 54 43.5 80l46.5 81l108 189h25zM353 825l-122 -115h-18l99 115h41z" />
    <glyph glyph-name="Thorn" unicode="&#xde;" horiz-adv-x="471" 
d="M84 674h21v-155c13.333 2 27.666 3.66699 42.999 5s31 2 47 2c30.667 0 60 -3 88 -9s52.667 -15.5 74 -28.5s38.333 -29.667 51 -50s19 -44.833 19 -73.5c0 -30.667 -6.16699 -57.667 -18.5 -81s-29.666 -43 -51.999 -59s-49 -28 -80 -36s-64.833 -12 -101.5 -12
c-12 0 -24.167 0.333008 -36.5 1s-23.5 1.66699 -33.5 3v-181h-21v674zM105 199c10.667 -2 22.1699 -3.16602 34.5029 -3.49902s24.166 -0.5 35.499 -0.5c34 0 65.167 3.66699 93.5 11s52.666 18.166 72.999 32.499s36.166 32 47.499 53s17 45.167 17 72.5
c0 26 -5.66699 48 -17 66s-26.666 32.833 -45.999 44.5s-41.833 20.167 -67.5 25.5s-52.834 8 -81.501 8c-16 0 -31.5 -0.833008 -46.5 -2.5s-29.167 -3.16699 -42.5 -4.5v-302z" />
    <glyph glyph-name="germandbls" unicode="&#xdf;" horiz-adv-x="481" 
d="M80 0v455.003c0 36.667 3 71.167 9 103.5s16 60.5 30 84.5s32.5 42.833 55.5 56.5s51.5 20.5 85.5 20.5c18.667 0 36.667 -3.33301 54 -10s32.5 -16.667 45.5 -30s23.333 -29.833 31 -49.5s11.5 -42.5 11.5 -68.5c0 -22 -2.5 -41.333 -7.5 -58s-10.5 -29 -16.5 -37
c-22 -8.66699 -39.333 -19 -52 -31s-19 -27.667 -19 -47c0 -11.333 2.83301 -22 8.5 -32s12.667 -20.167 21 -30.5s17.5 -20.833 27.5 -31.5s19.667 -22.334 29 -35.001c12 -17.333 22.833 -35.333 32.5 -54s14.5 -40.334 14.5 -65.001
c0 -22.667 -3.33301 -43.334 -10 -62.001s-16.334 -34.834 -29.001 -48.501s-27.667 -24.167 -45 -31.5s-36.666 -11 -57.999 -11c-31.333 0 -57.666 7 -78.999 21l6 18c9.33301 -6.66699 20.5 -12 33.5 -16s26.167 -6 39.5 -6c36 0 65 12.5 87 37.5s33 56.833 33 95.5
c0 26 -5.16699 48.667 -15.5 68s-22.833 38 -37.5 56c-8.66699 10.667 -17.667 21 -27 31s-18 20 -26 30s-14.5 20.333 -19.5 31s-7.5 22 -7.5 34c0 22 7 40 21 54s33 26.333 57 37c5.33301 7.33301 9.83301 18 13.5 32s5.5 30.667 5.5 50
c0 23.333 -3.33301 43.833 -10 61.5s-15.667 32.5 -27 44.5s-24.333 21 -39 27s-30.334 9 -47.001 9c-29.333 0 -54 -6.33301 -74 -19s-36.333 -30 -49 -52s-21.667 -48.167 -27 -78.5s-8 -63.166 -8 -98.499v-455h-21z" />
    <glyph glyph-name="agrave" unicode="&#xe0;" horiz-adv-x="417" 
d="M331 0c-1.33301 11.333 -2.33398 24.333 -3.00098 39s-1 29.667 -1 45h-3c-15.333 -25.333 -35.666 -47.5 -60.999 -66.5s-57 -28.5 -95 -28.5c-21.333 0 -40.5 3.33301 -57.5 10s-31.5 15.834 -43.5 27.501s-21.333 25.167 -28 40.5s-10 32 -10 50
c0 26.667 6.66699 50.334 20 71.001s32.833 38.167 58.5 52.5s56.667 25.333 93 33s77.5 11.5 123.5 11.5v13c0 20.667 -1.66699 41.667 -5 63s-9.83301 40.5 -19.5 57.5s-22.834 30.833 -39.501 41.5s-38.334 16 -65.001 16c-19.333 0 -39.833 -3.16699 -61.5 -9.5
s-40.167 -15.5 -55.5 -27.5l-7 17c15.333 11.333 34.833 20.333 58.5 27s45.834 10 66.501 10c30.667 0 55.5 -5.66699 74.5 -17s34 -26.333 45 -45s18.5 -39.834 22.5 -63.501s6 -47.5 6 -71.5v-127c0 -13.333 0.166992 -28.833 0.5 -46.5s0.833008 -34.834 1.5 -51.501
s1.33398 -31.5 2.00098 -44.5s1.66699 -21.833 3 -26.5h-20zM323.999 268c-41.333 0 -78.832 -3.16699 -112.499 -9.5s-62.334 -15.833 -86.001 -28.5s-42 -28.167 -55 -46.5s-19.5 -39.833 -19.5 -64.5c0 -18 3.16699 -34 9.5 -48s14.833 -25.833 25.5 -35.5
s23.334 -17 38.001 -22s30 -7.5 46 -7.5c28 0 53.167 6.83301 75.5 20.5s42.166 32.834 59.499 57.501c8.66699 12 14 25.167 16 39.5s3 32.166 3 53.499v91zM139 686l93 -136h-16l-113 136h36z" />
    <glyph glyph-name="aacute" unicode="&#xe1;" horiz-adv-x="417" 
d="M331 0c-1.33301 11.333 -2.33398 24.333 -3.00098 39s-1 29.667 -1 45h-3c-15.333 -25.333 -35.666 -47.5 -60.999 -66.5s-57 -28.5 -95 -28.5c-21.333 0 -40.5 3.33301 -57.5 10s-31.5 15.834 -43.5 27.501s-21.333 25.167 -28 40.5s-10 32 -10 50
c0 26.667 6.66699 50.334 20 71.001s32.833 38.167 58.5 52.5s56.667 25.333 93 33s77.5 11.5 123.5 11.5v13c0 20.667 -1.66699 41.667 -5 63s-9.83301 40.5 -19.5 57.5s-22.834 30.833 -39.501 41.5s-38.334 16 -65.001 16c-19.333 0 -39.833 -3.16699 -61.5 -9.5
s-40.167 -15.5 -55.5 -27.5l-7 17c15.333 11.333 34.833 20.333 58.5 27s45.834 10 66.501 10c30.667 0 55.5 -5.66699 74.5 -17s34 -26.333 45 -45s18.5 -39.834 22.5 -63.501s6 -47.5 6 -71.5v-127c0 -13.333 0.166992 -28.833 0.5 -46.5s0.833008 -34.834 1.5 -51.501
s1.33398 -31.5 2.00098 -44.5s1.66699 -21.833 3 -26.5h-20zM323.999 268c-41.333 0 -78.832 -3.16699 -112.499 -9.5s-62.334 -15.833 -86.001 -28.5s-42 -28.167 -55 -46.5s-19.5 -39.833 -19.5 -64.5c0 -18 3.16699 -34 9.5 -48s14.833 -25.833 25.5 -35.5
s23.334 -17 38.001 -22s30 -7.5 46 -7.5c28 0 53.167 6.83301 75.5 20.5s42.166 32.834 59.499 57.501c8.66699 12 14 25.167 16 39.5s3 32.166 3 53.499v91zM319 686l-113 -136h-16l93 136h36z" />
    <glyph glyph-name="acircumflex" unicode="&#xe2;" horiz-adv-x="417" 
d="M331 0c-1.33301 11.333 -2.33398 24.333 -3.00098 39s-1 29.667 -1 45h-3c-15.333 -25.333 -35.666 -47.5 -60.999 -66.5s-57 -28.5 -95 -28.5c-21.333 0 -40.5 3.33301 -57.5 10s-31.5 15.834 -43.5 27.501s-21.333 25.167 -28 40.5s-10 32 -10 50
c0 26.667 6.66699 50.334 20 71.001s32.833 38.167 58.5 52.5s56.667 25.333 93 33s77.5 11.5 123.5 11.5v13c0 20.667 -1.66699 41.667 -5 63s-9.83301 40.5 -19.5 57.5s-22.834 30.833 -39.501 41.5s-38.334 16 -65.001 16c-19.333 0 -39.833 -3.16699 -61.5 -9.5
s-40.167 -15.5 -55.5 -27.5l-7 17c15.333 11.333 34.833 20.333 58.5 27s45.834 10 66.501 10c30.667 0 55.5 -5.66699 74.5 -17s34 -26.333 45 -45s18.5 -39.834 22.5 -63.501s6 -47.5 6 -71.5v-127c0 -13.333 0.166992 -28.833 0.5 -46.5s0.833008 -34.834 1.5 -51.501
s1.33398 -31.5 2.00098 -44.5s1.66699 -21.833 3 -26.5h-20zM323.999 268c-41.333 0 -78.832 -3.16699 -112.499 -9.5s-62.334 -15.833 -86.001 -28.5s-42 -28.167 -55 -46.5s-19.5 -39.833 -19.5 -64.5c0 -18 3.16699 -34 9.5 -48s14.833 -25.833 25.5 -35.5
s23.334 -17 38.001 -22s30 -7.5 46 -7.5c28 0 53.167 6.83301 75.5 20.5s42.166 32.834 59.499 57.501c8.66699 12 14 25.167 16 39.5s3 32.166 3 53.499v91zM218 681l92 -131h-20l-85 112h-2l-84 -112h-19l89 131h29z" />
    <glyph glyph-name="atilde" unicode="&#xe3;" horiz-adv-x="417" 
d="M331 0c-1.33301 11.333 -2.33398 24.333 -3.00098 39s-1 29.667 -1 45h-3c-15.333 -25.333 -35.666 -47.5 -60.999 -66.5s-57 -28.5 -95 -28.5c-21.333 0 -40.5 3.33301 -57.5 10s-31.5 15.834 -43.5 27.501s-21.333 25.167 -28 40.5s-10 32 -10 50
c0 26.667 6.66699 50.334 20 71.001s32.833 38.167 58.5 52.5s56.667 25.333 93 33s77.5 11.5 123.5 11.5v13c0 20.667 -1.66699 41.667 -5 63s-9.83301 40.5 -19.5 57.5s-22.834 30.833 -39.501 41.5s-38.334 16 -65.001 16c-19.333 0 -39.833 -3.16699 -61.5 -9.5
s-40.167 -15.5 -55.5 -27.5l-7 17c15.333 11.333 34.833 20.333 58.5 27s45.834 10 66.501 10c30.667 0 55.5 -5.66699 74.5 -17s34 -26.333 45 -45s18.5 -39.834 22.5 -63.501s6 -47.5 6 -71.5v-127c0 -13.333 0.166992 -28.833 0.5 -46.5s0.833008 -34.834 1.5 -51.501
s1.33398 -31.5 2.00098 -44.5s1.66699 -21.833 3 -26.5h-20zM323.999 268c-41.333 0 -78.832 -3.16699 -112.499 -9.5s-62.334 -15.833 -86.001 -28.5s-42 -28.167 -55 -46.5s-19.5 -39.833 -19.5 -64.5c0 -18 3.16699 -34 9.5 -48s14.833 -25.833 25.5 -35.5
s23.334 -17 38.001 -22s30 -7.5 46 -7.5c28 0 53.167 6.83301 75.5 20.5s42.166 32.834 59.499 57.501c8.66699 12 14 25.167 16 39.5s3 32.166 3 53.499v91zM100 568c-0.666992 24 3.66895 43.167 13.002 57.5s22.666 21.5 39.999 21.5c12 0 22.833 -3 32.5 -9
s18.667 -12.667 27 -20s16.5 -14 24.5 -20s16.333 -9 25 -9c9.33301 0 16.666 3.83301 21.999 11.5s8.66602 24.167 9.99902 49.5h16c-1.33301 -30.667 -6.16602 -51.5 -14.499 -62.5s-19.5 -16.5 -33.5 -16.5c-11.333 0 -21.5 3 -30.5 9s-17.5 12.667 -25.5 20
s-16.167 14 -24.5 20s-17.833 9 -28.5 9c-12 0 -21.333 -5.33301 -28 -16s-9.66699 -25.667 -9 -45h-16z" />
    <glyph glyph-name="adieresis" unicode="&#xe4;" horiz-adv-x="417" 
d="M331 0c-1.33301 11.333 -2.33398 24.333 -3.00098 39s-1 29.667 -1 45h-3c-15.333 -25.333 -35.666 -47.5 -60.999 -66.5s-57 -28.5 -95 -28.5c-21.333 0 -40.5 3.33301 -57.5 10s-31.5 15.834 -43.5 27.501s-21.333 25.167 -28 40.5s-10 32 -10 50
c0 26.667 6.66699 50.334 20 71.001s32.833 38.167 58.5 52.5s56.667 25.333 93 33s77.5 11.5 123.5 11.5v13c0 20.667 -1.66699 41.667 -5 63s-9.83301 40.5 -19.5 57.5s-22.834 30.833 -39.501 41.5s-38.334 16 -65.001 16c-19.333 0 -39.833 -3.16699 -61.5 -9.5
s-40.167 -15.5 -55.5 -27.5l-7 17c15.333 11.333 34.833 20.333 58.5 27s45.834 10 66.501 10c30.667 0 55.5 -5.66699 74.5 -17s34 -26.333 45 -45s18.5 -39.834 22.5 -63.501s6 -47.5 6 -71.5v-127c0 -13.333 0.166992 -28.833 0.5 -46.5s0.833008 -34.834 1.5 -51.501
s1.33398 -31.5 2.00098 -44.5s1.66699 -21.833 3 -26.5h-20zM323.999 268c-41.333 0 -78.832 -3.16699 -112.499 -9.5s-62.334 -15.833 -86.001 -28.5s-42 -28.167 -55 -46.5s-19.5 -39.833 -19.5 -64.5c0 -18 3.16699 -34 9.5 -48s14.833 -25.833 25.5 -35.5
s23.334 -17 38.001 -22s30 -7.5 46 -7.5c28 0 53.167 6.83301 75.5 20.5s42.166 32.834 59.499 57.501c8.66699 12 14 25.167 16 39.5s3 32.166 3 53.499v91zM128 584c-6.66699 0 -12 2.33301 -16 7s-6 10 -6 16c0 6.66699 2.16699 12.167 6.5 16.5s9.5 6.5 15.5 6.5
c14.667 0 22 -7.66699 22 -23c0 -6 -2 -11.333 -6 -16s-9.33301 -7 -16 -7zM281 584c-6.66699 0 -12 2.33301 -16 7s-6 10 -6 16c0 6.66699 2.16699 12.167 6.5 16.5s9.5 6.5 15.5 6.5c14.667 0 22 -7.66699 22 -23c0 -6 -2 -11.333 -6 -16s-9.33301 -7 -16 -7z" />
    <glyph glyph-name="aring" unicode="&#xe5;" horiz-adv-x="417" 
d="M331 0c-1.33301 11.333 -2.33398 24.333 -3.00098 39s-1 29.667 -1 45h-3c-15.333 -25.333 -35.666 -47.5 -60.999 -66.5s-57 -28.5 -95 -28.5c-21.333 0 -40.5 3.33301 -57.5 10s-31.5 15.834 -43.5 27.501s-21.333 25.167 -28 40.5s-10 32 -10 50
c0 26.667 6.66699 50.334 20 71.001s32.833 38.167 58.5 52.5s56.667 25.333 93 33s77.5 11.5 123.5 11.5v13c0 20.667 -1.66699 41.667 -5 63s-9.83301 40.5 -19.5 57.5s-22.834 30.833 -39.501 41.5s-38.334 16 -65.001 16c-19.333 0 -39.833 -3.16699 -61.5 -9.5
s-40.167 -15.5 -55.5 -27.5l-7 17c15.333 11.333 34.833 20.333 58.5 27s45.834 10 66.501 10c30.667 0 55.5 -5.66699 74.5 -17s34 -26.333 45 -45s18.5 -39.834 22.5 -63.501s6 -47.5 6 -71.5v-127c0 -13.333 0.166992 -28.833 0.5 -46.5s0.833008 -34.834 1.5 -51.501
s1.33398 -31.5 2.00098 -44.5s1.66699 -21.833 3 -26.5h-20zM323.999 268c-41.333 0 -78.832 -3.16699 -112.499 -9.5s-62.334 -15.833 -86.001 -28.5s-42 -28.167 -55 -46.5s-19.5 -39.833 -19.5 -64.5c0 -18 3.16699 -34 9.5 -48s14.833 -25.833 25.5 -35.5
s23.334 -17 38.001 -22s30 -7.5 46 -7.5c28 0 53.167 6.83301 75.5 20.5s42.166 32.834 59.499 57.501c8.66699 12 14 25.167 16 39.5s3 32.166 3 53.499v91zM206 535c-25.333 0 -46.333 7.50098 -63 22.501s-25 34.5 -25 58.5c0 25.333 7.83301 45.666 23.5 60.999
s37.5 23 65.5 23c24 0 44.167 -7.5 60.5 -22.5s24.5 -35.167 24.5 -60.5c0 -24.667 -8.5 -44.5 -25.5 -59.5s-37.167 -22.5 -60.5 -22.5zM206 551.001c19.333 0 35.332 6 47.999 18s19 28 19 48c0 20.667 -6.16699 37 -18.5 49s-28.166 18 -47.499 18
c-21.333 0 -38.333 -6.16699 -51 -18.5s-19 -28.833 -19 -49.5c0 -19.333 6.5 -35 19.5 -47s29.5 -18 49.5 -18z" />
    <glyph glyph-name="ae" unicode="&#xe6;" horiz-adv-x="697" 
d="M323 260h-32c-76.667 0 -135 -12.333 -175 -37s-60 -61 -60 -109c0 -33.333 10.667 -59.5 32 -78.5s48 -28.5 80 -28.5c19.333 0 38.333 4.16699 57 12.5s35.167 20.5 49.5 36.5s26 36.167 35 60.5s13.5 52.5 13.5 84.5v59zM635 276
c0.666992 3.33301 0.999023 5.83105 0.999023 7.49805v7.5c0 26.667 -3 51.334 -9 74.001s-15 42.334 -27 59.001s-26.833 29.667 -44.5 39s-38.167 14 -61.5 14c-25.333 0 -47.5 -5 -66.5 -15s-34.667 -23.5 -47 -40.5s-21.666 -36.667 -27.999 -59s-9.5 -45.5 -9.5 -69.5
v-17h292zM656.999 288.998c0 -6.66699 -0.163086 -12.002 -0.496094 -16.002s-0.833008 -8.33301 -1.5 -13h-312v-41c0 -39.333 5 -72.666 15 -99.999s22.833 -49.333 38.5 -66s33.334 -28.667 53.001 -36s39.167 -11 58.5 -11c27.333 0 51.5 3.5 72.5 10.5
s37.167 13.833 48.5 20.5l5 -17c-13.333 -7.33301 -31 -14.333 -53 -21s-46.333 -10 -73 -10c-18.667 0 -37.334 2.83301 -56.001 8.5s-35.834 14.5 -51.501 26.5s-29.334 27 -41.001 45s-19.834 39.333 -24.501 64h-2c-12 -48 -33.5 -83.833 -64.5 -107.5
s-65.167 -35.5 -102.5 -35.5c-40 0 -72 11 -96 33s-36 52 -36 90c0 53.333 22 93.833 66 121.5s108 41.5 192 41.5h31v23c0 34 -3.5 62.333 -10.5 85s-16.5 40.834 -28.5 54.501s-25.833 23.5 -41.5 29.5s-31.834 9 -48.501 9c-21.333 0 -42.5 -3.83301 -63.5 -11.5
s-39.5 -18.167 -55.5 -31.5l-7 17h1c17.333 13.333 36.666 23.833 57.999 31.5s43.666 11.5 66.999 11.5c35.333 0 65.833 -9.83301 91.5 -29.5s42.167 -53.167 49.5 -100.5h2c10.667 46.667 30.834 80 60.501 100s62.834 30 99.501 30c26.667 0 50 -5.5 70 -16.5
s36.667 -25.667 50 -44s23.333 -40 30 -65s10 -51.5 10 -79.5z" />
    <glyph glyph-name="ccedilla" unicode="&#xe7;" horiz-adv-x="384" 
d="M346 451c-7.33301 5.33301 -18.502 10.833 -33.502 16.5s-32.833 8.5 -53.5 8.5c-29.333 0 -56.166 -5.83301 -80.499 -17.5s-45 -28.167 -62 -49.5s-30.167 -46.666 -39.5 -75.999s-14 -61.333 -14 -96c0 -35.333 4.5 -67.166 13.5 -95.499s21.667 -52.5 38 -72.5
s35.833 -35.333 58.5 -46s48 -16 76 -16c21.333 0 40.666 3.16699 57.999 9.5s30.333 12.5 39 18.5l5 -17c-8.66699 -5.33301 -21.834 -11.166 -39.501 -17.499s-38.167 -9.83301 -61.5 -10.5l-32 -54c19.333 -1.33301 36.5 -7.33301 51.5 -18s22.5 -26.334 22.5 -47.001
c0 -11.333 -2.16699 -21 -6.5 -29s-10 -14.5 -17 -19.5s-14.833 -8.66699 -23.5 -11s-17.334 -3.5 -26.001 -3.5c-12 0 -23.167 1.66699 -33.5 5s-18.833 7.66602 -25.5 12.999l6 16c13.333 -11.333 31 -17 53 -17c12.667 0 24.834 3.33301 36.501 10s17.5 18.667 17.5 36
c0 10 -2.33301 18.333 -7 25s-10.667 12 -18 16s-15.666 7 -24.999 9s-19 3 -29 3l39 67c-29.333 1.33301 -55.666 8.16602 -78.999 20.499s-43.5 29 -60.5 50s-30 46.333 -39 76s-13.5 62.5 -13.5 98.5c0 38 5.33301 72.833 16 104.5s25.5 58.667 44.5 81
s41.833 39.833 68.5 52.5s56.334 19 89.001 19c22.667 0 42 -2.66699 58 -8s28.333 -11 37 -17z" />
    <glyph glyph-name="egrave" unicode="&#xe8;" horiz-adv-x="451" 
d="M390 20c-13.333 -6 -31.333 -12.4971 -54 -19.4971s-52 -10.5 -88 -10.5c-67.333 0 -119.5 22.333 -156.5 67s-55.5 109 -55.5 193c0 32 4.66699 62.667 14 92s22.833 55.166 40.5 77.499s39 40.166 64 53.499s53.167 20 84.5 20c36 0 65.5 -6.83301 88.5 -20.5
s41 -30.667 54 -51s22 -42.166 27 -65.499s7.5 -44.333 7.5 -63v-22c0 -6.66699 -0.666992 -13.334 -2 -20.001h-356c0 -36 3.83301 -68.833 11.5 -98.5s19.167 -55.334 34.5 -77.001s35 -38.5 59 -50.5s52.667 -18 86 -18s61 3.16699 83 9.5s40 12.833 54 19.5z
M395 268.003c0.666992 4 0.998047 8.66602 0.998047 13.999v17c0 16.667 -2.33301 35.334 -7 56.001s-13 40 -25 58s-28.167 33 -48.5 45s-46.166 18 -77.499 18c-26 0 -49.667 -5.33301 -71 -16s-39.666 -25.334 -54.999 -44.001s-27.5 -40.667 -36.5 -66
s-14.5 -52.666 -16.5 -81.999h336zM188.998 686.002l93 -136h-16l-113 136h36z" />
    <glyph glyph-name="eacute" unicode="&#xe9;" horiz-adv-x="451" 
d="M390 20c-13.333 -6 -31.333 -12.4971 -54 -19.4971s-52 -10.5 -88 -10.5c-67.333 0 -119.5 22.333 -156.5 67s-55.5 109 -55.5 193c0 32 4.66699 62.667 14 92s22.833 55.166 40.5 77.499s39 40.166 64 53.499s53.167 20 84.5 20c36 0 65.5 -6.83301 88.5 -20.5
s41 -30.667 54 -51s22 -42.166 27 -65.499s7.5 -44.333 7.5 -63v-22c0 -6.66699 -0.666992 -13.334 -2 -20.001h-356c0 -36 3.83301 -68.833 11.5 -98.5s19.167 -55.334 34.5 -77.001s35 -38.5 59 -50.5s52.667 -18 86 -18s61 3.16699 83 9.5s40 12.833 54 19.5z
M395 268.003c0.666992 4 0.998047 8.66602 0.998047 13.999v17c0 16.667 -2.33301 35.334 -7 56.001s-13 40 -25 58s-28.167 33 -48.5 45s-46.166 18 -77.499 18c-26 0 -49.667 -5.33301 -71 -16s-39.666 -25.334 -54.999 -44.001s-27.5 -40.667 -36.5 -66
s-14.5 -52.666 -16.5 -81.999h336zM351.998 686.002l-113 -136h-16l93 136h36z" />
    <glyph glyph-name="ecircumflex" unicode="&#xea;" horiz-adv-x="451" 
d="M260 681l92 -131h-20l-85 112h-2l-84 -112h-19l89 131h29zM390 20c-13.333 -6 -31.333 -12.4971 -54 -19.4971s-52 -10.5 -88 -10.5c-67.333 0 -119.5 22.333 -156.5 67s-55.5 109 -55.5 193c0 32 4.66699 62.667 14 92s22.833 55.166 40.5 77.499s39 40.166 64 53.499
s53.167 20 84.5 20c36 0 65.5 -6.83301 88.5 -20.5s41 -30.667 54 -51s22 -42.166 27 -65.499s7.5 -44.333 7.5 -63v-22c0 -6.66699 -0.666992 -13.334 -2 -20.001h-356c0 -36 3.83301 -68.833 11.5 -98.5s19.167 -55.334 34.5 -77.001s35 -38.5 59 -50.5s52.667 -18 86 -18
s61 3.16699 83 9.5s40 12.833 54 19.5zM395 268.003c0.666992 4 0.998047 8.66602 0.998047 13.999v17c0 16.667 -2.33301 35.334 -7 56.001s-13 40 -25 58s-28.167 33 -48.5 45s-46.166 18 -77.499 18c-26 0 -49.667 -5.33301 -71 -16s-39.666 -25.334 -54.999 -44.001
s-27.5 -40.667 -36.5 -66s-14.5 -52.666 -16.5 -81.999h336z" />
    <glyph glyph-name="edieresis" unicode="&#xeb;" horiz-adv-x="451" 
d="M390 20c-13.333 -6 -31.333 -12.4971 -54 -19.4971s-52 -10.5 -88 -10.5c-67.333 0 -119.5 22.333 -156.5 67s-55.5 109 -55.5 193c0 32 4.66699 62.667 14 92s22.833 55.166 40.5 77.499s39 40.166 64 53.499s53.167 20 84.5 20c36 0 65.5 -6.83301 88.5 -20.5
s41 -30.667 54 -51s22 -42.166 27 -65.499s7.5 -44.333 7.5 -63v-22c0 -6.66699 -0.666992 -13.334 -2 -20.001h-356c0 -36 3.83301 -68.833 11.5 -98.5s19.167 -55.334 34.5 -77.001s35 -38.5 59 -50.5s52.667 -18 86 -18s61 3.16699 83 9.5s40 12.833 54 19.5z
M395 268.003c0.666992 4 0.998047 8.66602 0.998047 13.999v17c0 16.667 -2.33301 35.334 -7 56.001s-13 40 -25 58s-28.167 33 -48.5 45s-46.166 18 -77.499 18c-26 0 -49.667 -5.33301 -71 -16s-39.666 -25.334 -54.999 -44.001s-27.5 -40.667 -36.5 -66
s-14.5 -52.666 -16.5 -81.999h336zM168.998 584.002c-6.66699 0 -12 2.33301 -16 7s-6 10 -6 16c0 6.66699 2.16699 12.167 6.5 16.5s9.5 6.5 15.5 6.5c14.667 0 22 -7.66699 22 -23c0 -6 -2 -11.333 -6 -16s-9.33301 -7 -16 -7zM321.998 584.002
c-6.66699 0 -12 2.33301 -16 7s-6 10 -6 16c0 6.66699 2.16699 12.167 6.5 16.5s9.5 6.5 15.5 6.5c14.667 0 22 -7.66699 22 -23c0 -6 -2 -11.333 -6 -16s-9.33301 -7 -16 -7z" />
    <glyph glyph-name="igrave" unicode="&#xec;" horiz-adv-x="181" 
d="M101 0h-21v483h21v-483zM20 686l93 -136h-16l-113 136h36z" />
    <glyph glyph-name="iacute" unicode="&#xed;" horiz-adv-x="181" 
d="M101 0h-21v483h21v-483zM202 686l-113 -136h-16l93 136h36z" />
    <glyph glyph-name="icircumflex" unicode="&#xee;" horiz-adv-x="181" 
d="M101 0h-21v483h21v-483zM104 681l92 -131h-20l-85 112h-2l-84 -112h-19l89 131h29z" />
    <glyph glyph-name="idieresis" unicode="&#xef;" horiz-adv-x="181" 
d="M101 0h-21v483h21v-483zM14 584c-6.66699 0 -12 2.33301 -16 7s-6 10 -6 16c0 6.66699 2.16699 12.167 6.5 16.5s9.5 6.5 15.5 6.5c14.667 0 22 -7.66699 22 -23c0 -6 -2 -11.333 -6 -16s-9.33301 -7 -16 -7zM167 584c-6.66699 0 -12 2.33301 -16 7s-6 10 -6 16
c0 6.66699 2.16699 12.167 6.5 16.5s9.5 6.5 15.5 6.5c14.667 0 22 -7.66699 22 -23c0 -6 -2 -11.333 -6 -16s-9.33301 -7 -16 -7z" />
    <glyph glyph-name="eth" unicode="&#xf0;" horiz-adv-x="472" 
d="M431 247c0 -44.667 -5.66797 -83.168 -17.001 -115.501s-26.166 -59 -44.499 -80s-39.166 -36.667 -62.499 -47s-47 -15.5 -71 -15.5c-27.333 0 -53 5.66699 -77 17s-44.667 27.833 -62 49.5s-31 47.834 -41 78.501s-15 65.334 -15 104.001s5.33301 73.334 16 104.001
s25 56.667 43 78s39.167 37.666 63.5 48.999s50.5 17 78.5 17c32 0 60.667 -8 86 -24s45.666 -38 60.999 -66l2 1c-15.333 43.333 -35.666 81.833 -60.999 115.5s-53 63.834 -83 90.501l-148 -71l-7 14l142 68c-20.667 17.333 -41.834 33.166 -63.501 47.499
s-43.167 27.166 -64.5 38.499l10 14c24.667 -13.333 48.5 -27.5 71.5 -42.5s44.833 -31.167 65.5 -48.5l114 55l7 -14l-109 -52c50 -44.667 90.167 -96.667 120.5 -156s45.5 -129 45.5 -209zM408.999 244.999c0 32.667 -3.83301 62.832 -11.5 90.499
s-18.834 51.334 -33.501 71.001s-32.167 35 -52.5 46s-43.5 16.5 -69.5 16.5c-25.333 0 -48.833 -5.16699 -70.5 -15.5s-40.5 -25.5 -56.5 -45.5s-28.667 -44.333 -38 -73s-14 -61 -14 -97c0 -35.333 4.33301 -67.333 13 -96s20.834 -53 36.501 -73s34 -35.5 55 -46.5
s43.833 -16.5 68.5 -16.5c21.333 0 42.333 4.83301 63 14.5s39.167 24.167 55.5 43.5s29.5 44 39.5 74s15 65.667 15 107z" />
    <glyph glyph-name="ntilde" unicode="&#xf1;" horiz-adv-x="496" 
d="M148 568c-0.666992 24 3.66895 43.167 13.002 57.5s22.666 21.5 39.999 21.5c12 0 22.833 -3 32.5 -9s18.667 -12.667 27 -20s16.5 -14 24.5 -20s16.333 -9 25 -9c9.33301 0 16.666 3.83301 21.999 11.5s8.66602 24.167 9.99902 49.5h16
c-1.33301 -30.667 -6.16602 -51.5 -14.499 -62.5s-19.5 -16.5 -33.5 -16.5c-11.333 0 -21.5 3 -30.5 9s-17.5 12.667 -25.5 20s-16.167 14 -24.5 20s-17.833 9 -28.5 9c-12 0 -21.333 -5.33301 -28 -16s-9.66699 -25.667 -9 -45h-16zM420.003 0l-21 0.00195312v276
c0 38 -3.66699 69.667 -11 95s-17.5 45.833 -30.5 61.5s-28 26.834 -45 33.501s-34.833 10 -53.5 10c-20 0 -38.333 -3.83301 -55 -11.5s-31.334 -17.334 -44.001 -29.001s-23.167 -24.667 -31.5 -39s-14.5 -28.5 -18.5 -42.5s-6.5 -26.5 -7.5 -37.5s-1.5 -27.5 -1.5 -49.5
v-267h-21v312c0 13.333 -0.166992 27.833 -0.5 43.5l-1 47c-0.333008 15.667 -0.666016 30.5 -0.999023 44.5s-0.833008 26 -1.5 36h19l4 -103h2c16.667 34.667 38 62.167 64 82.5s58 30.5 96 30.5c28 0 52.167 -5.16699 72.5 -15.5s36.833 -24.833 49.5 -43.5
s22 -41.334 28 -68.001s9 -56.334 9 -89.001v-277z" />
    <glyph glyph-name="ograve" unicode="&#xf2;" horiz-adv-x="483" 
d="M452 246c0 -45.333 -6.33496 -84.1699 -19.002 -116.503s-29.167 -59 -49.5 -80s-43.333 -36.333 -69 -46s-51.167 -14.5 -76.5 -14.5c-29.333 0 -56.666 5.66699 -81.999 17s-47.166 27.833 -65.499 49.5s-32.833 47.834 -43.5 78.501s-16 65.334 -16 104.001
c0 40.667 5.66699 76.834 17 108.501s26.666 58.334 45.999 80.001s41.833 38.167 67.5 49.5s53.167 17 82.5 17c30.667 0 58.834 -6 84.501 -18s47.667 -28.667 66 -50s32.5 -47.333 42.5 -78s15 -64.334 15 -101.001zM429.998 245.996c0 33.333 -4.33496 64 -13.002 92
s-21.167 52.333 -37.5 73s-36 36.667 -59 48s-48.5 17 -76.5 17c-27.333 0 -52.666 -5.5 -75.999 -16.5s-43.5 -26.667 -60.5 -47s-30.333 -45.333 -40 -75s-14.5 -62.834 -14.5 -99.501c0 -35.333 4.83301 -67.333 14.5 -96s22.834 -53 39.501 -73s36.5 -35.5 59.5 -46.5
s48.167 -16.5 75.5 -16.5c22.667 0 45.167 4.83301 67.5 14.5s42.5 24.334 60.5 44.001s32.5 44.5 43.5 74.5s16.5 65.667 16.5 107zM197.996 685.996l93 -136h-16l-113 136h36z" />
    <glyph glyph-name="oacute" unicode="&#xf3;" horiz-adv-x="483" 
d="M452 246c0 -45.333 -6.33496 -84.1699 -19.002 -116.503s-29.167 -59 -49.5 -80s-43.333 -36.333 -69 -46s-51.167 -14.5 -76.5 -14.5c-29.333 0 -56.666 5.66699 -81.999 17s-47.166 27.833 -65.499 49.5s-32.833 47.834 -43.5 78.501s-16 65.334 -16 104.001
c0 40.667 5.66699 76.834 17 108.501s26.666 58.334 45.999 80.001s41.833 38.167 67.5 49.5s53.167 17 82.5 17c30.667 0 58.834 -6 84.501 -18s47.667 -28.667 66 -50s32.5 -47.333 42.5 -78s15 -64.334 15 -101.001zM429.998 245.996c0 33.333 -4.33496 64 -13.002 92
s-21.167 52.333 -37.5 73s-36 36.667 -59 48s-48.5 17 -76.5 17c-27.333 0 -52.666 -5.5 -75.999 -16.5s-43.5 -26.667 -60.5 -47s-30.333 -45.333 -40 -75s-14.5 -62.834 -14.5 -99.501c0 -35.333 4.83301 -67.333 14.5 -96s22.834 -53 39.501 -73s36.5 -35.5 59.5 -46.5
s48.167 -16.5 75.5 -16.5c22.667 0 45.167 4.83301 67.5 14.5s42.5 24.334 60.5 44.001s32.5 44.5 43.5 74.5s16.5 65.667 16.5 107zM353.996 685.996l-113 -136h-16l93 136h36z" />
    <glyph glyph-name="ocircumflex" unicode="&#xf4;" horiz-adv-x="483" 
d="M264 681l92 -131h-20l-85 112h-2l-84 -112h-19l89 131h29zM452 246c0 -45.333 -6.33496 -84.1699 -19.002 -116.503s-29.167 -59 -49.5 -80s-43.333 -36.333 -69 -46s-51.167 -14.5 -76.5 -14.5c-29.333 0 -56.666 5.66699 -81.999 17s-47.166 27.833 -65.499 49.5
s-32.833 47.834 -43.5 78.501s-16 65.334 -16 104.001c0 40.667 5.66699 76.834 17 108.501s26.666 58.334 45.999 80.001s41.833 38.167 67.5 49.5s53.167 17 82.5 17c30.667 0 58.834 -6 84.501 -18s47.667 -28.667 66 -50s32.5 -47.333 42.5 -78s15 -64.334 15 -101.001z
M429.998 245.996c0 33.333 -4.33496 64 -13.002 92s-21.167 52.333 -37.5 73s-36 36.667 -59 48s-48.5 17 -76.5 17c-27.333 0 -52.666 -5.5 -75.999 -16.5s-43.5 -26.667 -60.5 -47s-30.333 -45.333 -40 -75s-14.5 -62.834 -14.5 -99.501
c0 -35.333 4.83301 -67.333 14.5 -96s22.834 -53 39.501 -73s36.5 -35.5 59.5 -46.5s48.167 -16.5 75.5 -16.5c22.667 0 45.167 4.83301 67.5 14.5s42.5 24.334 60.5 44.001s32.5 44.5 43.5 74.5s16.5 65.667 16.5 107z" />
    <glyph glyph-name="otilde" unicode="&#xf5;" horiz-adv-x="483" 
d="M147 568c-0.666992 24 3.66895 43.167 13.002 57.5s22.666 21.5 39.999 21.5c12 0 22.833 -3 32.5 -9s18.667 -12.667 27 -20s16.5 -14 24.5 -20s16.333 -9 25 -9c9.33301 0 16.666 3.83301 21.999 11.5s8.66602 24.167 9.99902 49.5h16
c-1.33301 -30.667 -6.16602 -51.5 -14.499 -62.5s-19.5 -16.5 -33.5 -16.5c-11.333 0 -21.5 3 -30.5 9s-17.5 12.667 -25.5 20s-16.167 14 -24.5 20s-17.833 9 -28.5 9c-12 0 -21.333 -5.33301 -28 -16s-9.66699 -25.667 -9 -45h-16zM452.003 246
c0 -45.333 -6.33496 -84.1699 -19.002 -116.503s-29.167 -59 -49.5 -80s-43.333 -36.333 -69 -46s-51.167 -14.5 -76.5 -14.5c-29.333 0 -56.666 5.66699 -81.999 17s-47.166 27.833 -65.499 49.5s-32.833 47.834 -43.5 78.501s-16 65.334 -16 104.001
c0 40.667 5.66699 76.834 17 108.501s26.666 58.334 45.999 80.001s41.833 38.167 67.5 49.5s53.167 17 82.5 17c30.667 0 58.834 -6 84.501 -18s47.667 -28.667 66 -50s32.5 -47.333 42.5 -78s15 -64.334 15 -101.001zM430.001 245.996c0 33.333 -4.33496 64 -13.002 92
s-21.167 52.333 -37.5 73s-36 36.667 -59 48s-48.5 17 -76.5 17c-27.333 0 -52.666 -5.5 -75.999 -16.5s-43.5 -26.667 -60.5 -47s-30.333 -45.333 -40 -75s-14.5 -62.834 -14.5 -99.501c0 -35.333 4.83301 -67.333 14.5 -96s22.834 -53 39.501 -73s36.5 -35.5 59.5 -46.5
s48.167 -16.5 75.5 -16.5c22.667 0 45.167 4.83301 67.5 14.5s42.5 24.334 60.5 44.001s32.5 44.5 43.5 74.5s16.5 65.667 16.5 107z" />
    <glyph glyph-name="odieresis" unicode="&#xf6;" horiz-adv-x="483" 
d="M170 584c-6.66699 0 -12 2.33301 -16 7s-6 10 -6 16c0 6.66699 2.16699 12.167 6.5 16.5s9.5 6.5 15.5 6.5c14.667 0 22 -7.66699 22 -23c0 -6 -2 -11.333 -6 -16s-9.33301 -7 -16 -7zM323 584c-6.66699 0 -12 2.33301 -16 7s-6 10 -6 16
c0 6.66699 2.16699 12.167 6.5 16.5s9.5 6.5 15.5 6.5c14.667 0 22 -7.66699 22 -23c0 -6 -2 -11.333 -6 -16s-9.33301 -7 -16 -7zM452 246c0 -45.333 -6.33496 -84.1699 -19.002 -116.503s-29.167 -59 -49.5 -80s-43.333 -36.333 -69 -46s-51.167 -14.5 -76.5 -14.5
c-29.333 0 -56.666 5.66699 -81.999 17s-47.166 27.833 -65.499 49.5s-32.833 47.834 -43.5 78.501s-16 65.334 -16 104.001c0 40.667 5.66699 76.834 17 108.501s26.666 58.334 45.999 80.001s41.833 38.167 67.5 49.5s53.167 17 82.5 17c30.667 0 58.834 -6 84.501 -18
s47.667 -28.667 66 -50s32.5 -47.333 42.5 -78s15 -64.334 15 -101.001zM429.998 245.996c0 33.333 -4.33496 64 -13.002 92s-21.167 52.333 -37.5 73s-36 36.667 -59 48s-48.5 17 -76.5 17c-27.333 0 -52.666 -5.5 -75.999 -16.5s-43.5 -26.667 -60.5 -47
s-30.333 -45.333 -40 -75s-14.5 -62.834 -14.5 -99.501c0 -35.333 4.83301 -67.333 14.5 -96s22.834 -53 39.501 -73s36.5 -35.5 59.5 -46.5s48.167 -16.5 75.5 -16.5c22.667 0 45.167 4.83301 67.5 14.5s42.5 24.334 60.5 44.001s32.5 44.5 43.5 74.5s16.5 65.667 16.5 107
z" />
    <glyph glyph-name="divide" unicode="&#xf7;" horiz-adv-x="555" 
d="M277 401c-6.66699 0 -12 2.33301 -16 7s-6 10.334 -6 17.001c0 7.33301 2 13.166 6 17.499s9.33301 6.5 16 6.5s12.167 -2.16699 16.5 -6.5s6.5 -10.166 6.5 -17.499c0 -6.66699 -2.16699 -12.334 -6.5 -17.001s-9.83301 -7 -16.5 -7zM277 85
c-6.66699 0 -12 2.33301 -16 7s-6 10.334 -6 17.001c0 7.33301 2 13.166 6 17.499s9.33301 6.5 16 6.5s12.167 -2.16699 16.5 -6.5s6.5 -10.166 6.5 -17.499c0 -6.66699 -2.16699 -12.334 -6.5 -17.001s-9.83301 -7 -16.5 -7zM510 279v-18h-465v18h465z" />
    <glyph glyph-name="oslash" unicode="&#xf8;" horiz-adv-x="483" 
d="M382 431c19.333 -22 34.166 -48.6699 44.499 -80.0029s15.5 -66.333 15.5 -105c0 -45.333 -6 -84.166 -18 -116.499s-27.833 -59 -47.5 -80s-41.667 -36.333 -66 -46s-48.5 -14.5 -72.5 -14.5c-48.667 0 -90.667 17 -126 51l-46 -66l-13 11l47 68
c-18 21.333 -32.333 47.5 -43 78.5s-16 66.5 -16 106.5c0 40.667 5.33301 76.834 16 108.501s25.334 58.334 44.001 80.001s40.167 38.167 64.5 49.5s50.5 17 78.5 17c25.333 0 48.5 -4.5 69.5 -13.5s39.833 -21.5 56.5 -37.5l45 66l14 -9zM420 245.997
c0 34 -4.33301 65.499 -13 94.499s-21 53.833 -37 74.5l-247 -358c32 -34 71.667 -51 119 -51c21.333 0 42.5 4.83301 63.5 14.5s40 24.334 57 44.001s30.833 44.5 41.5 74.5s16 65.667 16 107zM359 426.996c-14.667 15.333 -31.668 27.333 -51.001 36
s-40.666 13 -63.999 13c-26 0 -50 -5.5 -72 -16.5s-41 -26.667 -57 -47s-28.667 -45.333 -38 -75s-14 -62.834 -14 -99.501c0 -35.333 4.33301 -67.166 13 -95.499s20.667 -52.5 36 -72.5z" />
    <glyph glyph-name="ugrave" unicode="&#xf9;" horiz-adv-x="494" 
d="M76 483l21.001 -0.00195312v-276c0 -38 3.66699 -69.667 11 -95s17.333 -45.833 30 -61.5s27.334 -26.834 44.001 -33.501s34.667 -10 54 -10c20 0 38.333 3.83301 55 11.5s31.167 17.334 43.5 29.001s22.666 24.667 30.999 39s14.5 28.5 18.5 42.5s6.5 26.5 7.5 37.5
s1.5 27.5 1.5 49.5v267h21v-312c0 -13.333 0.166992 -28 0.5 -44l1 -47l1 -44c0.333008 -14 0.833008 -26 1.5 -36h-19l-4 103h-2c-16.667 -34.667 -37.834 -62.167 -63.501 -82.5s-57.5 -30.5 -95.5 -30.5c-28 0 -52 5.16699 -72 15.5s-36.333 24.833 -49 43.5
s-22 41.334 -28 68.001s-9 56.334 -9 89.001v277zM194.001 685.998l93 -136h-16l-113 136h36z" />
    <glyph glyph-name="uacute" unicode="&#xfa;" horiz-adv-x="494" 
d="M350 686l-113 -136h-16l93 136h36zM76 483l21.001 -0.00195312v-276c0 -38 3.66699 -69.667 11 -95s17.333 -45.833 30 -61.5s27.334 -26.834 44.001 -33.501s34.667 -10 54 -10c20 0 38.333 3.83301 55 11.5s31.167 17.334 43.5 29.001s22.666 24.667 30.999 39
s14.5 28.5 18.5 42.5s6.5 26.5 7.5 37.5s1.5 27.5 1.5 49.5v267h21v-312c0 -13.333 0.166992 -28 0.5 -44l1 -47l1 -44c0.333008 -14 0.833008 -26 1.5 -36h-19l-4 103h-2c-16.667 -34.667 -37.834 -62.167 -63.501 -82.5s-57.5 -30.5 -95.5 -30.5
c-28 0 -52 5.16699 -72 15.5s-36.333 24.833 -49 43.5s-22 41.334 -28 68.001s-9 56.334 -9 89.001v277z" />
    <glyph glyph-name="ucircumflex" unicode="&#xfb;" horiz-adv-x="494" 
d="M76 483l21.001 -0.00195312v-276c0 -38 3.66699 -69.667 11 -95s17.333 -45.833 30 -61.5s27.334 -26.834 44.001 -33.501s34.667 -10 54 -10c20 0 38.333 3.83301 55 11.5s31.167 17.334 43.5 29.001s22.666 24.667 30.999 39s14.5 28.5 18.5 42.5s6.5 26.5 7.5 37.5
s1.5 27.5 1.5 49.5v267h21v-312c0 -13.333 0.166992 -28 0.5 -44l1 -47l1 -44c0.333008 -14 0.833008 -26 1.5 -36h-19l-4 103h-2c-16.667 -34.667 -37.834 -62.167 -63.501 -82.5s-57.5 -30.5 -95.5 -30.5c-28 0 -52 5.16699 -72 15.5s-36.333 24.833 -49 43.5
s-22 41.334 -28 68.001s-9 56.334 -9 89.001v277zM263.001 680.998l92 -131h-20l-85 112h-2l-84 -112h-19l89 131h29z" />
    <glyph glyph-name="udieresis" unicode="&#xfc;" horiz-adv-x="494" 
d="M76 483l21.001 -0.00195312v-276c0 -38 3.66699 -69.667 11 -95s17.333 -45.833 30 -61.5s27.334 -26.834 44.001 -33.501s34.667 -10 54 -10c20 0 38.333 3.83301 55 11.5s31.167 17.334 43.5 29.001s22.666 24.667 30.999 39s14.5 28.5 18.5 42.5s6.5 26.5 7.5 37.5
s1.5 27.5 1.5 49.5v267h21v-312c0 -13.333 0.166992 -28 0.5 -44l1 -47l1 -44c0.333008 -14 0.833008 -26 1.5 -36h-19l-4 103h-2c-16.667 -34.667 -37.834 -62.167 -63.501 -82.5s-57.5 -30.5 -95.5 -30.5c-28 0 -52 5.16699 -72 15.5s-36.333 24.833 -49 43.5
s-22 41.334 -28 68.001s-9 56.334 -9 89.001v277zM177.001 583.998c-6.66699 0 -12 2.33301 -16 7s-6 10 -6 16c0 6.66699 2.16699 12.167 6.5 16.5s9.5 6.5 15.5 6.5c14.667 0 22 -7.66699 22 -23c0 -6 -2 -11.333 -6 -16s-9.33301 -7 -16 -7zM330.001 583.998
c-6.66699 0 -12 2.33301 -16 7s-6 10 -6 16c0 6.66699 2.16699 12.167 6.5 16.5s9.5 6.5 15.5 6.5c14.667 0 22 -7.66699 22 -23c0 -6 -2 -11.333 -6 -16s-9.33301 -7 -16 -7z" />
    <glyph glyph-name="yacute" unicode="&#xfd;" horiz-adv-x="405" 
d="M393 483l-124.002 -347.001l-38.5 -106.5c-11.667 -31 -23.167 -58.5 -34.5 -82.5s-22.833 -45 -34.5 -63s-24.5 -33.667 -38.5 -47c-20.667 -19.333 -39.167 -33.166 -55.5 -41.499s-29.166 -13.5 -38.499 -15.5l-7 18c44.667 14.667 80.334 40 107.001 76
s49.334 78 68.001 126c1.33301 5.33301 2.16602 9.33301 2.49902 12s-0.5 6.66699 -2.5 12l-184 459h24l134 -337c7.33301 -18 14.333 -36.167 21 -54.5l20 -54.5h1l156 446h24zM314.998 685.999l-113 -136h-16l93 136h36z" />
    <glyph glyph-name="thorn" unicode="&#xfe;" horiz-adv-x="507" 
d="M466 248c0 -41.333 -5.00195 -78.168 -15.002 -110.501s-24.167 -59.5 -42.5 -81.5s-40.166 -38.667 -65.499 -50s-53 -17 -83 -17c-14.667 0 -29.667 1.5 -45 4.5s-30 8 -44 15s-26.833 16.167 -38.5 27.5s-21.5 25 -29.5 41h-2v-275h-21v866h21v-285h1
c6.66699 14.667 15.667 28.667 27 42s24.333 25 39 35s30.5 18 47.5 24s34.833 9 53.5 9c28.667 0 55 -5.83301 79 -17.5s44.833 -28.167 62.5 -49.5s31.334 -47.166 41.001 -77.499s14.5 -63.833 14.5 -100.5zM443.998 247.998c0 34 -4.16895 65 -12.502 93
s-20.166 52 -35.499 72s-33.666 35.5 -54.999 46.5s-45 16.5 -71 16.5c-25.333 0 -48.5 -5.33301 -69.5 -16s-38.833 -23.834 -53.5 -39.501s-26 -32.667 -34 -51s-12 -35.166 -12 -50.499v-167c0 -22 4.16699 -42 12.5 -60s19.666 -33.333 33.999 -46
s30.833 -22.5 49.5 -29.5s38.334 -10.5 59.001 -10.5c56.667 0 102.167 21 136.5 63s51.5 101.667 51.5 179z" />
    <glyph glyph-name="ydieresis" unicode="&#xff;" horiz-adv-x="405" 
d="M393 483l-124.002 -347.001l-38.5 -106.5c-11.667 -31 -23.167 -58.5 -34.5 -82.5s-22.833 -45 -34.5 -63s-24.5 -33.667 -38.5 -47c-20.667 -19.333 -39.167 -33.166 -55.5 -41.499s-29.166 -13.5 -38.499 -15.5l-7 18c44.667 14.667 80.334 40 107.001 76
s49.334 78 68.001 126c1.33301 5.33301 2.16602 9.33301 2.49902 12s-0.5 6.66699 -2.5 12l-184 459h24l134 -337c7.33301 -18 14.333 -36.167 21 -54.5l20 -54.5h1l156 446h24zM133.998 583.999c-6.66699 0 -12 2.33301 -16 7s-6 10 -6 16
c0 6.66699 2.16699 12.167 6.5 16.5s9.5 6.5 15.5 6.5c14.667 0 22 -7.66699 22 -23c0 -6 -2 -11.333 -6 -16s-9.33301 -7 -16 -7zM286.998 583.999c-6.66699 0 -12 2.33301 -16 7s-6 10 -6 16c0 6.66699 2.16699 12.167 6.5 16.5s9.5 6.5 15.5 6.5
c14.667 0 22 -7.66699 22 -23c0 -6 -2 -11.333 -6 -16s-9.33301 -7 -16 -7z" />
    <glyph glyph-name="Amacron" unicode="&#x100;" horiz-adv-x="551" 
d="M380 757v-18h-205v18h205zM292 674l229 -674h-23l-81 239h-281l-81 -239h-22l229 674h30zM411 257l-38 111l-37 112l-29 87l-29 87h-2l-29 -87l-29 -87l-38 -111.5l-38 -111.5h269z" />
    <glyph glyph-name="amacron" unicode="&#x101;" horiz-adv-x="417" 
d="M331 0c-1.33301 11.333 -2.33398 24.333 -3.00098 39s-1 29.667 -1 45h-3c-15.333 -25.333 -35.666 -47.5 -60.999 -66.5s-57 -28.5 -95 -28.5c-21.333 0 -40.5 3.33301 -57.5 10s-31.5 15.834 -43.5 27.501s-21.333 25.167 -28 40.5s-10 32 -10 50
c0 26.667 6.66699 50.334 20 71.001s32.833 38.167 58.5 52.5s56.667 25.333 93 33s77.5 11.5 123.5 11.5v13c0 20.667 -1.66699 41.667 -5 63s-9.83301 40.5 -19.5 57.5s-22.834 30.833 -39.501 41.5s-38.334 16 -65.001 16c-19.333 0 -39.833 -3.16699 -61.5 -9.5
s-40.167 -15.5 -55.5 -27.5l-7 17c15.333 11.333 34.833 20.333 58.5 27s45.834 10 66.501 10c30.667 0 55.5 -5.66699 74.5 -17s34 -26.333 45 -45s18.5 -39.834 22.5 -63.501s6 -47.5 6 -71.5v-127c0 -13.333 0.166992 -28.833 0.5 -46.5s0.833008 -34.834 1.5 -51.501
s1.33398 -31.5 2.00098 -44.5s1.66699 -21.833 3 -26.5h-20zM323.999 268c-41.333 0 -78.832 -3.16699 -112.499 -9.5s-62.334 -15.833 -86.001 -28.5s-42 -28.167 -55 -46.5s-19.5 -39.833 -19.5 -64.5c0 -18 3.16699 -34 9.5 -48s14.833 -25.833 25.5 -35.5
s23.334 -17 38.001 -22s30 -7.5 46 -7.5c28 0 53.167 6.83301 75.5 20.5s42.166 32.834 59.499 57.501c8.66699 12 14 25.167 16 39.5s3 32.166 3 53.499v91zM301 611v-17h-185v17h185z" />
    <glyph glyph-name="Abreve" unicode="&#x102;" horiz-adv-x="551" 
d="M292 674l229 -674h-23l-81 239h-281l-81 -239h-22l229 674h30zM411 257l-38 111l-37 112l-29 87l-29 87h-2l-29 -87l-29 -87l-38 -111.5l-38 -111.5h269zM188 818c0.666992 -25.333 7.66699 -45.833 21 -61.5s36 -23.5 68 -23.5c27.333 0 48.833 6.66699 64.5 20
s23.834 35 24.501 65h16c-0.666992 -35.333 -10.334 -61.333 -29.001 -78s-44 -25 -76 -25c-37.333 0 -64 9.83301 -80 29.5s-24.333 44.167 -25 73.5h16z" />
    <glyph glyph-name="abreve" unicode="&#x103;" horiz-adv-x="417" 
d="M331 0c-1.33301 11.333 -2.33398 24.333 -3.00098 39s-1 29.667 -1 45h-3c-15.333 -25.333 -35.666 -47.5 -60.999 -66.5s-57 -28.5 -95 -28.5c-21.333 0 -40.5 3.33301 -57.5 10s-31.5 15.834 -43.5 27.501s-21.333 25.167 -28 40.5s-10 32 -10 50
c0 26.667 6.66699 50.334 20 71.001s32.833 38.167 58.5 52.5s56.667 25.333 93 33s77.5 11.5 123.5 11.5v13c0 20.667 -1.66699 41.667 -5 63s-9.83301 40.5 -19.5 57.5s-22.834 30.833 -39.501 41.5s-38.334 16 -65.001 16c-19.333 0 -39.833 -3.16699 -61.5 -9.5
s-40.167 -15.5 -55.5 -27.5l-7 17c15.333 11.333 34.833 20.333 58.5 27s45.834 10 66.501 10c30.667 0 55.5 -5.66699 74.5 -17s34 -26.333 45 -45s18.5 -39.834 22.5 -63.501s6 -47.5 6 -71.5v-127c0 -13.333 0.166992 -28.833 0.5 -46.5s0.833008 -34.834 1.5 -51.501
s1.33398 -31.5 2.00098 -44.5s1.66699 -21.833 3 -26.5h-20zM323.999 268c-41.333 0 -78.832 -3.16699 -112.499 -9.5s-62.334 -15.833 -86.001 -28.5s-42 -28.167 -55 -46.5s-19.5 -39.833 -19.5 -64.5c0 -18 3.16699 -34 9.5 -48s14.833 -25.833 25.5 -35.5
s23.334 -17 38.001 -22s30 -7.5 46 -7.5c28 0 53.167 6.83301 75.5 20.5s42.166 32.834 59.499 57.501c8.66699 12 14 25.167 16 39.5s3 32.166 3 53.499v91zM123 667c0.666992 -25.333 7.33203 -47.502 19.999 -66.502s33.667 -28.5 63 -28.5
c25.333 0 45.333 8.33301 60 25s22.334 40 23.001 70h17c-0.666992 -36 -10 -64 -28 -84s-42 -30 -72 -30c-17.333 0 -32.333 3.16699 -45 9.5s-23 14.833 -31 25.5s-14 22.834 -18 36.501s-6 27.834 -6 42.501h17z" />
    <glyph glyph-name="Aogonek" unicode="&#x104;" horiz-adv-x="551" 
d="M292 674l228.999 -674.002h-11c-6 -6 -12.833 -13.5 -20.5 -22.5s-15.167 -18.833 -22.5 -29.5s-13.5 -22 -18.5 -34s-7.5 -24.333 -7.5 -37c0 -17.333 4.66699 -30.833 14 -40.5s20.333 -14.5 33 -14.5c14 0 27.667 4.33301 41 13l4 -15
c-7.33301 -5.33301 -15 -9.16602 -23 -11.499s-15.667 -3.5 -23 -3.5c-17.333 0 -32.666 5.83301 -45.999 17.5s-20 29.834 -20 54.501c0 14 2.83301 27.333 8.5 40s12.5 24.5 20.5 35.5s16.333 20.833 25 29.5l22 22l-80 235h-281l-81 -239h-22l229 674h30z
M410.999 256.998l-38 111l-37 112l-29 87l-29 87h-2l-29 -87l-29 -87l-76 -223h269z" />
    <glyph glyph-name="aogonek" unicode="&#x105;" horiz-adv-x="417" 
d="M339 0c-6 -6 -12.8398 -13.502 -20.5068 -22.502s-15.167 -18.833 -22.5 -29.5s-13.5 -22 -18.5 -34s-7.5 -24.333 -7.5 -37c0 -17.333 4.66699 -30.833 14 -40.5s20.333 -14.5 33 -14.5c14 0 27.667 4.33301 41 13l4 -15c-7.33301 -5.33301 -15 -9.16602 -23 -11.499
s-15.667 -3.5 -23 -3.5c-17.333 0 -32.666 5.83301 -45.999 17.5s-20 29.834 -20 54.501c0 14 2.83301 27.333 8.5 40s12.334 24.5 20.001 35.5s15.834 20.833 24.501 29.5l22 22c-1.33301 11.333 -2.16602 23.833 -2.49902 37.5s-0.5 27.834 -0.5 42.501h-3
c-7.33301 -12.667 -15.833 -24.667 -25.5 -36s-20.667 -21.333 -33 -30s-26.166 -15.667 -41.499 -21s-32.333 -8 -51 -8c-21.333 0 -40.166 3.33301 -56.499 10s-30.333 15.834 -42 27.501s-20.5 25.167 -26.5 40.5s-9 32 -9 50c0 53.333 24.333 94.666 73 123.999
s119.334 44 212.001 44v13c0 20.667 -1.5 41.667 -4.5 63s-8.83301 40.5 -17.5 57.5s-21.167 30.833 -37.5 41.5s-37.833 16 -64.5 16c-18.667 0 -38.167 -3 -58.5 -9s-38.166 -15.667 -53.499 -29l-6 16c15.333 12.667 34.166 22.334 56.499 29.001s43.166 10 62.499 10
c30.667 0 55.334 -5.66699 74.001 -17s33.167 -26.333 43.5 -45s17.166 -39.834 20.499 -63.501s5 -47.5 5 -71.5v-127c0 -13.333 0.166992 -28.833 0.5 -46.5s0.833008 -34.834 1.5 -51.501s1.33398 -31.5 2.00098 -44.5s1.66699 -21.833 3 -26.5h-7zM318.993 267.998
c-83.333 0 -148.001 -12.5 -194.001 -37.5s-69 -62.167 -69 -111.5c0 -36 10.833 -63.833 32.5 -83.5s48.834 -29.5 81.501 -29.5c28 0 52.333 6.83301 73 20.5s39.667 32.834 57 57.501c8.66699 12 14 25.167 16 39.5s3 32.166 3 53.499v91z" />
    <glyph glyph-name="Cacute" unicode="&#x106;" horiz-adv-x="507" 
d="M492 17c-16 -5.33301 -37.335 -11.1689 -64.002 -17.502s-59 -9.5 -97 -9.5c-46 0 -88.167 7.33301 -126.5 22s-71.333 36.334 -99 65.001s-49.167 64.167 -64.5 106.5s-23 91.5 -23 147.5c0 52.667 7.5 100.667 22.5 144s36.667 80.5 65 111.5s63.166 55 104.499 72
s88.333 25.5 141 25.5c34 0 62.333 -3.16699 85 -9.5s41.334 -12.833 56.001 -19.5l-6 -18c-14 6 -32 12.333 -54 19s-49 10 -81 10c-49.333 0 -93.166 -8 -131.499 -24s-70.666 -38.667 -96.999 -68s-46.5 -64.666 -60.5 -105.999s-21 -87 -21 -137
c0 -52.667 7 -99 21 -139s33.833 -73.667 59.5 -101s56.5 -48 92.5 -62s75.667 -21 119 -21c33.333 0 63.333 3 90 9s48 11.667 64 17zM442.998 824.997l-122 -115h-18l99 115h41z" />
    <glyph glyph-name="cacute" unicode="&#x107;" horiz-adv-x="384" 
d="M381 451c-9.33301 5.33301 -22.333 10.833 -39 16.5s-37.667 8.5 -63 8.5c-32.667 0 -62.167 -5.83301 -88.5 -17.5s-49 -28.167 -68 -49.5s-33.667 -46.666 -44 -75.999s-15.5 -61.333 -15.5 -96c0 -35.333 5 -67.166 15 -95.499s24 -52.5 42 -72.5
s39.667 -35.333 65 -46s53.333 -16 84 -16c25.333 0 48 3.16699 68 9.5s35.333 12.5 46 18.5l5 -17c-10.667 -5.33301 -26.167 -11.333 -46.5 -18s-45.166 -10 -74.499 -10c-34 0 -64.833 5.66699 -92.5 17s-51.5 27.666 -71.5 48.999s-35.333 47.166 -46 77.499
s-16 64.5 -16 102.5s5.66699 72.833 17 104.5s27.5 58.667 48.5 81s46.167 39.833 75.5 52.5s61.666 19 96.999 19c28 0 50.667 -2.66699 68 -8s31.333 -11 42 -17zM352 686l-113 -136h-16l93 136h36z" />
    <glyph glyph-name="Ccircumflex" unicode="&#x108;" horiz-adv-x="507" 
d="M492 17c-16 -5.33301 -37.335 -11.1689 -64.002 -17.502s-59 -9.5 -97 -9.5c-46 0 -88.167 7.33301 -126.5 22s-71.333 36.334 -99 65.001s-49.167 64.167 -64.5 106.5s-23 91.5 -23 147.5c0 52.667 7.5 100.667 22.5 144s36.667 80.5 65 111.5s63.166 55 104.499 72
s88.333 25.5 141 25.5c34 0 62.333 -3.16699 85 -9.5s41.334 -12.833 56.001 -19.5l-6 -18c-14 6 -32 12.333 -54 19s-49 10 -81 10c-49.333 0 -93.166 -8 -131.499 -24s-70.666 -38.667 -96.999 -68s-46.5 -64.666 -60.5 -105.999s-21 -87 -21 -137
c0 -52.667 7 -99 21 -139s33.833 -73.667 59.5 -101s56.5 -48 92.5 -62s75.667 -21 119 -21c33.333 0 63.333 3 90 9s48 11.667 64 17zM343.998 820.997l92 -111h-20l-86 92h-2l-85 -92h-20l91 111h30z" />
    <glyph glyph-name="ccircumflex" unicode="&#x109;" horiz-adv-x="384" 
d="M381 451c-9.33301 5.33301 -22.333 10.833 -39 16.5s-37.667 8.5 -63 8.5c-32.667 0 -62.167 -5.83301 -88.5 -17.5s-49 -28.167 -68 -49.5s-33.667 -46.666 -44 -75.999s-15.5 -61.333 -15.5 -96c0 -35.333 5 -67.166 15 -95.499s24 -52.5 42 -72.5
s39.667 -35.333 65 -46s53.333 -16 84 -16c25.333 0 48 3.16699 68 9.5s35.333 12.5 46 18.5l5 -17c-10.667 -5.33301 -26.167 -11.333 -46.5 -18s-45.166 -10 -74.499 -10c-34 0 -64.833 5.66699 -92.5 17s-51.5 27.666 -71.5 48.999s-35.333 47.166 -46 77.499
s-16 64.5 -16 102.5s5.66699 72.833 17 104.5s27.5 58.667 48.5 81s46.167 39.833 75.5 52.5s61.666 19 96.999 19c28 0 50.667 -2.66699 68 -8s31.333 -11 42 -17zM253 681l92 -131h-20l-85 112h-2l-84 -112h-19l89 131h29z" />
    <glyph glyph-name="Cdotaccent" unicode="&#x10a;" horiz-adv-x="507" 
d="M492 17c-16 -5.33301 -37.335 -11.1689 -64.002 -17.502s-59 -9.5 -97 -9.5c-46 0 -88.167 7.33301 -126.5 22s-71.333 36.334 -99 65.001s-49.167 64.167 -64.5 106.5s-23 91.5 -23 147.5c0 52.667 7.5 100.667 22.5 144s36.667 80.5 65 111.5s63.166 55 104.499 72
s88.333 25.5 141 25.5c34 0 62.333 -3.16699 85 -9.5s41.334 -12.833 56.001 -19.5l-6 -18c-14 6 -32 12.333 -54 19s-49 10 -81 10c-49.333 0 -93.166 -8 -131.499 -24s-70.666 -38.667 -96.999 -68s-46.5 -64.666 -60.5 -105.999s-21 -87 -21 -137
c0 -52.667 7 -99 21 -139s33.833 -73.667 59.5 -101s56.5 -48 92.5 -62s75.667 -21 119 -21c33.333 0 63.333 3 90 9s48 11.667 64 17zM325.998 729.997c-6.66699 0 -12.167 2.33301 -16.5 7s-6.5 10 -6.5 16s2.16699 11.333 6.5 16s9.83301 7 16.5 7
c6 0 11.167 -2.33301 15.5 -7s6.5 -10 6.5 -16s-2.16699 -11.333 -6.5 -16s-9.5 -7 -15.5 -7z" />
    <glyph glyph-name="cdotaccent" unicode="&#x10b;" horiz-adv-x="384" 
d="M381 451c-9.33301 5.33301 -22.333 10.833 -39 16.5s-37.667 8.5 -63 8.5c-32.667 0 -62.167 -5.83301 -88.5 -17.5s-49 -28.167 -68 -49.5s-33.667 -46.666 -44 -75.999s-15.5 -61.333 -15.5 -96c0 -35.333 5 -67.166 15 -95.499s24 -52.5 42 -72.5
s39.667 -35.333 65 -46s53.333 -16 84 -16c25.333 0 48 3.16699 68 9.5s35.333 12.5 46 18.5l5 -17c-10.667 -5.33301 -26.167 -11.333 -46.5 -18s-45.166 -10 -74.499 -10c-34 0 -64.833 5.66699 -92.5 17s-51.5 27.666 -71.5 48.999s-35.333 47.166 -46 77.499
s-16 64.5 -16 102.5s5.66699 72.833 17 104.5s27.5 58.667 48.5 81s46.167 39.833 75.5 52.5s61.666 19 96.999 19c28 0 50.667 -2.66699 68 -8s31.333 -11 42 -17zM250 584c-6.66699 0 -12.167 2.33301 -16.5 7s-6.5 10 -6.5 16s2.16699 11.333 6.5 16s9.83301 7 16.5 7
c6 0 11.167 -2.33301 15.5 -7s6.5 -10 6.5 -16s-2 -11.333 -6 -16s-9.33301 -7 -16 -7z" />
    <glyph glyph-name="Ccaron" unicode="&#x10c;" horiz-adv-x="507" 
d="M492 17c-16 -5.33301 -37.335 -11.1689 -64.002 -17.502s-59 -9.5 -97 -9.5c-46 0 -88.167 7.33301 -126.5 22s-71.333 36.334 -99 65.001s-49.167 64.167 -64.5 106.5s-23 91.5 -23 147.5c0 52.667 7.5 100.667 22.5 144s36.667 80.5 65 111.5s63.166 55 104.499 72
s88.333 25.5 141 25.5c34 0 62.333 -3.16699 85 -9.5s41.334 -12.833 56.001 -19.5l-6 -18c-14 6 -32 12.333 -54 19s-49 10 -81 10c-49.333 0 -93.166 -8 -131.499 -24s-70.666 -38.667 -96.999 -68s-46.5 -64.666 -60.5 -105.999s-21 -87 -21 -137
c0 -52.667 7 -99 21 -139s33.833 -73.667 59.5 -101s56.5 -48 92.5 -62s75.667 -21 119 -21c33.333 0 63.333 3 90 9s48 11.667 64 17zM305.998 709.997l-93 111h20l86 -92h2l85 92h20l-91 -111h-29z" />
    <glyph glyph-name="ccaron" unicode="&#x10d;" horiz-adv-x="384" 
d="M381 451c-9.33301 5.33301 -22.333 10.833 -39 16.5s-37.667 8.5 -63 8.5c-32.667 0 -62.167 -5.83301 -88.5 -17.5s-49 -28.167 -68 -49.5s-33.667 -46.666 -44 -75.999s-15.5 -61.333 -15.5 -96c0 -35.333 5 -67.166 15 -95.499s24 -52.5 42 -72.5
s39.667 -35.333 65 -46s53.333 -16 84 -16c25.333 0 48 3.16699 68 9.5s35.333 12.5 46 18.5l5 -17c-10.667 -5.33301 -26.167 -11.333 -46.5 -18s-45.166 -10 -74.499 -10c-34 0 -64.833 5.66699 -92.5 17s-51.5 27.666 -71.5 48.999s-35.333 47.166 -46 77.499
s-16 64.5 -16 102.5s5.66699 72.833 17 104.5s27.5 58.667 48.5 81s46.167 39.833 75.5 52.5s61.666 19 96.999 19c28 0 50.667 -2.66699 68 -8s31.333 -11 42 -17zM237 550l-92 131h20l85 -112h2l84 112h19l-89 -131h-29z" />
    <glyph glyph-name="Dcaron" unicode="&#x10e;" horiz-adv-x="601" 
d="M75 664c23.333 4 48.6689 7.50195 76.002 10.502s54.666 4.5 81.999 4.5c50 0 95.667 -6.5 137 -19.5s77 -32.833 107 -59.5s53.167 -60.334 69.5 -101.001s24.5 -89 24.5 -145c0 -118.667 -31.833 -208.334 -95.5 -269.001s-152.834 -91 -267.501 -91
c-23.333 0 -46.333 0.5 -69 1.5s-44 3.16699 -64 6.5v662zM96.0029 17.002c16 -2 34.1689 -3.33496 54.502 -4.00195s40.166 -1 59.499 -1c108 0 191.333 28.667 250 86s88 142.333 88 255c0 52 -7.5 97.333 -22.5 136s-36.333 70.834 -64 96.501s-60.834 44.667 -99.501 57
s-81.667 18.5 -129 18.5c-24.667 0 -48.667 -1.16699 -72 -3.5s-45 -5.16602 -65 -8.49902v-632zM271.005 710l-93 111h20l86 -92h2l85 92h20l-91 -111h-29z" />
    <glyph glyph-name="dcaron" unicode="&#x10f;" horiz-adv-x="511" 
d="M411 0l-4.00098 94h-2c-8.66699 -19.333 -19.334 -35.666 -32.001 -48.999s-26.5 -24.166 -41.5 -32.499s-30.5 -14.333 -46.5 -18s-31.333 -5.5 -46 -5.5c-30 0 -57.333 5.66699 -82 17s-46 28 -64 50s-32 49.167 -42 81.5s-15 69.166 -15 110.499
c0 36.667 5.16699 70.167 15.5 100.5s24.5 56.166 42.5 77.499s39.333 37.833 64 49.5s51.334 17.5 80.001 17.5c38 0 71.333 -8.66699 100 -26s50.334 -38 65.001 -62h2v304h21v-570c0 -27.333 0.333008 -52.833 1 -76.5s1.66699 -44.5 3 -62.5h-19zM404.999 342
c0 13.333 -3.83398 27.833 -11.501 43.5s-18.667 30.167 -33 43.5s-31.666 24.5 -51.999 33.5s-42.833 13.5 -67.5 13.5c-27.333 0 -52.166 -5.5 -74.499 -16.5s-41.5 -26.5 -57.5 -46.5s-28.5 -44 -37.5 -72s-13.5 -59 -13.5 -93c0 -77.333 16.833 -137 50.5 -179
s78.5 -63 134.5 -63c21.333 0 41.666 4.16699 60.999 12.5s36.5 19.666 51.5 33.999s27 31.333 36 51s13.5 40.834 13.5 63.501v175zM536.998 639c0 -24 -5.83105 -44.999 -17.498 -62.999s-23.834 -31.667 -36.501 -41l-11 8c11.333 9.33301 21.833 21.666 31.5 36.999
s14.5 35 14.5 59c0 16.667 -3.5 30.5 -10.5 41.5s-14.833 20.167 -23.5 27.5l17 4c9.33301 -8 17.666 -18.167 24.999 -30.5s11 -26.5 11 -42.5z" />
    <glyph glyph-name="Dcroat" unicode="&#x110;" horiz-adv-x="606" 
d="M89 664c22 3.33301 45.999 6.66797 71.999 10.001s51.667 5 77 5c48.667 0 93.167 -6.5 133.5 -19.5s75 -32.833 104 -59.5s51.5 -60.334 67.5 -101.001s24 -89 24 -145c0 -59.333 -8 -111.5 -24 -156.5s-39.167 -82.5 -69.5 -112.5s-67.333 -52.667 -111 -68
s-93.5 -23 -149.5 -23c-21.333 0 -42.666 0.5 -63.999 1.5s-41.333 3.16699 -60 6.5v337h-73v17h73v308zM109.999 356.002l182.001 -0.00195312v-17h-182v-322c14.667 -2 31.334 -3.33301 50.001 -4s37 -1 55 -1c105.333 0 186.5 28.667 243.5 86s85.5 142.333 85.5 255
c0 52 -7.33301 97.333 -22 136s-35.334 70.834 -62.001 96.501s-58.834 44.667 -96.501 57s-79.5 18.5 -125.5 18.5c-22.667 0 -45 -1.16699 -67 -3.5s-42.333 -5.16602 -61 -8.49902v-293z" />
    <glyph glyph-name="dcroat" unicode="&#x111;" horiz-adv-x="501" 
d="M406 0l-4.00098 94h-2c-8.66699 -19.333 -19 -35.666 -31 -48.999s-25.167 -24.166 -39.5 -32.499s-29.333 -14.333 -45 -18s-30.834 -5.5 -45.501 -5.5c-30 0 -57.167 5.66699 -81.5 17s-45.166 28 -62.499 50s-30.666 49.167 -39.999 81.5s-14 69.166 -14 110.499
c0 36.667 4.83301 70.167 14.5 100.5s23.334 56.166 41.001 77.499s38.5 37.833 62.5 49.5s50.333 17.5 79 17.5c37.333 0 69.666 -8.66699 96.999 -26s48.333 -38 63 -62h2v172h-182v16h182v116h21v-116h69v-16h-69v-438c0 -27.333 0.333008 -52.833 1 -76.5
s1.66699 -44.5 3 -62.5h-19zM399.999 342c0 13.333 -3.66309 27.833 -10.9961 43.5s-17.833 30.167 -31.5 43.5s-30.334 24.5 -50.001 33.5s-41.834 13.5 -66.501 13.5c-27.333 0 -51.833 -5.5 -73.5 -16.5s-40.334 -26.5 -56.001 -46.5s-27.667 -44 -36 -72
s-12.5 -59 -12.5 -93c0 -77.333 16 -137 48 -179s76 -63 132 -63c21.333 0 41.5 4.16699 60.5 12.5s35.667 19.666 50 33.999s25.666 31.333 33.999 51s12.5 40.834 12.5 63.501v175z" />
    <glyph glyph-name="Emacron" unicode="&#x112;" horiz-adv-x="427" 
d="M362 346h-257v-327h287v-19h-308v674h293v-19h-272v-290h257v-19zM338 757v-18h-205v18h205z" />
    <glyph glyph-name="emacron" unicode="&#x113;" horiz-adv-x="451" 
d="M390 20c-13.333 -6 -31.333 -12.4971 -54 -19.4971s-52 -10.5 -88 -10.5c-67.333 0 -119.5 22.333 -156.5 67s-55.5 109 -55.5 193c0 32 4.66699 62.667 14 92s22.833 55.166 40.5 77.499s39 40.166 64 53.499s53.167 20 84.5 20c36 0 65.5 -6.83301 88.5 -20.5
s41 -30.667 54 -51s22 -42.166 27 -65.499s7.5 -44.333 7.5 -63v-22c0 -6.66699 -0.666992 -13.334 -2 -20.001h-356c0 -36 3.83301 -68.833 11.5 -98.5s19.167 -55.334 34.5 -77.001s35 -38.5 59 -50.5s52.667 -18 86 -18s61 3.16699 83 9.5s40 12.833 54 19.5z
M395 268.003c0.666992 4 0.998047 8.66602 0.998047 13.999v17c0 16.667 -2.33301 35.334 -7 56.001s-13 40 -25 58s-28.167 33 -48.5 45s-46.166 18 -77.499 18c-26 0 -49.667 -5.33301 -71 -16s-39.666 -25.334 -54.999 -44.001s-27.5 -40.667 -36.5 -66
s-14.5 -52.666 -16.5 -81.999h336zM334.998 611.002v-17h-185v17h185z" />
    <glyph glyph-name="Ebreve" unicode="&#x114;" horiz-adv-x="427" 
d="M362 346h-257v-327h287v-19h-308v674h293v-19h-272v-290h257v-19zM149 818c0.666992 -25.333 7.66699 -45.833 21 -61.5s36 -23.5 68 -23.5c27.333 0 48.833 6.66699 64.5 20s23.834 35 24.501 65h16c-0.666992 -35.333 -10.334 -61.333 -29.001 -78s-44 -25 -76 -25
c-37.333 0 -64 9.83301 -80 29.5s-24.333 44.167 -25 73.5h16z" />
    <glyph glyph-name="ebreve" unicode="&#x115;" horiz-adv-x="451" 
d="M156 667c0.666992 -25.333 7.33203 -47.502 19.999 -66.502s33.667 -28.5 63 -28.5c25.333 0 45.333 8.33301 60 25s22.334 40 23.001 70h17c-0.666992 -36 -10 -64 -28 -84s-42 -30 -72 -30c-17.333 0 -32.333 3.16699 -45 9.5s-23 14.833 -31 25.5
s-14 22.834 -18 36.501s-6 27.834 -6 42.501h17zM389.998 19.998c-13.333 -6 -31.333 -12.4971 -54 -19.4971s-52 -10.5 -88 -10.5c-67.333 0 -119.5 22.333 -156.5 67s-55.5 109 -55.5 193c0 32 4.66699 62.667 14 92s22.833 55.166 40.5 77.499s39 40.166 64 53.499
s53.167 20 84.5 20c36 0 65.5 -6.83301 88.5 -20.5s41 -30.667 54 -51s22 -42.166 27 -65.499s7.5 -44.333 7.5 -63v-22c0 -6.66699 -0.666992 -13.334 -2 -20.001h-356c0 -36 3.83301 -68.833 11.5 -98.5s19.167 -55.334 34.5 -77.001s35 -38.5 59 -50.5s52.667 -18 86 -18
s61 3.16699 83 9.5s40 12.833 54 19.5zM394.998 268.001c0.666992 4 0.998047 8.66602 0.998047 13.999v17c0 16.667 -2.33301 35.334 -7 56.001s-13 40 -25 58s-28.167 33 -48.5 45s-46.166 18 -77.499 18c-26 0 -49.667 -5.33301 -71 -16s-39.666 -25.334 -54.999 -44.001
s-27.5 -40.667 -36.5 -66s-14.5 -52.666 -16.5 -81.999h336z" />
    <glyph glyph-name="Edotaccent" unicode="&#x116;" horiz-adv-x="427" 
d="M362 346h-257v-327h287v-19h-308v674h293v-19h-272v-290h257v-19zM241 730c-6.66699 0 -12.167 2.33301 -16.5 7s-6.5 10 -6.5 16s2.16699 11.333 6.5 16s9.83301 7 16.5 7c6 0 11.167 -2.33301 15.5 -7s6.5 -10 6.5 -16s-2.16699 -11.333 -6.5 -16s-9.5 -7 -15.5 -7z
" />
    <glyph glyph-name="edotaccent" unicode="&#x117;" horiz-adv-x="451" 
d="M390 20c-13.333 -6 -31.333 -12.4971 -54 -19.4971s-52 -10.5 -88 -10.5c-67.333 0 -119.5 22.333 -156.5 67s-55.5 109 -55.5 193c0 32 4.66699 62.667 14 92s22.833 55.166 40.5 77.499s39 40.166 64 53.499s53.167 20 84.5 20c36 0 65.5 -6.83301 88.5 -20.5
s41 -30.667 54 -51s22 -42.166 27 -65.499s7.5 -44.333 7.5 -63v-22c0 -6.66699 -0.666992 -13.334 -2 -20.001h-356c0 -36 3.83301 -68.833 11.5 -98.5s19.167 -55.334 34.5 -77.001s35 -38.5 59 -50.5s52.667 -18 86 -18s61 3.16699 83 9.5s40 12.833 54 19.5z
M395 268.003c0.666992 4 0.998047 8.66602 0.998047 13.999v17c0 16.667 -2.33301 35.334 -7 56.001s-13 40 -25 58s-28.167 33 -48.5 45s-46.166 18 -77.499 18c-26 0 -49.667 -5.33301 -71 -16s-39.666 -25.334 -54.999 -44.001s-27.5 -40.667 -36.5 -66
s-14.5 -52.666 -16.5 -81.999h336zM243.998 584.002c-6.66699 0 -12.167 2.33301 -16.5 7s-6.5 10 -6.5 16s2.16699 11.333 6.5 16s9.83301 7 16.5 7c6 0 11.167 -2.33301 15.5 -7s6.5 -10 6.5 -16s-2 -11.333 -6 -16s-9.33301 -7 -16 -7z" />
    <glyph glyph-name="Eogonek" unicode="&#x118;" horiz-adv-x="427" 
d="M362 346l-257.001 -0.00292969v-327h287v-19h-6c-6 -6 -12.833 -13.5 -20.5 -22.5s-15.167 -18.833 -22.5 -29.5s-13.5 -22 -18.5 -34s-7.5 -24.333 -7.5 -37c0 -17.333 4.66699 -30.833 14 -40.5s20.333 -14.5 33 -14.5c14 0 27.667 4.33301 41 13l4 -15
c-7.33301 -5.33301 -15 -9.16602 -23 -11.499s-15.667 -3.5 -23 -3.5c-17.333 0 -32.666 5.83301 -45.999 17.5s-20 29.834 -20 54.501c0 12.667 2.5 25 7.5 37s11.167 23.333 18.5 34s15 20.334 23 29.001l22 23h-284v674h293v-19h-272v-290h257v-19z" />
    <glyph glyph-name="eogonek" unicode="&#x119;" horiz-adv-x="451" 
d="M385 20c-6 -3.33301 -13.498 -6.66797 -22.498 -10.001s-19.167 -6.66602 -30.5 -9.99902l-20 -22.5c-8 -9 -15.667 -18.833 -23 -29.5s-13.5 -22 -18.5 -34s-7.5 -24.333 -7.5 -37c0 -17.333 4.66699 -30.833 14 -40.5s20.333 -14.5 33 -14.5c14 0 27.667 4.33301 41 13
l4 -15c-7.33301 -5.33301 -15 -9.16602 -23 -11.499s-15.667 -3.5 -23 -3.5c-17.333 0 -32.666 5.83301 -45.999 17.5s-20 29.834 -20 54.501c0 12 2.16699 23.667 6.5 35s9.83301 22 16.5 32s13.834 19.333 21.501 28s14.834 16.334 21.501 23.001
c-9.33301 -1.33301 -19 -2.5 -29 -3.5s-20.667 -1.5 -32 -1.5c-64.667 0 -115.334 22.333 -152.001 67s-55 109 -55 193c0 32 4.66699 62.667 14 92s22.666 55.166 39.999 77.499s38.166 40.166 62.499 53.499s51.5 20 81.5 20c34.667 0 63 -6.83301 85 -20.5
s39.5 -30.667 52.5 -51s22 -42.166 27 -65.499s7.5 -44.333 7.5 -63v-22c0 -6.66699 -0.666992 -13.334 -2 -20.001h-346c0 -36 3.83301 -68.833 11.5 -98.5s19.167 -55.334 34.5 -77.001s34.666 -38.5 57.999 -50.5s50.666 -18 81.999 -18c30.667 0 57 3.16699 79 9.5
s39.667 12.833 53 19.5zM390.002 267.998c0.666992 4 1.00098 8.66602 1.00098 13.999v17c0 16.667 -2.5 35.334 -7.5 56.001s-13.167 40 -24.5 58s-26.833 33 -46.5 45s-44.5 18 -74.5 18c-24.667 0 -47.334 -5.33301 -68.001 -16s-38.5 -25.334 -53.5 -44.001
s-27 -40.667 -36 -66s-14.5 -52.666 -16.5 -81.999h326z" />
    <glyph glyph-name="Ecaron" unicode="&#x11a;" horiz-adv-x="427" 
d="M362 346h-257v-327h287v-19h-308v674h293v-19h-272v-290h257v-19zM226 710l-93 111h20l86 -92h2l85 92h20l-91 -111h-29z" />
    <glyph glyph-name="ecaron" unicode="&#x11b;" horiz-adv-x="451" 
d="M390 20c-13.333 -6 -31.333 -12.4971 -54 -19.4971s-52 -10.5 -88 -10.5c-67.333 0 -119.5 22.333 -156.5 67s-55.5 109 -55.5 193c0 32 4.66699 62.667 14 92s22.833 55.166 40.5 77.499s39 40.166 64 53.499s53.167 20 84.5 20c36 0 65.5 -6.83301 88.5 -20.5
s41 -30.667 54 -51s22 -42.166 27 -65.499s7.5 -44.333 7.5 -63v-22c0 -6.66699 -0.666992 -13.334 -2 -20.001h-356c0 -36 3.83301 -68.833 11.5 -98.5s19.167 -55.334 34.5 -77.001s35 -38.5 59 -50.5s52.667 -18 86 -18s61 3.16699 83 9.5s40 12.833 54 19.5z
M395 268.003c0.666992 4 0.998047 8.66602 0.998047 13.999v17c0 16.667 -2.33301 35.334 -7 56.001s-13 40 -25 58s-28.167 33 -48.5 45s-46.166 18 -77.499 18c-26 0 -49.667 -5.33301 -71 -16s-39.666 -25.334 -54.999 -44.001s-27.5 -40.667 -36.5 -66
s-14.5 -52.666 -16.5 -81.999h336zM228.998 550.002l-92 131h20l85 -112h2l84 112h19l-89 -131h-29z" />
    <glyph glyph-name="Gcircumflex" unicode="&#x11c;" horiz-adv-x="576" 
d="M516 30c-15.333 -7.33301 -37.999 -15.333 -67.999 -24s-64.333 -13 -103 -13c-48 0 -90.833 8 -128.5 24s-69.834 38.667 -96.501 68s-47 65 -61 107s-21 89 -21 141c0 49.333 7.5 95.333 22.5 138s36.667 79.5 65 110.5s62.666 55.333 102.999 73s85.5 26.5 135.5 26.5
c30 0 56.5 -3.33301 79.5 -10s39.833 -13 50.5 -19l-6 -18c-11.333 6.66699 -28 13.167 -50 19.5s-46.667 9.5 -74 9.5c-46.667 0 -88.667 -8.33301 -126 -25s-69.166 -39.667 -95.499 -69s-46.5 -64 -60.5 -104s-21 -83.667 -21 -131c0 -50 6.5 -94.833 19.5 -134.5
s31.833 -73.5 56.5 -101.5s54.667 -49.5 90 -64.5s75 -22.5 119 -22.5c32.667 0 62.167 3.66699 88.5 11s46.833 14.333 61.5 21v256h-142v17h162v-286zM344.001 821l92 -111h-20l-86 92h-2l-85 -92h-20l91 111h30z" />
    <glyph glyph-name="gcircumflex" unicode="&#x11d;" horiz-adv-x="500" 
d="M429 483c-1.33301 -18 -2.33105 -38.832 -2.99805 -62.499s-1 -49.167 -1 -76.5v-274c0 -42 -3.83301 -80.167 -11.5 -114.5s-19.834 -63.666 -36.501 -87.999s-38.334 -43 -65.001 -56s-59 -19.5 -97 -19.5c-24.667 0 -49.5 3.33301 -74.5 10s-45.5 16.667 -61.5 30
l10 15c14.667 -12 33.667 -21.333 57 -28s46.333 -10 69 -10c33.333 0 61.833 5.83301 85.5 17.5s43.167 28.5 58.5 50.5s26.666 48.833 33.999 80.5s11 67.167 11 106.5v26h-2c-19.333 -32 -44.333 -54.833 -75 -68.5s-62 -20.5 -94 -20.5c-27.333 0 -53 5.5 -77 16.5
s-44.833 27 -62.5 48s-31.667 47 -42 78s-15.5 66.5 -15.5 106.5c0 36.667 5.16699 70 15.5 100s24.5 55.667 42.5 77s39.333 37.666 64 48.999s51.334 17 80.001 17c18 0 35.5 -2.83301 52.5 -8.5s32.833 -13.334 47.5 -23.001s27.667 -21 39 -34s20.333 -26.833 27 -41.5
h2l4 97h19zM404.002 322.001c0 15.333 -4.16797 32.002 -12.501 50.002s-19.833 34.667 -34.5 50s-32 28.166 -52 38.499s-41.333 15.5 -64 15.5c-27.333 0 -52.166 -5.33301 -74.499 -16s-41.5 -26 -57.5 -46s-28.5 -43.833 -37.5 -71.5s-13.5 -58.5 -13.5 -92.5
c0 -37.333 4.66699 -70.333 14 -99s22 -52.834 38 -72.501s34.833 -34.667 56.5 -45s45.167 -15.5 70.5 -15.5c21.333 0 42 3.5 62 10.5s37.833 16.833 53.5 29.5s28.167 28.167 37.5 46.5s14 38.5 14 60.5v157zM263.001 681.003l92 -131h-20l-85 112h-2l-84 -112h-19
l89 131h29z" />
    <glyph glyph-name="Gbreve" unicode="&#x11e;" horiz-adv-x="576" 
d="M516 30c-15.333 -7.33301 -37.999 -15.333 -67.999 -24s-64.333 -13 -103 -13c-48 0 -90.833 8 -128.5 24s-69.834 38.667 -96.501 68s-47 65 -61 107s-21 89 -21 141c0 49.333 7.5 95.333 22.5 138s36.667 79.5 65 110.5s62.666 55.333 102.999 73s85.5 26.5 135.5 26.5
c30 0 56.5 -3.33301 79.5 -10s39.833 -13 50.5 -19l-6 -18c-11.333 6.66699 -28 13.167 -50 19.5s-46.667 9.5 -74 9.5c-46.667 0 -88.667 -8.33301 -126 -25s-69.166 -39.667 -95.499 -69s-46.5 -64 -60.5 -104s-21 -83.667 -21 -131c0 -50 6.5 -94.833 19.5 -134.5
s31.833 -73.5 56.5 -101.5s54.667 -49.5 90 -64.5s75 -22.5 119 -22.5c32.667 0 62.167 3.66699 88.5 11s46.833 14.333 61.5 21v256h-142v17h162v-286zM241.001 818c0.666992 -25.333 7.66699 -45.833 21 -61.5s36 -23.5 68 -23.5c27.333 0 48.833 6.66699 64.5 20
s23.834 35 24.501 65h16c-0.666992 -35.333 -10.334 -61.333 -29.001 -78s-44 -25 -76 -25c-37.333 0 -64 9.83301 -80 29.5s-24.333 44.167 -25 73.5h16z" />
    <glyph glyph-name="gbreve" unicode="&#x11f;" horiz-adv-x="500" 
d="M429 483c-1.33301 -18 -2.33105 -38.832 -2.99805 -62.499s-1 -49.167 -1 -76.5v-274c0 -42 -3.83301 -80.167 -11.5 -114.5s-19.834 -63.666 -36.501 -87.999s-38.334 -43 -65.001 -56s-59 -19.5 -97 -19.5c-24.667 0 -49.5 3.33301 -74.5 10s-45.5 16.667 -61.5 30
l10 15c14.667 -12 33.667 -21.333 57 -28s46.333 -10 69 -10c33.333 0 61.833 5.83301 85.5 17.5s43.167 28.5 58.5 50.5s26.666 48.833 33.999 80.5s11 67.167 11 106.5v26h-2c-19.333 -32 -44.333 -54.833 -75 -68.5s-62 -20.5 -94 -20.5c-27.333 0 -53 5.5 -77 16.5
s-44.833 27 -62.5 48s-31.667 47 -42 78s-15.5 66.5 -15.5 106.5c0 36.667 5.16699 70 15.5 100s24.5 55.667 42.5 77s39.333 37.666 64 48.999s51.334 17 80.001 17c18 0 35.5 -2.83301 52.5 -8.5s32.833 -13.334 47.5 -23.001s27.667 -21 39 -34s20.333 -26.833 27 -41.5
h2l4 97h19zM404.002 322.001c0 15.333 -4.16797 32.002 -12.501 50.002s-19.833 34.667 -34.5 50s-32 28.166 -52 38.499s-41.333 15.5 -64 15.5c-27.333 0 -52.166 -5.33301 -74.499 -16s-41.5 -26 -57.5 -46s-28.5 -43.833 -37.5 -71.5s-13.5 -58.5 -13.5 -92.5
c0 -37.333 4.66699 -70.333 14 -99s22 -52.834 38 -72.501s34.833 -34.667 56.5 -45s45.167 -15.5 70.5 -15.5c21.333 0 42 3.5 62 10.5s37.833 16.833 53.5 29.5s28.167 28.167 37.5 46.5s14 38.5 14 60.5v157zM167.001 667.003
c0.666992 -25.333 7.33203 -47.502 19.999 -66.502s33.667 -28.5 63 -28.5c25.333 0 45.333 8.33301 60 25s22.334 40 23.001 70h17c-0.666992 -36 -10 -64 -28 -84s-42 -30 -72 -30c-17.333 0 -32.333 3.16699 -45 9.5s-23 14.833 -31 25.5s-14 22.834 -18 36.501
s-6 27.834 -6 42.501h17z" />
    <glyph glyph-name="Gdotaccent" unicode="&#x120;" horiz-adv-x="576" 
d="M516 30c-15.333 -7.33301 -37.999 -15.333 -67.999 -24s-64.333 -13 -103 -13c-48 0 -90.833 8 -128.5 24s-69.834 38.667 -96.501 68s-47 65 -61 107s-21 89 -21 141c0 49.333 7.5 95.333 22.5 138s36.667 79.5 65 110.5s62.666 55.333 102.999 73s85.5 26.5 135.5 26.5
c30 0 56.5 -3.33301 79.5 -10s39.833 -13 50.5 -19l-6 -18c-11.333 6.66699 -28 13.167 -50 19.5s-46.667 9.5 -74 9.5c-46.667 0 -88.667 -8.33301 -126 -25s-69.166 -39.667 -95.499 -69s-46.5 -64 -60.5 -104s-21 -83.667 -21 -131c0 -50 6.5 -94.833 19.5 -134.5
s31.833 -73.5 56.5 -101.5s54.667 -49.5 90 -64.5s75 -22.5 119 -22.5c32.667 0 62.167 3.66699 88.5 11s46.833 14.333 61.5 21v256h-142v17h162v-286zM341.001 730c-6.66699 0 -12.167 2.33301 -16.5 7s-6.5 10 -6.5 16s2.16699 11.333 6.5 16s9.83301 7 16.5 7
c6 0 11.167 -2.33301 15.5 -7s6.5 -10 6.5 -16s-2.16699 -11.333 -6.5 -16s-9.5 -7 -15.5 -7z" />
    <glyph glyph-name="gdotaccent" unicode="&#x121;" horiz-adv-x="500" 
d="M429 483c-1.33301 -18 -2.33105 -38.832 -2.99805 -62.499s-1 -49.167 -1 -76.5v-274c0 -42 -3.83301 -80.167 -11.5 -114.5s-19.834 -63.666 -36.501 -87.999s-38.334 -43 -65.001 -56s-59 -19.5 -97 -19.5c-24.667 0 -49.5 3.33301 -74.5 10s-45.5 16.667 -61.5 30
l10 15c14.667 -12 33.667 -21.333 57 -28s46.333 -10 69 -10c33.333 0 61.833 5.83301 85.5 17.5s43.167 28.5 58.5 50.5s26.666 48.833 33.999 80.5s11 67.167 11 106.5v26h-2c-19.333 -32 -44.333 -54.833 -75 -68.5s-62 -20.5 -94 -20.5c-27.333 0 -53 5.5 -77 16.5
s-44.833 27 -62.5 48s-31.667 47 -42 78s-15.5 66.5 -15.5 106.5c0 36.667 5.16699 70 15.5 100s24.5 55.667 42.5 77s39.333 37.666 64 48.999s51.334 17 80.001 17c18 0 35.5 -2.83301 52.5 -8.5s32.833 -13.334 47.5 -23.001s27.667 -21 39 -34s20.333 -26.833 27 -41.5
h2l4 97h19zM404.002 322.001c0 15.333 -4.16797 32.002 -12.501 50.002s-19.833 34.667 -34.5 50s-32 28.166 -52 38.499s-41.333 15.5 -64 15.5c-27.333 0 -52.166 -5.33301 -74.499 -16s-41.5 -26 -57.5 -46s-28.5 -43.833 -37.5 -71.5s-13.5 -58.5 -13.5 -92.5
c0 -37.333 4.66699 -70.333 14 -99s22 -52.834 38 -72.501s34.833 -34.667 56.5 -45s45.167 -15.5 70.5 -15.5c21.333 0 42 3.5 62 10.5s37.833 16.833 53.5 29.5s28.167 28.167 37.5 46.5s14 38.5 14 60.5v157zM250.001 584.003c-6.66699 0 -12.167 2.33301 -16.5 7
s-6.5 10 -6.5 16s2.16699 11.333 6.5 16s9.83301 7 16.5 7c6 0 11.167 -2.33301 15.5 -7s6.5 -10 6.5 -16s-2 -11.333 -6 -16s-9.33301 -7 -16 -7z" />
    <glyph glyph-name="uni0122" unicode="&#x122;" horiz-adv-x="576" 
d="M516 30c-15.333 -7.33301 -37.999 -15.333 -67.999 -24s-64.333 -13 -103 -13c-48 0 -90.833 8 -128.5 24s-69.834 38.667 -96.501 68s-47 65 -61 107s-21 89 -21 141c0 49.333 7.5 95.333 22.5 138s36.667 79.5 65 110.5s62.666 55.333 102.999 73s85.5 26.5 135.5 26.5
c30 0 56.5 -3.33301 79.5 -10s39.833 -13 50.5 -19l-6 -18c-11.333 6.66699 -28 13.167 -50 19.5s-46.667 9.5 -74 9.5c-46.667 0 -88.667 -8.33301 -126 -25s-69.166 -39.667 -95.499 -69s-46.5 -64 -60.5 -104s-21 -83.667 -21 -131c0 -50 6.5 -94.833 19.5 -134.5
s31.833 -73.5 56.5 -101.5s54.667 -49.5 90 -64.5s75 -22.5 119 -22.5c32.667 0 62.167 3.66699 88.5 11s46.833 14.333 61.5 21v256h-142v17h162v-286zM386.001 -96c0 -14.667 -3.16699 -27.332 -9.5 -37.999s-14.5 -19.667 -24.5 -27s-21.5 -12.833 -34.5 -16.5
s-26.167 -5.83398 -39.5 -6.50098l-5 13c12 1.33301 23.667 3.66602 35 6.99902s21.333 8 30 14s15.667 13.333 21 22s8 19.334 8 32.001c0 14 -4 26.5 -12 37.5s-16.667 19.833 -26 26.5l20 4c10 -8 18.667 -17.667 26 -29s11 -24.333 11 -39z" />
    <glyph glyph-name="uni0123" unicode="&#x123;" horiz-adv-x="500" 
d="M429 483c-1.33301 -18 -2.33105 -38.832 -2.99805 -62.499s-1 -49.167 -1 -76.5v-274c0 -42 -3.83301 -80.167 -11.5 -114.5s-19.834 -63.666 -36.501 -87.999s-38.334 -43 -65.001 -56s-59 -19.5 -97 -19.5c-24.667 0 -49.5 3.33301 -74.5 10s-45.5 16.667 -61.5 30
l10 15c14.667 -12 33.667 -21.333 57 -28s46.333 -10 69 -10c33.333 0 61.833 5.83301 85.5 17.5s43.167 28.5 58.5 50.5s26.666 48.833 33.999 80.5s11 67.167 11 106.5v26h-2c-19.333 -32 -44.333 -54.833 -75 -68.5s-62 -20.5 -94 -20.5c-27.333 0 -53 5.5 -77 16.5
s-44.833 27 -62.5 48s-31.667 47 -42 78s-15.5 66.5 -15.5 106.5c0 36.667 5.16699 70 15.5 100s24.5 55.667 42.5 77s39.333 37.666 64 48.999s51.334 17 80.001 17c18 0 35.5 -2.83301 52.5 -8.5s32.833 -13.334 47.5 -23.001s27.667 -21 39 -34s20.333 -26.833 27 -41.5
h2l4 97h19zM404.002 322.001c0 15.333 -4.16797 32.002 -12.501 50.002s-19.833 34.667 -34.5 50s-32 28.166 -52 38.499s-41.333 15.5 -64 15.5c-27.333 0 -52.166 -5.33301 -74.499 -16s-41.5 -26 -57.5 -46s-28.5 -43.833 -37.5 -71.5s-13.5 -58.5 -13.5 -92.5
c0 -37.333 4.66699 -70.333 14 -99s22 -52.834 38 -72.501s34.833 -34.667 56.5 -45s45.167 -15.5 70.5 -15.5c21.333 0 42 3.5 62 10.5s37.833 16.833 53.5 29.5s28.167 28.167 37.5 46.5s14 38.5 14 60.5v157zM203.014 613.997c0 14.666 3.16602 27.3291 9.49902 37.9951
s14.499 19.665 24.498 26.998s21.498 12.833 34.4971 16.5s26.165 5.83301 39.498 6.49902l5 -12.999c-11.999 -1.33301 -23.665 -3.66602 -34.998 -6.99902s-21.332 -7.99902 -29.998 -13.998c-8.66602 -6 -15.666 -13.333 -20.999 -21.999
s-7.99902 -19.332 -7.99902 -31.998c0 -13.999 4 -26.498 11.999 -37.4971s16.665 -19.832 25.998 -26.498l-19.998 -4c-9.99902 8 -18.665 17.666 -25.998 28.998c-7.33301 11.333 -10.999 24.332 -10.999 38.998z" />
    <glyph glyph-name="Hcircumflex" unicode="&#x124;" horiz-adv-x="595" 
d="M312 821l92 -111h-20l-86 92h-2l-85 -92h-20l91 111h30zM105 674v-309h385v309h21v-674h-21v346h-385v-346h-21v674h21z" />
    <glyph glyph-name="hcircumflex" unicode="&#x125;" horiz-adv-x="496" 
d="M256 851l91 -111h-20l-85 92h-2l-84 -92h-19l89 111h30zM101 382l2.00098 0.000976562c16.667 34.667 37.667 61.834 63 81.501s57 29.5 95 29.5c28 0 52.167 -5.16699 72.5 -15.5s36.833 -24.833 49.5 -43.5s22 -41.334 28 -68.001s9 -56.334 9 -89.001v-277h-21v276
c0 38 -3.66699 69.667 -11 95s-17.5 45.833 -30.5 61.5s-28 26.834 -45 33.501s-34.833 10 -53.5 10c-20 0 -38.333 -3.83301 -55 -11.5s-31.334 -17.334 -44.001 -29.001s-23.167 -24.667 -31.5 -39s-14.5 -28.5 -18.5 -42.5s-6.5 -26.5 -7.5 -37.5s-1.5 -27.5 -1.5 -49.5
v-267h-21v709h21v-327z" />
    <glyph glyph-name="Hbar" unicode="&#x126;" horiz-adv-x="595" 
d="M105 674v-108h385v108h21v-108h68v-17h-68v-549h-21v346h-385v-346h-21v549h-68v17h68v108h21zM490 365v184h-385v-184h385z" />
    <glyph glyph-name="hbar" unicode="&#x127;" horiz-adv-x="496" 
d="M101 593l177.001 0.000976562v-16h-177v-195h2c16.667 34.667 37.667 61.834 63 81.501s57 29.5 95 29.5c28 0 52.167 -5.16699 72.5 -15.5s36.833 -24.833 49.5 -43.5s22 -41.334 28 -68.001s9 -56.334 9 -89.001v-277h-21v276c0 38 -3.66699 69.667 -11 95
s-17.5 45.833 -30.5 61.5s-28 26.834 -45 33.501s-34.833 10 -53.5 10c-20 0 -38.333 -3.83301 -55 -11.5s-31.334 -17.334 -44.001 -29.001s-23.167 -24.667 -31.5 -39s-14.5 -28.5 -18.5 -42.5s-6.5 -26.5 -7.5 -37.5s-1.5 -27.5 -1.5 -49.5v-267h-21v577h-69v16h69v116
h21v-116z" />
    <glyph glyph-name="Itilde" unicode="&#x128;" horiz-adv-x="195" 
d="M108 674v-674h-21v674h21zM-7 718c-0.666992 24 3.66895 43.167 13.002 57.5s22.666 21.5 39.999 21.5c12 0 22.833 -3 32.5 -9s18.667 -12.667 27 -20s16.5 -14 24.5 -20s16.333 -9 25 -9c9.33301 0 16.666 3.83301 21.999 11.5s8.66602 24.167 9.99902 49.5h16
c-1.33301 -30.667 -6.16602 -51.5 -14.499 -62.5s-19.5 -16.5 -33.5 -16.5c-11.333 0 -21.5 3 -30.5 9s-17.5 12.667 -25.5 20s-16.167 14 -24.5 20s-17.833 9 -28.5 9c-12 0 -21.333 -5.33301 -28 -16s-9.66699 -25.667 -9 -45h-16z" />
    <glyph glyph-name="itilde" unicode="&#x129;" horiz-adv-x="181" 
d="M101 0h-21v483h21v-483zM-14 568c-0.666992 24 3.66895 43.167 13.002 57.5s22.666 21.5 39.999 21.5c12 0 22.833 -3 32.5 -9s18.667 -12.667 27 -20s16.5 -14 24.5 -20s16.333 -9 25 -9c9.33301 0 16.666 3.83301 21.999 11.5s8.66602 24.167 9.99902 49.5h16
c-1.33301 -30.667 -6.16602 -51.5 -14.499 -62.5s-19.5 -16.5 -33.5 -16.5c-11.333 0 -21.5 3 -30.5 9s-17.5 12.667 -25.5 20s-16.167 14 -24.5 20s-17.833 9 -28.5 9c-12 0 -21.333 -5.33301 -28 -16s-9.66699 -25.667 -9 -45h-16z" />
    <glyph glyph-name="Imacron" unicode="&#x12a;" horiz-adv-x="195" 
d="M108 674v-674h-21v674h21zM200 757v-18h-205v18h205z" />
    <glyph glyph-name="imacron" unicode="&#x12b;" horiz-adv-x="181" 
d="M101 0h-21v483h21v-483zM183 611v-17h-185v17h185z" />
    <glyph glyph-name="Ibreve" unicode="&#x12c;" horiz-adv-x="195" 
d="M108 674v-674h-21v674h21zM9 818c0.666992 -25.333 7.66699 -45.833 21 -61.5s36 -23.5 68 -23.5c27.333 0 48.833 6.66699 64.5 20s23.834 35 24.501 65h16c-0.666992 -35.333 -10.334 -61.333 -29.001 -78s-44 -25 -76 -25c-37.333 0 -64 9.83301 -80 29.5
s-24.333 44.167 -25 73.5h16z" />
    <glyph glyph-name="ibreve" unicode="&#x12d;" horiz-adv-x="181" 
d="M101 0h-21v483h21v-483zM8 667c0.666992 -25.333 7.33203 -47.502 19.999 -66.502s33.667 -28.5 63 -28.5c25.333 0 45.333 8.33301 60 25s22.334 40 23.001 70h17c-0.666992 -36 -10 -64 -28 -84s-42 -30 -72 -30c-17.333 0 -32.333 3.16699 -45 9.5
s-23 14.833 -31 25.5s-14 22.834 -18 36.501s-6 27.834 -6 42.501h17z" />
    <glyph glyph-name="Iogonek" unicode="&#x12e;" horiz-adv-x="195" 
d="M108 674l-0.000976562 -674.003h-4c-6 -6 -12.833 -13.5 -20.5 -22.5s-15.167 -18.833 -22.5 -29.5s-13.5 -22 -18.5 -34s-7.5 -24.333 -7.5 -37c0 -17.333 4.66699 -30.833 14 -40.5s20.333 -14.5 33 -14.5c14 0 27.667 4.33301 41 13l4 -15
c-7.33301 -5.33301 -15 -9.16602 -23 -11.499s-15.667 -3.5 -23 -3.5c-17.333 0 -32.666 5.83301 -45.999 17.5s-20 29.834 -20 54.501c0 13.333 2.5 26 7.5 38s11.333 23.333 19 34s15.667 20.334 24 29.001l21.5 23v673h21z" />
    <glyph glyph-name="iogonek" unicode="&#x12f;" horiz-adv-x="181" 
d="M80 483l20.999 -0.00195312v-483h-8c-6 -6 -12.833 -13.5 -20.5 -22.5s-15.167 -18.833 -22.5 -29.5s-13.5 -22 -18.5 -34s-7.5 -24.333 -7.5 -37c0 -17.333 4.66699 -30.833 14 -40.5s20.333 -14.5 33 -14.5c14 0 27.667 4.33301 41 13l4 -15
c-7.33301 -5.33301 -15 -9.16602 -23 -11.499s-15.667 -3.5 -23 -3.5c-17.333 0 -32.666 5.83301 -45.999 17.5s-20 29.834 -20 54.501c0 14 2.83301 27.333 8.5 40s12.5 24.5 20.5 35.5s16.333 21 25 30l22 22.5v478zM111.999 621.998c0 -6 -2 -11 -6 -15s-9 -6 -15 -6
s-11.167 2 -15.5 6s-6.5 9 -6.5 15s2.16699 11 6.5 15s9.5 6 15.5 6s11 -2 15 -6s6 -9 6 -15z" />
    <glyph glyph-name="Idotaccent" unicode="&#x130;" horiz-adv-x="195" 
d="M108 674v-674h-21v674h21zM98 730c-6.66699 0 -12.167 2.33301 -16.5 7s-6.5 10 -6.5 16s2.16699 11.333 6.5 16s9.83301 7 16.5 7c6 0 11.167 -2.33301 15.5 -7s6.5 -10 6.5 -16s-2.16699 -11.333 -6.5 -16s-9.5 -7 -15.5 -7z" />
    <glyph glyph-name="dotlessi" unicode="&#x131;" horiz-adv-x="181" 
d="M101 0h-21v483h21v-483z" />
    <glyph glyph-name="IJ" unicode="&#x132;" horiz-adv-x="504" 
d="M108 674v-674h-21v674h21zM429 674l-0.00292969 -457.002c0 -44 -3.66699 -80.667 -11 -110s-17.166 -52.666 -29.499 -69.999s-27 -29.666 -44 -36.999s-35.167 -11 -54.5 -11c-16 0 -31.667 1.5 -47 4.5s-28 6.5 -38 10.5l5 17c10 -3.33301 21.833 -6.5 35.5 -9.5
s28.167 -4.5 43.5 -4.5c16.667 0 32.334 3.33301 47.001 10s27.334 18.167 38.001 34.5s19 38 25 65s9 60.833 9 101.5v456h21z" />
    <glyph glyph-name="ij" unicode="&#x133;" horiz-adv-x="371" 
d="M112 622c0 -6 -2 -11 -6 -15s-9 -6 -15 -6s-11.167 2 -15.5 6s-6.5 9 -6.5 15s2.16699 11 6.5 15s9.5 6 15.5 6s11 -2 15 -6s6 -9 6 -15zM101 0h-21v483h21v-483zM302 622c0 -6 -2 -11 -6 -15s-9 -6 -15 -6s-11.167 2 -15.5 6s-6.5 9 -6.5 15s2.16699 11 6.5 15
s9.5 6 15.5 6s11 -2 15 -6s6 -9 6 -15zM291 39c0 -28 -0.831055 -52.6709 -2.49805 -74.0039s-4.16699 -39.666 -7.5 -54.999s-7.5 -28.333 -12.5 -39s-10.833 -20 -17.5 -28c-11.333 -13.333 -26.166 -24.833 -44.499 -34.5s-37.5 -15.167 -57.5 -16.5l-3 18
c19.333 2 36.666 7 51.999 15s27.666 18 36.999 30c5.33301 6.66699 10.166 14.834 14.499 24.501s8 21.834 11 36.501s5.33301 32.334 7 53.001s2.5 45.667 2.5 75v439h21v-444z" />
    <glyph glyph-name="Jcircumflex" unicode="&#x134;" horiz-adv-x="309" 
d="M234 674l-0.00292969 -457.002c0 -44 -3.66699 -80.667 -11 -110s-17.166 -52.666 -29.499 -69.999s-27 -29.666 -44 -36.999s-35.167 -11 -54.5 -11c-16 0 -31.667 1.5 -47 4.5s-28 6.5 -38 10.5l5 17c10 -3.33301 21.833 -6.5 35.5 -9.5s28.167 -4.5 43.5 -4.5
c16.667 0 32.334 3.33301 47.001 10s27.334 18.167 38.001 34.5s19 38 25 65s9 60.833 9 101.5v456h21zM238.997 820.998l92 -111h-20l-86 92h-2l-85 -92h-20l91 111h30z" />
    <glyph glyph-name="jcircumflex" unicode="&#x135;" horiz-adv-x="190" 
d="M110 39c0 -28 -0.831055 -52.6709 -2.49805 -74.0039s-4.16699 -39.666 -7.5 -54.999s-7.5 -28.333 -12.5 -39s-10.833 -20 -17.5 -28c-11.333 -13.333 -26.166 -24.833 -44.499 -34.5s-37.5 -15.167 -57.5 -16.5l-3 18c19.333 2 36.666 7 51.999 15s27.666 18 36.999 30
c5.33301 6.66699 10.166 14.834 14.499 24.501s8 21.834 11 36.501s5.33301 32.334 7 53.001s2.5 45.667 2.5 75v439h21v-444zM113.002 680.996l92 -131h-20l-85 112h-2l-84 -112h-19l89 131h29z" />
    <glyph glyph-name="uni0136" unicode="&#x136;" horiz-adv-x="483" 
d="M105 674v-350h2l34 38.5l34 38.5l247 273h28l-259 -285l282 -389h-27l-270 374l-71 -77v-297h-21v674h21zM303 -96c0 -14.667 -3.16699 -27.332 -9.5 -37.999s-14.5 -19.667 -24.5 -27s-21.5 -12.833 -34.5 -16.5s-26.167 -5.83398 -39.5 -6.50098l-5 13
c12 1.33301 23.667 3.66602 35 6.99902s21.333 8 30 14s15.667 13.333 21 22s8 19.334 8 32.001c0 14 -4 26.5 -12 37.5s-16.667 19.833 -26 26.5l20 4c10 -8 18.667 -17.667 26 -29s11 -24.333 11 -39z" />
    <glyph glyph-name="uni0137" unicode="&#x137;" horiz-adv-x="398" 
d="M97 0l-38.001 -63.998c19.333 -1.33301 36.5 -7.33301 51.5 -18s22.5 -26.334 22.5 -47.001c0 -11.333 -2.16699 -21 -6.5 -29s-10 -14.5 -17 -19.5s-14.833 -8.66699 -23.5 -11s-17.334 -3.5 -26.001 -3.5c-12 0 -23.167 1.66699 -33.5 5s-18.833 7.66602 -25.5 12.999
l6 16c13.333 -11.333 31 -17 53 -17c12.667 0 24.834 3.33301 36.501 10s17.5 18.667 17.5 36c0 10 -2.33301 18.333 -7 25s-10.667 12 -18 16s-15.666 7 -24.999 9s-19 3 -29 3l45 78v707h21v-501h2l47.5 53l46.5 53l150 169h28l-181 -201l212 -282h-27l-199 269l-79 -86
v-183h-4z" />
    <glyph glyph-name="kgreenlandic" unicode="&#x138;" horiz-adv-x="398" 
d="M101 208h2l47.5 53l46.5 53l150 169h28l-181 -201l212 -282h-27l-199 269l-79 -86v-183h-21v483h21v-275z" />
    <glyph glyph-name="Lacute" unicode="&#x139;" horiz-adv-x="403" 
d="M105 674v-655h280v-19h-301v674h21zM213 825l-122 -115h-18l99 115h41z" />
    <glyph glyph-name="lacute" unicode="&#x13a;" horiz-adv-x="181" 
d="M187 836l-110 -96h-19l92 96h37zM101 0h-21v709h21v-709z" />
    <glyph glyph-name="uni013B" unicode="&#x13b;" horiz-adv-x="403" 
d="M105 674v-655h280v-19h-301v674h21zM278 -96c0 -14.667 -3.16699 -27.332 -9.5 -37.999s-14.5 -19.667 -24.5 -27s-21.5 -12.833 -34.5 -16.5s-26.167 -5.83398 -39.5 -6.50098l-5 13c12 1.33301 23.667 3.66602 35 6.99902s21.333 8 30 14s15.667 13.333 21 22
s8 19.334 8 32.001c0 14 -4 26.5 -12 37.5s-16.667 19.833 -26 26.5l20 4c10 -8 18.667 -17.667 26 -29s11 -24.333 11 -39z" />
    <glyph glyph-name="uni013C" unicode="&#x13c;" horiz-adv-x="181" 
d="M101 0h-21v709h21v-709zM136 -96c0 -14.667 -3.16699 -27.332 -9.5 -37.999s-14.5 -19.667 -24.5 -27s-21.5 -12.833 -34.5 -16.5s-26.167 -5.83398 -39.5 -6.50098l-5 13c12 1.33301 23.667 3.66602 35 6.99902s21.333 8 30 14s15.667 13.333 21 22s8 19.334 8 32.001
c0 14 -4 26.5 -12 37.5s-16.667 19.833 -26 26.5l20 4c10 -8 18.667 -17.667 26 -29s11 -24.333 11 -39z" />
    <glyph glyph-name="Lcaron" unicode="&#x13d;" horiz-adv-x="403" 
d="M105 674v-655h280v-19h-301v674h21zM356 610c0 -14.667 -3.16699 -27.332 -9.5 -37.999s-14.5 -19.667 -24.5 -27s-21.5 -12.833 -34.5 -16.5s-26.167 -5.83398 -39.5 -6.50098l-5 13c12 1.33301 23.667 3.66602 35 6.99902s21.333 8 30 14s15.667 13.333 21 22
s8 19.334 8 32.001c0 14 -4 26.5 -12 37.5s-16.667 19.833 -26 26.5l20 4c10 -8 18.667 -17.667 26 -29s11 -24.333 11 -39z" />
    <glyph glyph-name="lcaron" unicode="&#x13e;" horiz-adv-x="191" 
d="M101 0h-21v709h21v-709zM217 639c0 -24 -5.83105 -44.999 -17.498 -62.999s-23.834 -31.667 -36.501 -41l-11 8c11.333 9.33301 21.833 21.666 31.5 36.999s14.5 35 14.5 59c0 16.667 -3.5 30.5 -10.5 41.5s-14.833 20.167 -23.5 27.5l17 4
c9.33301 -8 17.666 -18.167 24.999 -30.5s11 -26.5 11 -42.5z" />
    <glyph glyph-name="Ldot" unicode="&#x13f;" horiz-adv-x="403" 
d="M105 674v-655h280v-19h-301v674h21zM301 341c-6.66699 0 -12.167 2.33301 -16.5 7s-6.5 10 -6.5 16s2.16699 11.333 6.5 16s9.83301 7 16.5 7c6 0 11.167 -2.33301 15.5 -7s6.5 -10 6.5 -16s-2.16699 -11.333 -6.5 -16s-9.5 -7 -15.5 -7z" />
    <glyph glyph-name="ldot" unicode="&#x140;" horiz-adv-x="191" 
d="M101 0h-21v709h21v-709zM188 362c-6.66699 0 -12.167 2.33301 -16.5 7s-6.5 10 -6.5 16s2.16699 11.333 6.5 16s9.83301 7 16.5 7c6 0 11.167 -2.33301 15.5 -7s6.5 -10 6.5 -16s-2 -11.333 -6 -16s-9.33301 -7 -16 -7z" />
    <glyph glyph-name="Lslash" unicode="&#x141;" horiz-adv-x="408" 
d="M110 674v-326l139 102v-21l-139 -102v-308h280v-19h-301v312l-83 -61v21l83 61v341h21z" />
    <glyph glyph-name="lslash" unicode="&#x142;" horiz-adv-x="189" 
d="M105 355v-355h-21v337l-66 -55v22l66 55v350h21v-332l75 63v-22z" />
    <glyph glyph-name="Nacute" unicode="&#x143;" horiz-adv-x="605" 
d="M109 674l221 -360l85.5 -140l83.5 -138h2c-0.666992 53.333 -1 106 -1 158v159v321h21v-674h-23l-219 355l-87 143l-86 143h-2c0.666992 -53.333 1 -106.333 1 -159v-161v-321h-21v674h25zM438 825l-122 -115h-18l99 115h41z" />
    <glyph glyph-name="nacute" unicode="&#x144;" horiz-adv-x="496" 
d="M420 0l-21 0.00195312v276c0 38 -3.66699 69.667 -11 95s-17.5 45.833 -30.5 61.5s-28 26.834 -45 33.501s-34.833 10 -53.5 10c-20 0 -38.333 -3.83301 -55 -11.5s-31.334 -17.334 -44.001 -29.001s-23.167 -24.667 -31.5 -39s-14.5 -28.5 -18.5 -42.5
s-6.5 -26.5 -7.5 -37.5s-1.5 -27.5 -1.5 -49.5v-267h-21v312c0 13.333 -0.166992 27.833 -0.5 43.5l-1 47c-0.333008 15.667 -0.666016 30.5 -0.999023 44.5s-0.833008 26 -1.5 36h19l4 -103h2c16.667 34.667 38 62.167 64 82.5s58 30.5 96 30.5
c28 0 52.167 -5.16699 72.5 -15.5s36.833 -24.833 49.5 -43.5s22 -41.334 28 -68.001s9 -56.334 9 -89.001v-277zM347 686.002l-113 -136h-16l93 136h36z" />
    <glyph glyph-name="uni0145" unicode="&#x145;" horiz-adv-x="605" 
d="M109 674l221 -360l85.5 -140l83.5 -138h2c-0.666992 53.333 -1 106 -1 158v159v321h21v-674h-23l-219 355l-87 143l-86 143h-2c0.666992 -53.333 1 -106.333 1 -159v-161v-321h-21v674h25zM346 -96c0 -14.667 -3.16699 -27.332 -9.5 -37.999s-14.5 -19.667 -24.5 -27
s-21.5 -12.833 -34.5 -16.5s-26.167 -5.83398 -39.5 -6.50098l-5 13c12 1.33301 23.667 3.66602 35 6.99902s21.333 8 30 14s15.667 13.333 21 22s8 19.334 8 32.001c0 14 -4 26.5 -12 37.5s-16.667 19.833 -26 26.5l20 4c10 -8 18.667 -17.667 26 -29s11 -24.333 11 -39z
" />
    <glyph glyph-name="uni0146" unicode="&#x146;" horiz-adv-x="496" 
d="M420 0l-21 0.00195312v276c0 38 -3.66699 69.667 -11 95s-17.5 45.833 -30.5 61.5s-28 26.834 -45 33.501s-34.833 10 -53.5 10c-20 0 -38.333 -3.83301 -55 -11.5s-31.334 -17.334 -44.001 -29.001s-23.167 -24.667 -31.5 -39s-14.5 -28.5 -18.5 -42.5
s-6.5 -26.5 -7.5 -37.5s-1.5 -27.5 -1.5 -49.5v-267h-21v312c0 13.333 -0.166992 27.833 -0.5 43.5l-1 47c-0.333008 15.667 -0.666016 30.5 -0.999023 44.5s-0.833008 26 -1.5 36h19l4 -103h2c16.667 34.667 38 62.167 64 82.5s58 30.5 96 30.5
c28 0 52.167 -5.16699 72.5 -15.5s36.833 -24.833 49.5 -43.5s22 -41.334 28 -68.001s9 -56.334 9 -89.001v-277zM296 -95.998c0 -14.667 -3.16699 -27.332 -9.5 -37.999s-14.5 -19.667 -24.5 -27s-21.5 -12.833 -34.5 -16.5s-26.167 -5.83398 -39.5 -6.50098l-5 13
c12 1.33301 23.667 3.66602 35 6.99902s21.333 8 30 14s15.667 13.333 21 22s8 19.334 8 32.001c0 14 -4 26.5 -12 37.5s-16.667 19.833 -26 26.5l20 4c10 -8 18.667 -17.667 26 -29s11 -24.333 11 -39z" />
    <glyph glyph-name="Ncaron" unicode="&#x147;" horiz-adv-x="605" 
d="M109 674l221 -360l85.5 -140l83.5 -138h2c-0.666992 53.333 -1 106 -1 158v159v321h21v-674h-23l-219 355l-87 143l-86 143h-2c0.666992 -53.333 1 -106.333 1 -159v-161v-321h-21v674h25zM304 710l-93 111h20l86 -92h2l85 92h20l-91 -111h-29z" />
    <glyph glyph-name="ncaron" unicode="&#x148;" horiz-adv-x="496" 
d="M420 0l-21 0.00195312v276c0 38 -3.66699 69.667 -11 95s-17.5 45.833 -30.5 61.5s-28 26.834 -45 33.501s-34.833 10 -53.5 10c-20 0 -38.333 -3.83301 -55 -11.5s-31.334 -17.334 -44.001 -29.001s-23.167 -24.667 -31.5 -39s-14.5 -28.5 -18.5 -42.5
s-6.5 -26.5 -7.5 -37.5s-1.5 -27.5 -1.5 -49.5v-267h-21v312c0 13.333 -0.166992 27.833 -0.5 43.5l-1 47c-0.333008 15.667 -0.666016 30.5 -0.999023 44.5s-0.833008 26 -1.5 36h19l4 -103h2c16.667 34.667 38 62.167 64 82.5s58 30.5 96 30.5
c28 0 52.167 -5.16699 72.5 -15.5s36.833 -24.833 49.5 -43.5s22 -41.334 28 -68.001s9 -56.334 9 -89.001v-277zM237 550.002l-92 131h20l85 -112h2l84 112h19l-89 -131h-29z" />
    <glyph glyph-name="napostrophe" unicode="&#x149;" horiz-adv-x="496" 
d="M420 0l-21 0.00195312v276c0 38 -3.66699 69.667 -11 95s-17.5 45.833 -30.5 61.5s-28 26.834 -45 33.501s-34.833 10 -53.5 10c-20 0 -38.333 -3.83301 -55 -11.5s-31.334 -17.334 -44.001 -29.001s-23.167 -24.667 -31.5 -39s-14.5 -28.5 -18.5 -42.5
s-6.5 -26.5 -7.5 -37.5s-1.5 -27.5 -1.5 -49.5v-267h-21v312c0 13.333 -0.166992 27.833 -0.5 43.5l-1 47c-0.333008 15.667 -0.666016 30.5 -0.999023 44.5s-0.833008 26 -1.5 36h19l4 -103h2c16.667 34.667 38 62.167 64 82.5s58 30.5 96 30.5
c28 0 52.167 -5.16699 72.5 -15.5s36.833 -24.833 49.5 -43.5s22 -41.334 28 -68.001s9 -56.334 9 -89.001v-277zM85 639.002c0 -24 -5.83105 -44.999 -17.498 -62.999s-23.834 -31.667 -36.501 -41l-11 8c11.333 9.33301 21.833 21.666 31.5 36.999s14.5 35 14.5 59
c0 16.667 -3.5 30.5 -10.5 41.5s-14.833 20.167 -23.5 27.5l17 4c9.33301 -8 17.666 -18.167 24.999 -30.5s11 -26.5 11 -42.5z" />
    <glyph glyph-name="Eng" unicode="&#x14a;" horiz-adv-x="605" 
d="M465 -145c8.66699 11.333 16.1689 27.668 22.502 49.001s10.166 52.666 11.499 93.999l-220 357l-87 143l-86 143h-2c0.666992 -53.333 1 -106.333 1 -159v-161v-321h-21v674h25l221 -360l85.5 -140.5l83.5 -138.5h2c-0.666992 53.333 -1 106.166 -1 158.499v159.5v321
h21v-635c0 -28 -0.833008 -52.667 -2.5 -74s-4.16699 -39.666 -7.5 -54.999s-7.5 -28.333 -12.5 -39s-10.833 -20 -17.5 -28c-11.333 -13.333 -26.166 -24.833 -44.499 -34.5s-37.5 -15.167 -57.5 -16.5l-3 18c19.333 2 36.666 7 51.999 15s27.666 18 36.999 30z" />
    <glyph glyph-name="eng" unicode="&#x14b;" horiz-adv-x="496" 
d="M80 0l0.00195312 311.998c0 13.333 -0.166992 27.833 -0.5 43.5l-1 47c-0.333008 15.667 -0.666016 30.5 -0.999023 44.5s-0.833008 26 -1.5 36h19l4 -103h2c16.667 34.667 38 62.167 64 82.5s58 30.5 96 30.5c28 0 52.167 -5.16699 72.5 -15.5
s36.833 -24.833 49.5 -43.5s22 -41.334 28 -68.001s9 -56.334 9 -89.001v-238c0 -28 -0.833008 -52.667 -2.5 -74s-4.16699 -39.666 -7.5 -54.999s-7.5 -28.333 -12.5 -39s-10.833 -20 -17.5 -28c-11.333 -13.333 -26.166 -24.833 -44.499 -34.5s-37.5 -15.167 -57.5 -16.5
l-3 18c19.333 2 36.666 7 51.999 15s27.666 18 36.999 30c5.33301 6.66699 10.166 14.834 14.499 24.501s8 21.834 11 36.501s5.33301 32.334 7 53.001s2.5 45.667 2.5 75v232c0 38 -3.66699 69.667 -11 95s-17.5 45.833 -30.5 61.5s-28 26.834 -45 33.501
s-34.833 10 -53.5 10c-20 0 -38.333 -3.83301 -55 -11.5s-31.334 -17.334 -44.001 -29.001s-23.167 -24.667 -31.5 -39s-14.5 -28.5 -18.5 -42.5s-6.5 -26.5 -7.5 -37.5s-1.5 -27.5 -1.5 -49.5v-267h-21z" />
    <glyph glyph-name="Omacron" unicode="&#x14c;" horiz-adv-x="613" 
d="M422 757v-18h-205v18h205zM587 344c0 -58 -7.66797 -109.167 -23.001 -153.5s-36 -81.333 -62 -111s-56.167 -52.167 -90.5 -67.5s-70.833 -23 -109.5 -23c-39.333 0 -75.833 8.16699 -109.5 24.5s-62.834 39.5 -87.501 69.5s-44 66 -58 108s-21 88.667 -21 140
c0 53.333 7.33301 101.833 22 145.5s34.834 81 60.501 112s55.834 54.833 90.501 71.5s72 25 112 25c41.333 0 79 -8.33301 113 -25s63 -40 87 -70s42.667 -66 56 -108s20 -88 20 -138zM563.999 343c0 46.667 -6.00098 89.667 -18.001 129s-29.167 73.5 -51.5 102.5
s-49 51.667 -80 68s-65.5 24.5 -103.5 24.5s-73 -8.16699 -105 -24.5s-59.667 -39.333 -83 -69s-41.5 -65 -54.5 -106s-19.5 -86.5 -19.5 -136.5c0 -47.333 6.33301 -90.833 19 -130.5s30.167 -73.834 52.5 -102.501s49 -51 80 -67s65.167 -24 102.5 -24
c36.667 0 70.834 7.5 102.501 22.5s59.167 36.833 82.5 65.5s41.833 63.834 55.5 105.501s20.5 89.167 20.5 142.5z" />
    <glyph glyph-name="omacron" unicode="&#x14d;" horiz-adv-x="483" 
d="M342 611v-17h-185v17h185zM452 246c0 -45.333 -6.33496 -84.1699 -19.002 -116.503s-29.167 -59 -49.5 -80s-43.333 -36.333 -69 -46s-51.167 -14.5 -76.5 -14.5c-29.333 0 -56.666 5.66699 -81.999 17s-47.166 27.833 -65.499 49.5s-32.833 47.834 -43.5 78.501
s-16 65.334 -16 104.001c0 40.667 5.66699 76.834 17 108.501s26.666 58.334 45.999 80.001s41.833 38.167 67.5 49.5s53.167 17 82.5 17c30.667 0 58.834 -6 84.501 -18s47.667 -28.667 66 -50s32.5 -47.333 42.5 -78s15 -64.334 15 -101.001zM429.998 245.996
c0 33.333 -4.33496 64 -13.002 92s-21.167 52.333 -37.5 73s-36 36.667 -59 48s-48.5 17 -76.5 17c-27.333 0 -52.666 -5.5 -75.999 -16.5s-43.5 -26.667 -60.5 -47s-30.333 -45.333 -40 -75s-14.5 -62.834 -14.5 -99.501c0 -35.333 4.83301 -67.333 14.5 -96
s22.834 -53 39.501 -73s36.5 -35.5 59.5 -46.5s48.167 -16.5 75.5 -16.5c22.667 0 45.167 4.83301 67.5 14.5s42.5 24.334 60.5 44.001s32.5 44.5 43.5 74.5s16.5 65.667 16.5 107z" />
    <glyph glyph-name="Obreve" unicode="&#x14e;" horiz-adv-x="613" 
d="M230 818c0.666992 -25.333 7.66699 -45.833 21 -61.5s36 -23.5 68 -23.5c27.333 0 48.833 6.66699 64.5 20s23.834 35 24.501 65h16c-0.666992 -35.333 -10.334 -61.333 -29.001 -78s-44 -25 -76 -25c-37.333 0 -64 9.83301 -80 29.5s-24.333 44.167 -25 73.5h16z
M587 344c0 -58 -7.66797 -109.167 -23.001 -153.5s-36 -81.333 -62 -111s-56.167 -52.167 -90.5 -67.5s-70.833 -23 -109.5 -23c-39.333 0 -75.833 8.16699 -109.5 24.5s-62.834 39.5 -87.501 69.5s-44 66 -58 108s-21 88.667 -21 140c0 53.333 7.33301 101.833 22 145.5
s34.834 81 60.501 112s55.834 54.833 90.501 71.5s72 25 112 25c41.333 0 79 -8.33301 113 -25s63 -40 87 -70s42.667 -66 56 -108s20 -88 20 -138zM563.999 343c0 46.667 -6.00098 89.667 -18.001 129s-29.167 73.5 -51.5 102.5s-49 51.667 -80 68s-65.5 24.5 -103.5 24.5
s-73 -8.16699 -105 -24.5s-59.667 -39.333 -83 -69s-41.5 -65 -54.5 -106s-19.5 -86.5 -19.5 -136.5c0 -47.333 6.33301 -90.833 19 -130.5s30.167 -73.834 52.5 -102.501s49 -51 80 -67s65.167 -24 102.5 -24c36.667 0 70.834 7.5 102.501 22.5s59.167 36.833 82.5 65.5
s41.833 63.834 55.5 105.501s20.5 89.167 20.5 142.5z" />
    <glyph glyph-name="obreve" unicode="&#x14f;" horiz-adv-x="483" 
d="M163 667c0.666992 -25.333 7.33203 -47.502 19.999 -66.502s33.667 -28.5 63 -28.5c25.333 0 45.333 8.33301 60 25s22.334 40 23.001 70h17c-0.666992 -36 -10 -64 -28 -84s-42 -30 -72 -30c-17.333 0 -32.333 3.16699 -45 9.5s-23 14.833 -31 25.5
s-14 22.834 -18 36.501s-6 27.834 -6 42.501h17zM451.998 245.998c0 -45.333 -6.33496 -84.1699 -19.002 -116.503s-29.167 -59 -49.5 -80s-43.333 -36.333 -69 -46s-51.167 -14.5 -76.5 -14.5c-29.333 0 -56.666 5.66699 -81.999 17s-47.166 27.833 -65.499 49.5
s-32.833 47.834 -43.5 78.501s-16 65.334 -16 104.001c0 40.667 5.66699 76.834 17 108.501s26.666 58.334 45.999 80.001s41.833 38.167 67.5 49.5s53.167 17 82.5 17c30.667 0 58.834 -6 84.501 -18s47.667 -28.667 66 -50s32.5 -47.333 42.5 -78s15 -64.334 15 -101.001z
M429.996 245.994c0 33.333 -4.33496 64 -13.002 92s-21.167 52.333 -37.5 73s-36 36.667 -59 48s-48.5 17 -76.5 17c-27.333 0 -52.666 -5.5 -75.999 -16.5s-43.5 -26.667 -60.5 -47s-30.333 -45.333 -40 -75s-14.5 -62.834 -14.5 -99.501
c0 -35.333 4.83301 -67.333 14.5 -96s22.834 -53 39.501 -73s36.5 -35.5 59.5 -46.5s48.167 -16.5 75.5 -16.5c22.667 0 45.167 4.83301 67.5 14.5s42.5 24.334 60.5 44.001s32.5 44.5 43.5 74.5s16.5 65.667 16.5 107z" />
    <glyph glyph-name="Ohungarumlaut" unicode="&#x150;" horiz-adv-x="613" 
d="M587 344c0 -58 -7.66797 -109.167 -23.001 -153.5s-36 -81.333 -62 -111s-56.167 -52.167 -90.5 -67.5s-70.833 -23 -109.5 -23c-39.333 0 -75.833 8.16699 -109.5 24.5s-62.834 39.5 -87.501 69.5s-44 66 -58 108s-21 88.667 -21 140c0 53.333 7.33301 101.833 22 145.5
s34.834 81 60.501 112s55.834 54.833 90.501 71.5s72 25 112 25c41.333 0 79 -8.33301 113 -25s63 -40 87 -70s42.667 -66 56 -108s20 -88 20 -138zM563.999 343c0 46.667 -6.00098 89.667 -18.001 129s-29.167 73.5 -51.5 102.5s-49 51.667 -80 68s-65.5 24.5 -103.5 24.5
s-73 -8.16699 -105 -24.5s-59.667 -39.333 -83 -69s-41.5 -65 -54.5 -106s-19.5 -86.5 -19.5 -136.5c0 -47.333 6.33301 -90.833 19 -130.5s30.167 -73.834 52.5 -102.501s49 -51 80 -67s65.167 -24 102.5 -24c36.667 0 70.834 7.5 102.501 22.5s59.167 36.833 82.5 65.5
s41.833 63.834 55.5 105.501s20.5 89.167 20.5 142.5zM354.998 825l-108 -110h-13l82 110h39zM472.998 825l-108 -110h-13l82 110h39z" />
    <glyph glyph-name="ohungarumlaut" unicode="&#x151;" horiz-adv-x="483" 
d="M452 246c0 -45.333 -6.33496 -84.1699 -19.002 -116.503s-29.167 -59 -49.5 -80s-43.333 -36.333 -69 -46s-51.167 -14.5 -76.5 -14.5c-29.333 0 -56.666 5.66699 -81.999 17s-47.166 27.833 -65.499 49.5s-32.833 47.834 -43.5 78.501s-16 65.334 -16 104.001
c0 40.667 5.66699 76.834 17 108.501s26.666 58.334 45.999 80.001s41.833 38.167 67.5 49.5s53.167 17 82.5 17c30.667 0 58.834 -6 84.501 -18s47.667 -28.667 66 -50s32.5 -47.333 42.5 -78s15 -64.334 15 -101.001zM429.998 245.996c0 33.333 -4.33496 64 -13.002 92
s-21.167 52.333 -37.5 73s-36 36.667 -59 48s-48.5 17 -76.5 17c-27.333 0 -52.666 -5.5 -75.999 -16.5s-43.5 -26.667 -60.5 -47s-30.333 -45.333 -40 -75s-14.5 -62.834 -14.5 -99.501c0 -35.333 4.83301 -67.333 14.5 -96s22.834 -53 39.501 -73s36.5 -35.5 59.5 -46.5
s48.167 -16.5 75.5 -16.5c22.667 0 45.167 4.83301 67.5 14.5s42.5 24.334 60.5 44.001s32.5 44.5 43.5 74.5s16.5 65.667 16.5 107zM288.996 685.996l-107 -136h-13l82 136h38zM406.996 685.996l-107 -136h-13l82 136h38z" />
    <glyph glyph-name="OE" unicode="&#x152;" horiz-adv-x="807" 
d="M757 656l-266.998 -0.00195312v-294h251v-19h-251v-324h282v-19h-294c-6 0 -14.833 -0.5 -26.5 -1.5s-24.834 -2.33301 -39.501 -4s-29.334 -3 -44.001 -4s-28 -1.5 -40 -1.5c-44 0 -83.833 8.16699 -119.5 24.5s-66.167 39.5 -91.5 69.5s-44.833 66 -58.5 108
s-20.5 89 -20.5 141c0 54 7 102.833 21 146.5s33.833 80.834 59.5 111.501s56.667 54.167 93 70.5s77.166 24.5 122.499 24.5c11.333 0 23.833 -0.5 37.5 -1.5s27.334 -2.16699 41.001 -3.5s26.5 -2.66602 38.5 -3.99902s21.667 -2 29 -2h277v-18zM469.002 654.998
l-66.5 7.99805c-22.333 2.66699 -45.166 4 -68.499 4c-41.333 0 -78.833 -7.83301 -112.5 -23.5s-62.334 -38 -86.001 -67s-42 -64 -55 -105s-19.5 -87.167 -19.5 -138.5c0 -49.333 6.33301 -94.166 19 -134.499s30.667 -74.666 54 -102.999s51.5 -50.166 84.5 -65.499
s70.167 -23 111.5 -23c23.333 0 46.333 1.16699 69 3.5s46 5.16602 70 8.49902v636z" />
    <glyph glyph-name="oe" unicode="&#x153;" horiz-adv-x="795" 
d="M755 293v-21.5049c0 -6.33301 -0.666992 -12.833 -2 -19.5h-328c0 -44 5 -81.5 15 -112.5s23.167 -56.5 39.5 -76.5s35 -34.5 56 -43.5s42.833 -13.5 65.5 -13.5c28.667 0 53.667 3.5 75 10.5s37.666 13.833 48.999 20.5l5 -17
c-13.333 -7.33301 -31.166 -14.333 -53.499 -21s-47.5 -10 -75.5 -10c-43.333 0 -81.5 13.333 -114.5 40s-56.5 67 -70.5 121h-2c-14.667 -54 -38.334 -94.333 -71.001 -121s-68 -40 -106 -40c-27.333 0 -53 5.66699 -77 17s-44.833 27.833 -62.5 49.5
s-31.5 47.834 -41.5 78.501s-15 65.334 -15 104.001c0 40.667 5.33301 76.834 16 108.501s25.167 58.334 43.5 80.001s39.833 38.167 64.5 49.5s50.667 17 78 17c38.667 0 73.5 -13.167 104.5 -39.5s53.167 -65.5 66.5 -117.5h2c14 52 36.167 91.167 66.5 117.5
s64.833 39.5 103.5 39.5c34 0 62 -6.83301 84 -20.5s39.333 -30.667 52 -51s21.334 -42.166 26.001 -65.499s7 -44.333 7 -63zM405 244.995c0 34 -3.99805 65.335 -11.998 94.002s-19 53.167 -33 73.5s-31 36.333 -51 48s-42 17.5 -66 17.5c-26 0 -50 -5.66699 -72 -17
s-41 -27.333 -57 -48s-28.5 -45.834 -37.5 -75.501s-13.5 -62.834 -13.5 -99.501c0 -35.333 4.5 -67.333 13.5 -96s21.167 -53 36.5 -73s33.666 -35.5 54.999 -46.5s44.666 -16.5 69.999 -16.5c20 0 40 4.83301 60 14.5s37.833 24.167 53.5 43.5s28.5 44 38.5 74
s15 65.667 15 107zM734.002 267.997c0.666992 4 0.99707 8.50098 0.99707 13.501v15.5c0 16.667 -2.16699 35.5 -6.5 56.5s-12.166 40.5 -23.499 58.5s-26.666 33.167 -45.999 45.5s-44 18.5 -74 18.5c-22.667 0 -43.5 -5 -62.5 -15s-35.5 -24.167 -49.5 -42.5
s-25.167 -40.333 -33.5 -66s-13.166 -53.834 -14.499 -84.501h309z" />
    <glyph glyph-name="Racute" unicode="&#x154;" horiz-adv-x="476" 
d="M426 0c-4.66699 9.33301 -10.332 28.667 -16.999 58s-15.667 66 -27 110c-8 30.667 -16.833 56 -26.5 76s-21.334 35.667 -35.001 47s-30 19.166 -49 23.499s-41.833 6.5 -68.5 6.5h-98v-321h-21v664c40 10 83.667 15 131 15c68.667 0 120.667 -14.667 156 -44
s53 -71.666 53 -126.999c0 -42 -12.333 -78.5 -37 -109.5s-60 -53.167 -106 -66.5v-2c34 -7.33301 60 -23.833 78 -49.5s32.667 -61.5 44 -107.5l28 -115c7.33301 -30 13.333 -49.333 18 -58h-23zM403.002 507.001c0 51.333 -16.165 89.833 -48.498 115.5
s-78.5 38.5 -138.5 38.5c-20.667 0 -40.334 -0.833008 -59.001 -2.5s-36 -4.5 -52 -8.5v-312h94c66 0 116.167 15.667 150.5 47s52.166 72 53.499 122zM353.004 825.001l-122 -115h-18l99 115h41z" />
    <glyph glyph-name="racute" unicode="&#x155;" horiz-adv-x="264" 
d="M95 483l4 -112.999h2c6 16.667 13.5 32.5 22.5 47.5s19.333 28.167 31 39.5s24 20.166 37 26.499s26.167 9.5 39.5 9.5c4 0 7.5 -0.166992 10.5 -0.5s6.16699 -0.833008 9.5 -1.5v-20c-3.33301 0.666992 -6.83301 1.16699 -10.5 1.5s-7.16699 0.5 -10.5 0.5
c-22 0 -44 -10 -66 -30s-39.333 -49.667 -52 -89c-4.66699 -14 -7.66699 -28 -9 -42s-2 -30.667 -2 -50v-262h-21v345c0 24 -0.5 47.5 -1.5 70.5s-1.83301 45.5 -2.5 67.5h19zM252 686.001l-113 -136h-16l93 136h36z" />
    <glyph glyph-name="uni0156" unicode="&#x156;" horiz-adv-x="476" 
d="M426 0c-4.66699 9.33301 -10.332 28.667 -16.999 58s-15.667 66 -27 110c-8 30.667 -16.833 56 -26.5 76s-21.334 35.667 -35.001 47s-30 19.166 -49 23.499s-41.833 6.5 -68.5 6.5h-98v-321h-21v664c40 10 83.667 15 131 15c68.667 0 120.667 -14.667 156 -44
s53 -71.666 53 -126.999c0 -42 -12.333 -78.5 -37 -109.5s-60 -53.167 -106 -66.5v-2c34 -7.33301 60 -23.833 78 -49.5s32.667 -61.5 44 -107.5l28 -115c7.33301 -30 13.333 -49.333 18 -58h-23zM403.002 507.001c0 51.333 -16.165 89.833 -48.498 115.5
s-78.5 38.5 -138.5 38.5c-20.667 0 -40.334 -0.833008 -59.001 -2.5s-36 -4.5 -52 -8.5v-312h94c66 0 116.167 15.667 150.5 47s52.166 72 53.499 122zM308.004 -95.999c0 -14.667 -3.16699 -27.332 -9.5 -37.999s-14.5 -19.667 -24.5 -27s-21.5 -12.833 -34.5 -16.5
s-26.167 -5.83398 -39.5 -6.50098l-5 13c12 1.33301 23.667 3.66602 35 6.99902s21.333 8 30 14s15.667 13.333 21 22s8 19.334 8 32.001c0 14 -4 26.5 -12 37.5s-16.667 19.833 -26 26.5l20 4c10 -8 18.667 -17.667 26 -29s11 -24.333 11 -39z" />
    <glyph glyph-name="uni0157" unicode="&#x157;" horiz-adv-x="264" 
d="M95 483l4 -112.999h2c6 16.667 13.5 32.5 22.5 47.5s19.333 28.167 31 39.5s24 20.166 37 26.499s26.167 9.5 39.5 9.5c4 0 7.5 -0.166992 10.5 -0.5s6.16699 -0.833008 9.5 -1.5v-20c-3.33301 0.666992 -6.83301 1.16699 -10.5 1.5s-7.16699 0.5 -10.5 0.5
c-22 0 -44 -10 -66 -30s-39.333 -49.667 -52 -89c-4.66699 -14 -7.66699 -28 -9 -42s-2 -30.667 -2 -50v-262h-21v345c0 24 -0.5 47.5 -1.5 70.5s-1.83301 45.5 -2.5 67.5h19zM146 -95.999c0 -14.667 -3.16699 -27.332 -9.5 -37.999s-14.5 -19.667 -24.5 -27
s-21.5 -12.833 -34.5 -16.5s-26.167 -5.83398 -39.5 -6.50098l-5 13c12 1.33301 23.667 3.66602 35 6.99902s21.333 8 30 14s15.667 13.333 21 22s8 19.334 8 32.001c0 14 -4 26.5 -12 37.5s-16.667 19.833 -26 26.5l20 4c10 -8 18.667 -17.667 26 -29s11 -24.333 11 -39z
" />
    <glyph glyph-name="Rcaron" unicode="&#x158;" horiz-adv-x="476" 
d="M426 0c-4.66699 9.33301 -10.332 28.667 -16.999 58s-15.667 66 -27 110c-8 30.667 -16.833 56 -26.5 76s-21.334 35.667 -35.001 47s-30 19.166 -49 23.499s-41.833 6.5 -68.5 6.5h-98v-321h-21v664c40 10 83.667 15 131 15c68.667 0 120.667 -14.667 156 -44
s53 -71.666 53 -126.999c0 -42 -12.333 -78.5 -37 -109.5s-60 -53.167 -106 -66.5v-2c34 -7.33301 60 -23.833 78 -49.5s32.667 -61.5 44 -107.5l28 -115c7.33301 -30 13.333 -49.333 18 -58h-23zM403.002 507.001c0 51.333 -16.165 89.833 -48.498 115.5
s-78.5 38.5 -138.5 38.5c-20.667 0 -40.334 -0.833008 -59.001 -2.5s-36 -4.5 -52 -8.5v-312h94c66 0 116.167 15.667 150.5 47s52.166 72 53.499 122zM231.004 710.001l-93 111h20l86 -92h2l85 92h20l-91 -111h-29z" />
    <glyph glyph-name="rcaron" unicode="&#x159;" horiz-adv-x="264" 
d="M95 483l4 -112.999h2c6 16.667 13.5 32.5 22.5 47.5s19.333 28.167 31 39.5s24 20.166 37 26.499s26.167 9.5 39.5 9.5c4 0 7.5 -0.166992 10.5 -0.5s6.16699 -0.833008 9.5 -1.5v-20c-3.33301 0.666992 -6.83301 1.16699 -10.5 1.5s-7.16699 0.5 -10.5 0.5
c-22 0 -44 -10 -66 -30s-39.333 -49.667 -52 -89c-4.66699 -14 -7.66699 -28 -9 -42s-2 -30.667 -2 -50v-262h-21v345c0 24 -0.5 47.5 -1.5 70.5s-1.83301 45.5 -2.5 67.5h19zM147 550.001l-92 131h20l85 -112h2l84 112h19l-89 -131h-29z" />
    <glyph glyph-name="Sacute" unicode="&#x15a;" horiz-adv-x="425" 
d="M341 636c-9.33301 7.33301 -23.333 14.1631 -42 20.4961s-39.667 9.5 -63 9.5c-24 0 -45.833 -3.66699 -65.5 -11s-36.5 -17.666 -50.5 -30.999s-24.833 -29 -32.5 -47s-11.5 -38 -11.5 -60c0 -21.333 4 -40 12 -56s18.833 -30.167 32.5 -42.5s29.334 -23.333 47.001 -33
s36.167 -19.167 55.5 -28.5c20 -9.33301 39.167 -19.666 57.5 -30.999s34.666 -24.166 48.999 -38.499s25.666 -30.666 33.999 -48.999s12.5 -39.5 12.5 -63.5c0 -25.333 -4.16699 -49.166 -12.5 -71.499s-20.833 -42 -37.5 -59s-37.5 -30.333 -62.5 -40
s-53.833 -14.5 -86.5 -14.5c-25.333 0 -50.333 3.83301 -75 11.5s-44.667 17.167 -60 28.5l7 20c13.333 -12 32.333 -21.833 57 -29.5s48.667 -11.5 72 -11.5c28.667 0 54 4.33301 76 13s40.5 20.5 55.5 35.5s26.167 32.5 33.5 52.5s11 41.333 11 64c0 22 -4 41.333 -12 58
s-18.667 31.667 -32 45s-28.833 25 -46.5 35s-36.167 19.667 -55.5 29c-20 9.33301 -39.167 19.166 -57.5 29.499s-34.5 22.166 -48.5 35.499s-25.333 28.833 -34 46.5s-13 38.5 -13 62.5c0 25.333 4.33301 48.333 13 69s21 38.5 37 53.5s35 26.5 57 34.5s46.667 12 74 12
c25.333 0 47.833 -3.16699 67.5 -9.5s34.834 -13.166 45.501 -20.499zM323 824.997l-122 -115h-18l99 115h41z" />
    <glyph glyph-name="sacute" unicode="&#x15b;" horiz-adv-x="331" 
d="M290 124c0 -40 -13 -72.335 -39 -97.002s-61.667 -37 -107 -37c-19.333 0 -37.833 2.5 -55.5 7.5s-33.167 12.5 -46.5 22.5l8 16c11.333 -9.33301 25.666 -16.5 42.999 -21.5s34.333 -7.5 51 -7.5c38.667 0 69.167 10.833 91.5 32.5s33.5 49.5 33.5 83.5
c0 16 -2 29.667 -6 41s-10.167 21.666 -18.5 30.999s-18.833 18 -31.5 26s-27.667 16 -45 24c-35.333 16 -63 33.667 -83 53s-30 45 -30 77c0 38 11.667 67.167 35 87.5s55 30.5 95 30.5c18.667 0 35.334 -2.16699 50.001 -6.5s27 -10.166 37 -17.499l-7 -16
c-8.66699 6.66699 -19.667 12.167 -33 16.5s-29.666 6.5 -48.999 6.5c-14.667 0 -28.5 -1.83301 -41.5 -5.5s-24.333 -9.5 -34 -17.5s-17.334 -18.333 -23.001 -31s-8.5 -27.667 -8.5 -45c0 -28.667 9 -51.167 27 -67.5s43 -32.166 75 -47.499
c18.667 -9.33301 35 -18.166 49 -26.499s25.667 -17.833 35 -28.5s16.333 -22.667 21 -36s7 -29 7 -47zM267 685.998l-113 -136h-16l93 136h36z" />
    <glyph glyph-name="Scircumflex" unicode="&#x15c;" horiz-adv-x="425" 
d="M341 636c-9.33301 7.33301 -23.333 14.1631 -42 20.4961s-39.667 9.5 -63 9.5c-24 0 -45.833 -3.66699 -65.5 -11s-36.5 -17.666 -50.5 -30.999s-24.833 -29 -32.5 -47s-11.5 -38 -11.5 -60c0 -21.333 4 -40 12 -56s18.833 -30.167 32.5 -42.5s29.334 -23.333 47.001 -33
s36.167 -19.167 55.5 -28.5c20 -9.33301 39.167 -19.666 57.5 -30.999s34.666 -24.166 48.999 -38.499s25.666 -30.666 33.999 -48.999s12.5 -39.5 12.5 -63.5c0 -25.333 -4.16699 -49.166 -12.5 -71.499s-20.833 -42 -37.5 -59s-37.5 -30.333 -62.5 -40
s-53.833 -14.5 -86.5 -14.5c-25.333 0 -50.333 3.83301 -75 11.5s-44.667 17.167 -60 28.5l7 20c13.333 -12 32.333 -21.833 57 -29.5s48.667 -11.5 72 -11.5c28.667 0 54 4.33301 76 13s40.5 20.5 55.5 35.5s26.167 32.5 33.5 52.5s11 41.333 11 64c0 22 -4 41.333 -12 58
s-18.667 31.667 -32 45s-28.833 25 -46.5 35s-36.167 19.667 -55.5 29c-20 9.33301 -39.167 19.166 -57.5 29.499s-34.5 22.166 -48.5 35.499s-25.333 28.833 -34 46.5s-13 38.5 -13 62.5c0 25.333 4.33301 48.333 13 69s21 38.5 37 53.5s35 26.5 57 34.5s46.667 12 74 12
c25.333 0 47.833 -3.16699 67.5 -9.5s34.834 -13.166 45.501 -20.499zM234 820.997l92 -111h-20l-86 92h-2l-85 -92h-20l91 111h30z" />
    <glyph glyph-name="scircumflex" unicode="&#x15d;" horiz-adv-x="331" 
d="M290 124c0 -40 -13 -72.335 -39 -97.002s-61.667 -37 -107 -37c-19.333 0 -37.833 2.5 -55.5 7.5s-33.167 12.5 -46.5 22.5l8 16c11.333 -9.33301 25.666 -16.5 42.999 -21.5s34.333 -7.5 51 -7.5c38.667 0 69.167 10.833 91.5 32.5s33.5 49.5 33.5 83.5
c0 16 -2 29.667 -6 41s-10.167 21.666 -18.5 30.999s-18.833 18 -31.5 26s-27.667 16 -45 24c-35.333 16 -63 33.667 -83 53s-30 45 -30 77c0 38 11.667 67.167 35 87.5s55 30.5 95 30.5c18.667 0 35.334 -2.16699 50.001 -6.5s27 -10.166 37 -17.499l-7 -16
c-8.66699 6.66699 -19.667 12.167 -33 16.5s-29.666 6.5 -48.999 6.5c-14.667 0 -28.5 -1.83301 -41.5 -5.5s-24.333 -9.5 -34 -17.5s-17.334 -18.333 -23.001 -31s-8.5 -27.667 -8.5 -45c0 -28.667 9 -51.167 27 -67.5s43 -32.166 75 -47.499
c18.667 -9.33301 35 -18.166 49 -26.499s25.667 -17.833 35 -28.5s16.333 -22.667 21 -36s7 -29 7 -47zM188 680.998l92 -131h-20l-85 112h-2l-84 -112h-19l89 131h29z" />
    <glyph glyph-name="Scedilla" unicode="&#x15e;" horiz-adv-x="425" 
d="M341 636c-9.33301 7.33301 -23.3379 14.167 -42.0049 20.5s-39.667 9.5 -63 9.5c-24 0 -45.833 -3.66699 -65.5 -11s-36.5 -17.666 -50.5 -30.999s-24.833 -29 -32.5 -47s-11.5 -38 -11.5 -60c0 -21.333 4 -40 12 -56s18.833 -30.167 32.5 -42.5
s29.334 -23.333 47.001 -33s36.167 -19.167 55.5 -28.5c20 -9.33301 39.167 -19.666 57.5 -30.999s34.666 -24.166 48.999 -38.499s25.666 -30.666 33.999 -48.999s12.5 -39.5 12.5 -63.5c0 -22 -3.16699 -42.833 -9.5 -62.5s-15.666 -37.334 -27.999 -53.001
s-27.666 -29.167 -45.999 -40.5s-39.5 -19.333 -63.5 -24l-35 -59c19.333 -1.33301 36.5 -7.33301 51.5 -18s22.5 -26.334 22.5 -47.001c0 -11.333 -2.16699 -21 -6.5 -29s-10 -14.5 -17 -19.5s-14.833 -8.66699 -23.5 -11s-17.334 -3.5 -26.001 -3.5
c-12 0 -23.167 1.66699 -33.5 5s-18.833 7.66602 -25.5 12.999l6 16c13.333 -11.333 31 -17 53 -17c12.667 0 24.834 3.33301 36.501 10s17.5 18.667 17.5 36c0 10 -2.33301 18.333 -7 25s-10.667 12 -18 16s-15.666 7 -24.999 9s-19 3 -29 3l39 68
c-5.33301 -0.666992 -10.666 -1.16699 -15.999 -1.5s-10.666 -0.5 -15.999 -0.5c-25.333 0 -50.333 3.83301 -75 11.5s-44.667 17.167 -60 28.5l7 20c13.333 -12 32.333 -21.833 57 -29.5s48.667 -11.5 72 -11.5c28.667 0 54 4.33301 76 13s40.5 20.5 55.5 35.5
s26.167 32.5 33.5 52.5s11 41.333 11 64c0 22 -4 41.333 -12 58s-18.667 31.667 -32 45s-28.833 25 -46.5 35s-36.167 19.667 -55.5 29c-20 9.33301 -39.167 19.166 -57.5 29.499s-34.5 22.166 -48.5 35.499s-25.333 28.833 -34 46.5s-13 38.5 -13 62.5
c0 25.333 4.33301 48.333 13 69s21 38.5 37 53.5s35 26.5 57 34.5s46.667 12 74 12c25.333 0 47.833 -3.16699 67.5 -9.5s34.834 -13.166 45.501 -20.499z" />
    <glyph glyph-name="scedilla" unicode="&#x15f;" horiz-adv-x="331" 
d="M290 124c0 -34.667 -9.83398 -63.667 -29.501 -87s-47.167 -38 -82.5 -44l-34 -57c19.333 -1.33301 36.5 -7.33301 51.5 -18s22.5 -26.334 22.5 -47.001c0 -11.333 -2.16699 -21 -6.5 -29s-10 -14.5 -17 -19.5s-14.833 -8.66699 -23.5 -11s-17.334 -3.5 -26.001 -3.5
c-12 0 -23.167 1.66699 -33.5 5s-18.833 7.66602 -25.5 12.999l6 16c13.333 -11.333 31 -17 53 -17c12.667 0 24.834 3.33301 36.501 10s17.5 18.667 17.5 36c0 10 -2.33301 18.333 -7 25s-10.667 12 -18 16s-15.666 7 -24.999 9s-19 3 -29 3l39 67
c-3.33301 -0.666992 -8.33301 -1 -15 -1c-19.333 0 -37.833 2.5 -55.5 7.5s-33.167 12.5 -46.5 22.5l8 16c11.333 -9.33301 25.666 -16.5 42.999 -21.5s34.333 -7.5 51 -7.5c38.667 0 69.167 10.833 91.5 32.5s33.5 49.5 33.5 83.5c0 16 -2 29.667 -6 41
s-10.167 21.666 -18.5 30.999s-18.833 18 -31.5 26s-27.667 16 -45 24c-35.333 16 -63 33.667 -83 53s-30 45 -30 77c0 38 11.667 67.167 35 87.5s55 30.5 95 30.5c18.667 0 35.334 -2.16699 50.001 -6.5s27 -10.166 37 -17.499l-7 -16
c-8.66699 6.66699 -19.667 12.167 -33 16.5s-29.666 6.5 -48.999 6.5c-14.667 0 -28.5 -1.83301 -41.5 -5.5s-24.333 -9.5 -34 -17.5s-17.334 -18.333 -23.001 -31s-8.5 -27.667 -8.5 -45c0 -28.667 9 -51.167 27 -67.5s43 -32.166 75 -47.499
c18.667 -9.33301 35 -18.166 49 -26.499s25.667 -17.833 35 -28.5s16.333 -22.667 21 -36s7 -29 7 -47z" />
    <glyph glyph-name="Scaron" unicode="&#x160;" horiz-adv-x="425" 
d="M341 636c-9.33301 7.33301 -23.333 14.1631 -42 20.4961s-39.667 9.5 -63 9.5c-24 0 -45.833 -3.66699 -65.5 -11s-36.5 -17.666 -50.5 -30.999s-24.833 -29 -32.5 -47s-11.5 -38 -11.5 -60c0 -21.333 4 -40 12 -56s18.833 -30.167 32.5 -42.5s29.334 -23.333 47.001 -33
s36.167 -19.167 55.5 -28.5c20 -9.33301 39.167 -19.666 57.5 -30.999s34.666 -24.166 48.999 -38.499s25.666 -30.666 33.999 -48.999s12.5 -39.5 12.5 -63.5c0 -25.333 -4.16699 -49.166 -12.5 -71.499s-20.833 -42 -37.5 -59s-37.5 -30.333 -62.5 -40
s-53.833 -14.5 -86.5 -14.5c-25.333 0 -50.333 3.83301 -75 11.5s-44.667 17.167 -60 28.5l7 20c13.333 -12 32.333 -21.833 57 -29.5s48.667 -11.5 72 -11.5c28.667 0 54 4.33301 76 13s40.5 20.5 55.5 35.5s26.167 32.5 33.5 52.5s11 41.333 11 64c0 22 -4 41.333 -12 58
s-18.667 31.667 -32 45s-28.833 25 -46.5 35s-36.167 19.667 -55.5 29c-20 9.33301 -39.167 19.166 -57.5 29.499s-34.5 22.166 -48.5 35.499s-25.333 28.833 -34 46.5s-13 38.5 -13 62.5c0 25.333 4.33301 48.333 13 69s21 38.5 37 53.5s35 26.5 57 34.5s46.667 12 74 12
c25.333 0 47.833 -3.16699 67.5 -9.5s34.834 -13.166 45.501 -20.499zM211 709.997l-93 111h20l86 -92h2l85 92h20l-91 -111h-29z" />
    <glyph glyph-name="scaron" unicode="&#x161;" horiz-adv-x="331" 
d="M290 124c0 -40 -13 -72.335 -39 -97.002s-61.667 -37 -107 -37c-19.333 0 -37.833 2.5 -55.5 7.5s-33.167 12.5 -46.5 22.5l8 16c11.333 -9.33301 25.666 -16.5 42.999 -21.5s34.333 -7.5 51 -7.5c38.667 0 69.167 10.833 91.5 32.5s33.5 49.5 33.5 83.5
c0 16 -2 29.667 -6 41s-10.167 21.666 -18.5 30.999s-18.833 18 -31.5 26s-27.667 16 -45 24c-35.333 16 -63 33.667 -83 53s-30 45 -30 77c0 38 11.667 67.167 35 87.5s55 30.5 95 30.5c18.667 0 35.334 -2.16699 50.001 -6.5s27 -10.166 37 -17.499l-7 -16
c-8.66699 6.66699 -19.667 12.167 -33 16.5s-29.666 6.5 -48.999 6.5c-14.667 0 -28.5 -1.83301 -41.5 -5.5s-24.333 -9.5 -34 -17.5s-17.334 -18.333 -23.001 -31s-8.5 -27.667 -8.5 -45c0 -28.667 9 -51.167 27 -67.5s43 -32.166 75 -47.499
c18.667 -9.33301 35 -18.166 49 -26.499s25.667 -17.833 35 -28.5s16.333 -22.667 21 -36s7 -29 7 -47zM166 549.998l-92 131h20l85 -112h2l84 112h19l-89 -131h-29z" />
    <glyph glyph-name="uni0162" unicode="&#x162;" horiz-adv-x="419" 
d="M424 655l-205.001 0.00195312v-655l-38 -64c19.333 -1.33301 36.5 -7.33301 51.5 -18s22.5 -26.334 22.5 -47.001c0 -11.333 -2.16699 -21 -6.5 -29s-10 -14.5 -17 -19.5s-14.833 -8.66699 -23.5 -11s-17.334 -3.5 -26.001 -3.5c-12 0 -23.167 1.66699 -33.5 5
s-18.833 7.66602 -25.5 12.999l6 16c13.333 -11.333 31 -17 53 -17c12.667 0 24.834 3.33301 36.501 10s17.5 18.667 17.5 36c0 10 -2.33301 18.333 -7 25s-10.667 12 -18 16s-15.666 7 -24.999 9s-19 3 -29 3l44 76h-3v655h-203v19h429v-19z" />
    <glyph glyph-name="uni0163" unicode="&#x163;" horiz-adv-x="256" 
d="M110 587l0.000976562 -103.997h119v-16h-119v-310c0 -24 1 -45.167 3 -63.5s5.66699 -33.833 11 -46.5s12.5 -22.334 21.5 -29.001s20.833 -10 35.5 -10c9.33301 0 17.166 1.16699 23.499 3.5s12.166 5.16602 17.499 8.49902l2 -18
c-5.33301 -3.33301 -12 -6.16602 -20 -8.49902s-16.667 -3.5 -26 -3.5c-5.33301 0 -9.33301 0.333008 -12 1l-32 -55c19.333 -1.33301 36.5 -7.33301 51.5 -18s22.5 -26.334 22.5 -47.001c0 -11.333 -2.16699 -21 -6.5 -29s-10 -14.5 -17 -19.5s-14.833 -8.66699 -23.5 -11
s-17.334 -3.5 -26.001 -3.5c-12 0 -23.167 1.66699 -33.5 5s-18.833 7.66602 -25.5 12.999l6 16c13.333 -11.333 31 -17 53 -17c12.667 0 24.834 3.33301 36.501 10s17.5 18.667 17.5 36c0 10 -2.33301 18.333 -7 25s-10.667 12 -18 16s-15.666 7 -24.999 9s-19 3 -29 3
l40 70c-24 7.33301 -40.167 25 -48.5 53s-12.5 64.667 -12.5 110v310h-70v16h70v97z" />
    <glyph glyph-name="Tcaron" unicode="&#x164;" horiz-adv-x="419" 
d="M196 710l-93 111h20l86 -92h2l85 92h20l-91 -111h-29zM424 655h-205v-655h-21v655h-203v19h429v-19z" />
    <glyph glyph-name="tcaron" unicode="&#x165;" horiz-adv-x="261" 
d="M110 587l0.00195312 -103.999h119v-16h-119v-310c0 -24 1 -45.167 3 -63.5s5.66699 -33.833 11 -46.5s12.5 -22.334 21.5 -29.001s20.833 -10 35.5 -10c9.33301 0 17.166 1.16699 23.499 3.5s12.166 5.16602 17.499 8.49902l2 -18
c-5.33301 -3.33301 -12 -6.16602 -20 -8.49902s-16.667 -3.5 -26 -3.5c-35.333 0 -59 14.667 -71 44s-18 70.333 -18 123v310h-70v16h70v97zM242.002 639.001c0 -24 -5.83105 -44.999 -17.498 -62.999s-23.834 -31.667 -36.501 -41l-11 8
c11.333 9.33301 21.833 21.666 31.5 36.999s14.5 35 14.5 59c0 16.667 -3.5 30.5 -10.5 41.5s-14.833 20.167 -23.5 27.5l17 4c9.33301 -8 17.666 -18.167 24.999 -30.5s11 -26.5 11 -42.5z" />
    <glyph glyph-name="Tbar" unicode="&#x166;" horiz-adv-x="419" 
d="M424 655h-205v-279h131v-17h-131v-359h-21v359h-127v17h127v279h-203v19h429v-19z" />
    <glyph glyph-name="tbar" unicode="&#x167;" horiz-adv-x="256" 
d="M110 286l0.00195312 -128.999c0 -24 1 -45.167 3 -63.5s5.66699 -33.833 11 -46.5s12.5 -22.334 21.5 -29.001s20.833 -10 35.5 -10c9.33301 0 17.166 1.16699 23.499 3.5s12.166 5.16602 17.499 8.49902l2 -18c-5.33301 -3.33301 -12 -6.16602 -20 -8.49902
s-16.667 -3.5 -26 -3.5c-35.333 0 -59 14.667 -71 44s-18 70.333 -18 123v129h-55v16h55v165h-70v16h70v97l21 7v-104h119v-16h-119v-165h94v-16h-94z" />
    <glyph glyph-name="Utilde" unicode="&#x168;" horiz-adv-x="591" 
d="M191 718c-0.666992 24 3.66895 43.167 13.002 57.5s22.666 21.5 39.999 21.5c12 0 22.833 -3 32.5 -9s18.667 -12.667 27 -20s16.5 -14 24.5 -20s16.333 -9 25 -9c9.33301 0 16.666 3.83301 21.999 11.5s8.66602 24.167 9.99902 49.5h16
c-1.33301 -30.667 -6.16602 -51.5 -14.499 -62.5s-19.5 -16.5 -33.5 -16.5c-11.333 0 -21.5 3 -30.5 9s-17.5 12.667 -25.5 20s-16.167 14 -24.5 20s-17.833 9 -28.5 9c-12 0 -21.333 -5.33301 -28 -16s-9.66699 -25.667 -9 -45h-16zM105.003 674v-403.002
c0 -47.333 4.83301 -87.666 14.5 -120.999s22.834 -60.5 39.501 -81.5s36.167 -36.333 58.5 -46s46.166 -14.5 71.499 -14.5c27.333 0 53 5 77 15s44.833 25.833 62.5 47.5s31.667 49.334 42 83.001s15.5 74.167 15.5 121.5v399h21v-399c0 -50.667 -5.66699 -94 -17 -130
s-27 -65.5 -47 -88.5s-43.167 -40 -69.5 -51s-54.5 -16.5 -84.5 -16.5c-28 0 -54.5 5.16699 -79.5 15.5s-46.667 26.666 -65 48.999s-33 51.333 -44 87s-16.5 78.834 -16.5 129.501v404h21z" />
    <glyph glyph-name="utilde" unicode="&#x169;" horiz-adv-x="494" 
d="M147 568c-0.666992 24 3.66895 43.167 13.002 57.5s22.666 21.5 39.999 21.5c12 0 22.833 -3 32.5 -9s18.667 -12.667 27 -20s16.5 -14 24.5 -20s16.333 -9 25 -9c9.33301 0 16.666 3.83301 21.999 11.5s8.66602 24.167 9.99902 49.5h16
c-1.33301 -30.667 -6.16602 -51.5 -14.499 -62.5s-19.5 -16.5 -33.5 -16.5c-11.333 0 -21.5 3 -30.5 9s-17.5 12.667 -25.5 20s-16.167 14 -24.5 20s-17.833 9 -28.5 9c-12 0 -21.333 -5.33301 -28 -16s-9.66699 -25.667 -9 -45h-16zM76.0029 483l21.001 -0.00195312v-276
c0 -38 3.66699 -69.667 11 -95s17.333 -45.833 30 -61.5s27.334 -26.834 44.001 -33.501s34.667 -10 54 -10c20 0 38.333 3.83301 55 11.5s31.167 17.334 43.5 29.001s22.666 24.667 30.999 39s14.5 28.5 18.5 42.5s6.5 26.5 7.5 37.5s1.5 27.5 1.5 49.5v267h21v-312
c0 -13.333 0.166992 -28 0.5 -44l1 -47l1 -44c0.333008 -14 0.833008 -26 1.5 -36h-19l-4 103h-2c-16.667 -34.667 -37.834 -62.167 -63.501 -82.5s-57.5 -30.5 -95.5 -30.5c-28 0 -52 5.16699 -72 15.5s-36.333 24.833 -49 43.5s-22 41.334 -28 68.001s-9 56.334 -9 89.001
v277z" />
    <glyph glyph-name="Umacron" unicode="&#x16a;" horiz-adv-x="591" 
d="M398 757v-18h-205v18h205zM105 674v-403.002c0 -47.333 4.83301 -87.666 14.5 -120.999s22.834 -60.5 39.501 -81.5s36.167 -36.333 58.5 -46s46.166 -14.5 71.499 -14.5c27.333 0 53 5 77 15s44.833 25.833 62.5 47.5s31.667 49.334 42 83.001s15.5 74.167 15.5 121.5
v399h21v-399c0 -50.667 -5.66699 -94 -17 -130s-27 -65.5 -47 -88.5s-43.167 -40 -69.5 -51s-54.5 -16.5 -84.5 -16.5c-28 0 -54.5 5.16699 -79.5 15.5s-46.667 26.666 -65 48.999s-33 51.333 -44 87s-16.5 78.834 -16.5 129.501v404h21z" />
    <glyph glyph-name="umacron" unicode="&#x16b;" horiz-adv-x="494" 
d="M339 611v-17h-185v17h185zM76 483l21.001 -0.00195312v-276c0 -38 3.66699 -69.667 11 -95s17.333 -45.833 30 -61.5s27.334 -26.834 44.001 -33.501s34.667 -10 54 -10c20 0 38.333 3.83301 55 11.5s31.167 17.334 43.5 29.001s22.666 24.667 30.999 39
s14.5 28.5 18.5 42.5s6.5 26.5 7.5 37.5s1.5 27.5 1.5 49.5v267h21v-312c0 -13.333 0.166992 -28 0.5 -44l1 -47l1 -44c0.333008 -14 0.833008 -26 1.5 -36h-19l-4 103h-2c-16.667 -34.667 -37.834 -62.167 -63.501 -82.5s-57.5 -30.5 -95.5 -30.5
c-28 0 -52 5.16699 -72 15.5s-36.333 24.833 -49 43.5s-22 41.334 -28 68.001s-9 56.334 -9 89.001v277z" />
    <glyph glyph-name="Ubreve" unicode="&#x16c;" horiz-adv-x="591" 
d="M207 818c0.666992 -25.333 7.66699 -45.833 21 -61.5s36 -23.5 68 -23.5c27.333 0 48.833 6.66699 64.5 20s23.834 35 24.501 65h16c-0.666992 -35.333 -10.334 -61.333 -29.001 -78s-44 -25 -76 -25c-37.333 0 -64 9.83301 -80 29.5s-24.333 44.167 -25 73.5h16z
M105 674v-403.002c0 -47.333 4.83301 -87.666 14.5 -120.999s22.834 -60.5 39.501 -81.5s36.167 -36.333 58.5 -46s46.166 -14.5 71.499 -14.5c27.333 0 53 5 77 15s44.833 25.833 62.5 47.5s31.667 49.334 42 83.001s15.5 74.167 15.5 121.5v399h21v-399
c0 -50.667 -5.66699 -94 -17 -130s-27 -65.5 -47 -88.5s-43.167 -40 -69.5 -51s-54.5 -16.5 -84.5 -16.5c-28 0 -54.5 5.16699 -79.5 15.5s-46.667 26.666 -65 48.999s-33 51.333 -44 87s-16.5 78.834 -16.5 129.501v404h21z" />
    <glyph glyph-name="ubreve" unicode="&#x16d;" horiz-adv-x="494" 
d="M164 667c0.666992 -25.333 7.33203 -47.502 19.999 -66.502s33.667 -28.5 63 -28.5c25.333 0 45.333 8.33301 60 25s22.334 40 23.001 70h17c-0.666992 -36 -10 -64 -28 -84s-42 -30 -72 -30c-17.333 0 -32.333 3.16699 -45 9.5s-23 14.833 -31 25.5
s-14 22.834 -18 36.501s-6 27.834 -6 42.501h17zM75.998 482.998l21.001 -0.00195312v-276c0 -38 3.66699 -69.667 11 -95s17.333 -45.833 30 -61.5s27.334 -26.834 44.001 -33.501s34.667 -10 54 -10c20 0 38.333 3.83301 55 11.5s31.167 17.334 43.5 29.001
s22.666 24.667 30.999 39s14.5 28.5 18.5 42.5s6.5 26.5 7.5 37.5s1.5 27.5 1.5 49.5v267h21v-312c0 -13.333 0.166992 -28 0.5 -44l1 -47l1 -44c0.333008 -14 0.833008 -26 1.5 -36h-19l-4 103h-2c-16.667 -34.667 -37.834 -62.167 -63.501 -82.5s-57.5 -30.5 -95.5 -30.5
c-28 0 -52 5.16699 -72 15.5s-36.333 24.833 -49 43.5s-22 41.334 -28 68.001s-9 56.334 -9 89.001v277z" />
    <glyph glyph-name="Uring" unicode="&#x16e;" horiz-adv-x="591" 
d="M298 855c24 0 44.3311 -7.16602 60.998 -21.499s25 -33.5 25 -57.5s-8.66699 -43.167 -26 -57.5s-37.666 -21.5 -60.999 -21.5c-25.333 0 -46.5 7.16699 -63.5 21.5s-25.5 33.166 -25.5 56.499c0 24 8.33301 43.333 25 58s38.334 22 65.001 22zM297.998 839.001
c-21.333 0 -38.5 -5.66699 -51.5 -17s-19.5 -27 -19.5 -47c0 -19.333 6.83301 -34.5 20.5 -45.5s30.167 -16.5 49.5 -16.5s35.5 5.5 48.5 16.5s19.5 26.5 19.5 46.5s-6.33301 35.5 -19 46.5s-28.667 16.5 -48 16.5zM104.998 674.001v-403.002
c0 -47.333 4.83301 -87.666 14.5 -120.999s22.834 -60.5 39.501 -81.5s36.167 -36.333 58.5 -46s46.166 -14.5 71.499 -14.5c27.333 0 53 5 77 15s44.833 25.833 62.5 47.5s31.667 49.334 42 83.001s15.5 74.167 15.5 121.5v399h21v-399c0 -50.667 -5.66699 -94 -17 -130
s-27 -65.5 -47 -88.5s-43.167 -40 -69.5 -51s-54.5 -16.5 -84.5 -16.5c-28 0 -54.5 5.16699 -79.5 15.5s-46.667 26.666 -65 48.999s-33 51.333 -44 87s-16.5 78.834 -16.5 129.501v404h21z" />
    </font>
</defs>
</svg>
